<svg width="623" height="935" viewBox="0 0 623 935" fill="none" xmlns="http://www.w3.org/2000/svg">
<path opacity="0.5" d="M475.142 874.123C574.057 819.129 35.1859 828.251 138.577 879.82C199.134 910.025 251.333 919.649 327.955 914.733C390.311 910.733 427.992 900.337 475.142 874.123Z" fill="#8A8A8A"/>
<path d="M219.905 56.0239C235.55 56.9745 240.738 50.7783 253.366 42.6344C260.449 38.0666 268.269 33.9193 276.376 31.451C290.287 27.3613 306.315 27.8533 320.194 31.8612C333.763 35.7798 343.646 40.8974 351.706 52.9418C355.459 54.0649 360.406 55.5815 363.502 57.8789C384.803 73.6835 383.208 101.631 367.387 120.035C372.725 130.83 369.33 158.369 354.427 160.75C353.505 166.436 352.277 171.592 349.836 176.865C345.513 186.199 342.264 186.202 342.011 196.584C348.529 201.418 354.74 206.421 358.219 213.966C370.649 219.117 412.818 234.959 420.088 244.473C446.088 279.398 442.11 330.22 450.225 371.343C457.769 409.574 457.372 447.655 457.262 486.368C457.249 492.837 457.924 493.915 451.911 496.777C453.638 516.4 459.48 548.011 446.669 564.022C444.748 566.386 442.264 568.199 440 570.199C433.311 576.115 427.699 581.69 418.247 582.416C413.092 582.813 408.96 581.461 409.173 575.193C409.312 571.084 410.797 563.83 413.469 560.602C414.92 559.1 417.204 558.415 419.108 558.036C422.79 550.366 423.417 547.463 424.471 539.071C422.444 544.746 419.753 554.452 414.001 557C406.73 560.219 404.466 555.658 405.246 549.184C405.956 543.285 406.867 537.976 407.649 532.123C408.666 524.494 407.798 515.61 411 508.538C412.653 504.886 415.078 501.767 416.566 498.015C404.612 493.262 407.425 491.408 405.574 480.168C403.862 469.773 403.75 455.336 401.043 445.49C401.222 452.735 403.099 478.899 398.794 483.565C397.082 485.423 394.647 486.51 392.386 487.532C393.146 519.541 394.373 552.206 393.552 584.169C392.936 608.133 391.128 632.772 389.926 656.814C388.827 682.093 387.954 707.376 387.307 732.669C386.842 748.241 385.914 781.24 385.749 798.269C385.749 798.274 387.702 800.292 387.705 800.301C388.879 803.999 388.159 810.81 388.08 814.495C388.007 817.91 386.857 820.215 384.882 822.507C391.185 828.008 398.699 834.866 405.529 839.148C419.859 848.137 444.197 852.671 444.868 873.352C444.99 877.091 445.564 881.716 442.609 884.665C436.193 891.061 420.461 891.655 411.949 892.385C404.248 893.047 394.665 889.827 388.08 889.608C372.612 887.478 318.769 867.39 318.769 867.39C318.769 867.39 318.916 847.942 321.234 835.778C321.942 832.067 324.276 824.821 324.276 824.821L320.018 820.681L318.497 801.518L321.234 797.428C321.234 797.428 319.919 717.557 316.063 666.553C313.028 626.41 305.384 564.022 305.384 564.022C305.384 564.022 295.022 626.009 291.423 666.553C287.132 714.883 283.209 798.269 283.209 798.269L285.643 801.518L282.601 820.681C281.196 822.966 279.559 824.821 279.559 824.821C279.559 824.821 281.055 831.969 281.657 837.629C282.684 847.295 282.265 867.39 282.265 867.39C278.396 866.952 230.523 892.673 227.416 890.92C216.247 894.225 185.879 895.399 176.975 884.944C174.986 882.606 174.949 876.434 175.079 873.357C175.759 857.327 193.94 851.922 203.959 842.499C210.518 836.418 215.344 829.656 220.742 822.539C220.267 822.009 219.823 821.553 219.334 821.083C214.908 816.796 216.029 806.437 216.165 800.296L218.852 797.383C218.256 756.048 217.243 714.722 215.813 673.405C214.686 645.126 211.884 616.538 211.016 587.853C210 554.265 210.312 522.809 210.808 489.299C207.267 488.057 202.277 486.587 199.684 483.898C198.231 482.392 198.14 480.616 198.07 478.589C197.81 471.028 198.05 463.326 198.224 455.77L199.081 421.207C199.627 394.086 199.968 366.961 200.104 339.835C194.949 345.822 189.171 351.243 182.867 356.004C168.624 366.889 146.771 378.563 128.327 375.975C120.694 374.974 113.804 370.886 109.266 364.664C90.6649 339.412 101.043 281.244 103.419 251.553C104.215 241.601 114.274 243.982 110.257 236.847C107.292 231.579 102.34 225.962 99.9159 220.127C94.5125 200.313 88.5271 183.15 79.1762 164.733C78.5737 163.546 77.5103 158.816 78.0004 157.763C84.6535 143.454 97.8082 168.444 101.298 174.399C99.888 170.837 81.3459 130.352 99.1455 135.586C104.866 137.268 108.209 154.261 111.81 159.26C110.134 149.45 106.433 139.921 106.435 129.893C106.426 126.292 107.079 122.147 111.352 121.559C119.122 120.49 122.082 130.685 123.183 136.559C124.774 145.051 127.262 153.109 130.123 161.255C130.583 162.563 131.106 167.501 132.003 167.861C131.96 160.431 131.308 153.254 130.789 146.041C130.652 139.637 127.77 129.866 132.54 124.645C136.839 119.939 142.926 127.131 144.252 131.203C150.1 149.168 148.077 168.458 156.34 185.977L156.697 185.484C162.023 178.032 165.046 165.834 175.143 163.933C177.056 163.573 179.67 164.017 181.244 165.207C182.137 165.87 182.749 166.844 182.962 167.936C183.615 171.486 176.975 184.167 175.965 188.276C171.159 207.821 167.695 217.724 154.247 232.948L154.114 241.001C156.693 241.881 158.87 242.59 159.967 245.31C162.268 251.015 161.453 259.804 161.448 265.87C165.094 260.768 175.46 245.941 179.768 242.289C194.725 229.611 221.847 220.929 239.957 213.124C244.067 206.05 250.659 198.748 256.965 193.582L256.855 186.836C250.572 178.259 247.645 171.012 245.788 160.475C243.53 160.615 241.504 160.791 239.24 160.639C236.264 159.001 234.333 157.586 232.573 154.587C227.412 145.796 222.734 127.116 230.883 119.163C227.297 113.375 224.764 107.723 224.11 100.832C223.983 99.4928 224.026 96.0162 223.238 95.4775L221.919 96.6823C220.876 96.1687 220.226 94.7155 219.914 93.5851C216.957 82.8518 221.856 73.8949 228.601 66.0633C223.478 62.9963 222.407 61.497 219.905 56.0239Z" fill="#261E16"/>
<path d="M323.525 484.442C323.461 483.068 323.37 482.853 323.907 481.644C326.89 479.836 330.26 479.877 333.627 479.822C334.261 480.53 334.075 481.794 334.121 482.968C334.032 487.802 332.815 495.08 336.839 498.285C354.509 498.002 372.009 494.769 388.616 488.72C389.052 519.144 390.478 550.248 389.698 580.686C388.996 608.056 386.937 636.188 385.643 663.654C384.449 692.475 383.545 721.301 382.93 750.137C382.427 766.494 382.096 782.857 381.938 799.224L376.554 800.553C360.256 803.762 347.433 803.652 330.879 801.228C328.609 800.886 325.962 800.324 323.671 799.895C323.56 779.661 321.811 758.797 321.424 738.385C320.836 707.331 320.562 675.387 317.481 644.543C314.012 609.795 309.588 574.217 308.91 539.369C319.5 539.328 329.111 535.854 338.772 531.736C340.451 530.868 341.794 530.398 342.836 528.864L342.357 528.426C337.532 528.704 323.957 533.516 317.457 534.726C300.158 537.94 287.149 530.553 272.009 528.129C279.134 533.511 290.82 536.986 299.574 538.616C301.544 538.999 301.74 538.657 302.624 539.967C303.055 544.564 300.254 562.169 299.711 568.154C297.022 597.788 291.717 627.737 288.482 657.207C286.338 676.738 286.433 700.159 285.229 720.48C284.218 737.814 283.101 755.145 281.879 772.466C281.328 780.766 280.297 791.664 280.173 799.831L274.174 801.041C254.943 804.287 240.907 802.968 222.249 798.699C222.052 795.22 222.011 791.741 221.948 788.253C221.329 753.78 220.795 719.265 219.605 684.801C218.367 648.971 214.806 613.242 214.075 577.367C213.709 559.429 213.564 541.492 213.642 523.554C213.701 513.688 214.285 501.731 213.83 492.13L214.105 491.099C215.263 490.638 222.878 492.824 224.638 493.486C232.11 496.285 271.264 501.7 277.338 498.759C278.914 496.869 279.029 483.812 279.3 480.164C286.905 481.393 298.643 481.922 306.379 482.242C307.08 483.392 306.84 483.817 306.851 485.31C306.614 491.473 305.456 528.8 306.531 530.786C306.894 531.457 307.181 531.507 307.851 531.717C308.657 530.681 308.47 527.54 308.772 527.476C327.045 523.673 323.723 500.955 323.525 484.442Z" fill="#1E536E"/>
<path d="M336.839 498.285C354.509 498.002 372.01 494.769 388.616 488.72C389.052 519.144 390.478 550.249 389.698 580.686C388.996 608.056 386.937 636.188 385.643 663.654C384.449 692.475 383.545 721.301 382.93 750.137C382.427 766.495 382.096 782.857 381.938 799.224L376.554 800.553C377.609 793.965 377.653 781.373 377.682 774.489C377.92 718.895 381.795 663.343 382.771 607.809C383.46 569.706 382.736 531.59 380.599 493.541C369.977 497.294 355.261 501.517 343.942 501.43C340.729 501.325 341.047 501.257 339.657 498.668L336.839 498.285Z" fill="#1B3747"/>
<path d="M339.657 498.668C341.53 498.682 342.11 498.353 343.443 499.253C343.619 499.956 343.844 500.723 343.942 501.43C340.729 501.325 341.047 501.257 339.657 498.668Z" fill="#1D4055"/>
<path d="M308.91 539.369C319.5 539.328 329.111 535.854 338.772 531.736C336.833 535.201 319.839 544.231 314.841 548.167C316.381 585.621 322.205 622.528 325.399 659.787C327.867 688.572 328.288 718.991 329.101 747.895L330.069 778.629C330.365 785.857 330.949 794.102 330.879 801.228C328.609 800.886 325.962 800.324 323.671 799.895C323.56 779.661 321.811 758.797 321.424 738.385C320.836 707.331 320.562 675.387 317.481 644.543C314.012 609.795 309.588 574.217 308.91 539.369Z" fill="#1B3747"/>
<path d="M299.574 538.616C301.544 538.999 301.74 538.657 302.624 539.967C303.056 544.564 300.255 562.169 299.711 568.154C297.022 597.788 291.717 627.737 288.482 657.207C286.338 676.738 286.434 700.159 285.229 720.48C284.218 737.815 283.101 755.145 281.879 772.466C281.328 780.766 280.297 791.664 280.173 799.831L274.174 801.041C275.737 797.567 276.245 761.29 276.578 754.533C277.476 736.312 277.882 716.818 278.468 698.52C279.146 677.35 283.125 657.408 286.132 636.53C291.033 603.952 295.514 571.309 299.574 538.616Z" fill="#1B3747"/>
<path d="M279.3 480.165C286.905 481.393 298.643 481.922 306.379 482.242C307.08 483.392 306.84 483.817 306.851 485.31C299.436 485.273 293.129 484.808 285.753 484.315C285.413 488.328 284.881 501.029 282.315 503.028C278.072 506.334 258.819 503.521 254.015 502.96C244.415 501.837 222.314 496.5 213.831 492.131L214.105 491.099C215.263 490.638 222.878 492.825 224.638 493.486C232.11 496.285 271.264 501.7 277.338 498.76C278.914 496.869 279.029 483.812 279.3 480.165Z" fill="#1B3747"/>
<path d="M323.525 484.442C323.461 483.068 323.37 482.853 323.907 481.644C326.89 479.836 330.26 479.877 333.627 479.822C334.261 480.53 334.075 481.794 334.121 482.968C330.784 483.406 326.772 483.826 323.525 484.442Z" fill="#1B3747"/>
<path d="M271.769 249.366C269.796 245.233 267.029 239.305 265.622 235.115C274.04 243.129 284.899 248.092 296.466 249.213C311.425 250.615 323.357 246.073 334.71 236.617L332.101 249.426C332.02 250.074 331.791 252.334 331.592 252.797C325.807 289.287 327.902 326.77 329.623 363.683C331.059 393.195 332.296 422.718 333.334 452.248C333.436 453.779 333.568 455.262 333.53 456.799C333.643 462.711 333.593 470.367 333.951 476.138C317.881 479.073 302.394 479.986 286.117 477.663L279.36 476.772C279.982 471.659 280.037 462.665 280.22 457.283L281.368 414.921C282.628 372.191 284.057 330.744 283.899 287.997C282.779 273.565 278.902 265.564 273.218 252.512C272.795 251.745 272.16 250.222 271.769 249.366Z" fill="#BC3601"/>
<path d="M283.899 287.997C288.089 299.327 287.413 356.861 287.349 371.222C287.277 397.885 287.017 424.547 286.569 451.207C304.785 456.99 314.934 455.546 333.334 452.248C333.436 453.779 333.568 455.262 333.53 456.799C333.643 462.711 333.593 470.367 333.951 476.138C317.881 479.073 302.394 479.986 286.117 477.663L279.36 476.772C279.982 471.659 280.037 462.665 280.22 457.283L281.368 414.921C282.628 372.191 284.057 330.744 283.899 287.997Z" fill="#8D2602"/>
<path d="M286.444 455.356L287.204 455.601C298.652 459.232 319.609 460.556 330.069 454.922L332.272 453.741L333.004 454.169L333.53 456.799C333.643 462.711 333.593 470.367 333.951 476.138C317.881 479.073 302.394 479.987 286.117 477.663C286.146 470.221 286.123 462.793 286.444 455.356Z" fill="#BC3601"/>
<path d="M271.769 249.366C269.796 245.233 267.029 239.305 265.622 235.115C274.04 243.129 284.899 248.092 296.466 249.213C311.425 250.615 323.357 246.073 334.71 236.617L332.101 249.426C332.02 250.074 331.791 252.334 331.592 252.797L330.994 252.162C315.035 261.658 299.678 261.556 282.459 256.286C279.345 255.333 276.511 253.596 273.469 252.593L273.218 252.512C272.795 251.746 272.16 250.222 271.769 249.366Z" fill="#BC3601"/>
<path d="M271.769 249.365C272.701 249.796 273.636 250.221 274.574 250.64C289.324 257.223 305.243 259.515 320.876 254.642C324.579 253.488 328.315 250.802 332.101 249.426C332.02 250.074 331.791 252.333 331.592 252.797L330.994 252.162C315.035 261.658 299.678 261.556 282.459 256.286C279.345 255.333 276.511 253.596 273.469 252.593L273.218 252.512C272.795 251.745 272.16 250.221 271.769 249.365Z" fill="#8D2602"/>
<path d="M114.798 237.776L110.25 231.581C100.664 218.284 98.6832 206.463 94.5016 190.943C92.544 183.676 76.273 160.746 83.1908 156.7C88.5892 156.635 98.8982 177.944 101.626 182.534C103.908 186.375 102.84 185.668 102.035 188.439C106.033 187.452 120.519 175.381 126.585 174.317C128.36 174.005 135.057 171.794 136.617 170.961L135.516 170.567C134.594 169.302 134.294 143.89 133.281 140.203C132.545 137.524 132.264 129.911 134.131 127.228C137.357 125.516 140.866 130.775 141.499 133.291C144.667 145.884 144.926 159.118 147.717 171.838C149.038 177.865 150.992 182.907 153.283 188.633C147.485 191.542 143.29 192.716 139.101 198.066C132.331 206.71 131.296 213.414 132.36 223.79C133.861 219.27 133.404 214.086 135.521 209.299C137.161 205.591 138.204 203.567 140.505 200.16C145.146 193.222 154.106 193.671 159.134 187.375C164.158 181.085 167.575 166.429 177.946 167.713L178.59 168.621C179.159 172.763 172.756 186.484 170.944 192.077C166.906 208.747 162.72 219.328 150.435 232.071C151.048 237.358 150.583 247.348 150.389 252.965C149.086 253.484 147.062 254.367 145.78 254.747C135.126 257.992 122.756 256.379 112.601 252.158C113.213 246.955 113.794 242.91 114.798 237.776Z" fill="#F4B788"/>
<path d="M142.234 235.903C158.245 225.14 165.859 195.825 170.944 192.077C166.906 208.747 162.72 219.328 150.435 232.071C151.048 237.358 150.583 247.348 150.389 252.964C149.086 253.484 147.062 254.367 145.78 254.747C147.067 247.494 147.688 242.171 147.962 234.814L142.234 235.903Z" fill="#E89768"/>
<path d="M329.894 826.297C338.238 827.708 349.14 827.607 357.703 827.512L361.351 831.004L364.469 833.538C363.087 834.538 361.824 835.172 361.278 836.702L361.436 837.733C363.919 838.838 365.225 837.309 367.162 835.697L372.883 840.336C371.786 841.628 370.826 842.459 370.722 844.162L371.104 845.125C373.519 845.577 374.197 844.066 375.678 842.322L382.576 847.43C381.434 848.85 380.062 850.225 379.837 852L380.123 853.169C382.704 853.959 383.862 851.101 385.173 849.138C387.758 850.841 390.601 852.804 393.232 854.379C390.626 857.762 390.146 858.835 388.647 862.834L388.942 862.592C390.806 861.054 393.044 858.68 394.925 856.895C400.05 852.028 408.268 849.038 415.312 849.663C421.959 850.252 432.77 856.931 436.937 862.154C438.348 863.93 439.409 865.957 440.064 868.126C427.153 875.878 396.095 875.353 381.486 871.737C371.984 869.386 360.802 864.35 351.483 860.953C342.114 857.543 332.77 855.342 323.984 850.613C324.604 841.71 325.345 835.665 326.886 826.786C330.226 829.968 338.414 835.044 343.167 833.008L343.644 832.296C336.92 829.872 336.123 830.356 329.894 826.297Z" fill="#EBDBC4"/>
<path d="M329.894 826.297C338.238 827.708 349.14 827.607 357.703 827.512L361.351 831.004C355.875 831.99 350.337 831.465 344.801 831.502C344.295 831.506 343.937 831.931 343.644 832.296C336.92 829.872 336.123 830.356 329.894 826.297Z" fill="#CAB292"/>
<path d="M259.774 190.576C271.157 204.328 278.85 214.038 297.856 215.886C316.655 217.714 327.777 206.191 339.277 193.013C338.26 200.966 338.181 209.048 337.34 217.014C337.195 221.06 336.515 226.365 336.096 230.483C326.85 241.307 316.142 246.1 301.83 246.212C288.593 246.39 275.848 241.205 266.491 231.838C258.613 223.948 259.263 209.729 259.32 199.302L259.774 190.576Z" fill="#F4B788"/>
<path d="M259.774 190.576C271.157 204.328 278.85 214.038 297.856 215.886C316.655 217.714 327.777 206.191 339.277 193.013C338.26 200.966 338.181 209.048 337.34 217.014C325.632 222.88 320.258 230.599 304.705 230.162C286.448 229.648 275.486 214.956 264.621 202.36C263.08 200.574 261.61 198.079 260.374 196.787L259.766 197.095L259.32 199.302L259.774 190.576Z" fill="#E89768"/>
<path d="M251.186 827.242C259.217 827.151 267.339 826.749 275.212 825.01C271.559 828.452 268.359 831.191 263.258 832.356L263.133 832.707L263.491 833.365C267.486 833.917 271.468 831.657 274.688 829.621C275.704 828.639 275.58 828.393 276.616 828.365C278.567 831.479 278.841 846.253 279.013 850.544C279.053 851.535 277.577 852.197 276.6 852.841C271.362 856.187 263.466 858.415 258.103 861.004C236.636 871.815 219.777 876.088 195.609 874.481C167.361 872.6 181.844 861.314 196.534 852.306C205.558 852.087 212.607 852.804 220.97 857.575C222.601 858.506 226.364 863.519 227.887 863.752L228.086 863.085C227.115 859.397 225.861 858.47 223.128 855.781L228.55 850.266C229.858 852.115 230.482 853.909 232.879 853.183L233.206 851.909C232.993 850.238 232.055 849.554 230.872 848.271L235.742 843.244C237.532 844.723 238.54 846.107 240.864 845.203L241.068 844.212C240.614 842.578 239.48 841.847 238.169 840.678L242.259 836.579C243.499 837.432 244.566 838.35 246.007 838.633C247.603 837.994 247.066 838.405 248.12 837.131C247.841 835.725 246.408 835.049 245.054 834.054C245.35 832.931 246.658 832.109 247.689 831.187L251.186 827.242Z" fill="#EBDBC4"/>
<path d="M251.186 827.242C259.217 827.151 267.339 826.749 275.212 825.01C271.559 828.452 268.359 831.191 263.258 832.356C261.905 831.456 250.536 831.324 247.689 831.187L251.186 827.242Z" fill="#CAB292"/>
<path d="M274.688 829.621C275.704 828.639 275.58 828.393 276.616 828.365C278.567 831.479 278.841 846.253 279.013 850.544C279.053 851.535 277.577 852.197 276.6 852.84C275.993 847.485 276.743 833.643 274.688 829.621Z" fill="#CAB292"/>
<path d="M418.225 501.786C418.778 500.353 418.818 499.426 419.914 498.791C426.027 499.317 431.818 500.006 437.956 499.641C440.749 499.476 446.084 497.741 448.222 498.011C448.853 499.362 448.765 500.033 448.819 501.535C451.1 519.614 454.897 550.198 441.712 564.62C443.382 560.941 450.838 540.675 446.924 538.766C446.228 539.867 446.152 543.227 445.875 544.884C445.129 549.313 443.901 553.641 442.211 557.8C437.648 568.875 431.648 574.623 420.793 579.161C431.346 570.177 440.479 556.106 439.428 541.743L439.033 541.784C438.226 543.551 437.783 547.304 437.541 549.395C436.705 556.604 422.684 580.453 414.033 578.54C409.53 575.011 415.067 568.811 417.593 565.757C424.653 557.297 427.301 546.012 426.192 535.183C425.695 530.334 426.3 529.832 428.027 525.353C420.033 534.009 421.513 545.916 412.532 554.22C411.475 555.197 411.046 555.334 409.861 555.234C407.414 553.463 408.435 546.012 409.046 543.428C411.385 533.548 410.612 522.952 412.638 513.168C413.195 510.484 416.833 504.649 418.225 501.786Z" fill="#F4B788"/>
<path d="M418.225 501.786C418.778 500.353 418.818 499.426 419.914 498.791C426.027 499.317 431.818 500.006 437.956 499.641C440.749 499.476 446.084 497.741 448.222 498.011C448.853 499.362 448.765 500.033 448.819 501.535C435.114 503.708 432.099 503.444 418.225 501.786Z" fill="#E89768"/>
<path d="M323.571 858.876C330.945 861.697 341.924 864.802 349.563 867.436C355.372 869.44 375.307 878.361 380.063 878.211C381.974 876.32 380.317 875.759 381.808 873.965C384.531 874.344 387.602 875.161 390.213 875.572C402.925 877.567 430.144 877.809 440.893 870.303L441.134 878.959C441.212 887.218 417.997 888.414 411.81 888.843C388.637 890.446 367.162 879.996 345.77 872.682C339.432 870.513 328.945 868.892 324.142 864.441C323.326 862.834 323.548 860.72 323.571 858.876Z" fill="#EBDBC4"/>
<path d="M376.631 804.146C379.149 803.534 381.738 802.94 384.235 802.274C384.424 808.57 386.498 819.171 378.815 820.823C363.271 824.398 347.204 825.092 331.41 822.878C320.888 821.266 322.726 817.655 321.967 808.287C321.826 806.556 321.769 804.735 321.672 802.995C324.917 803.79 327.687 804.264 330.966 804.812C345.703 807.711 361.954 806.981 376.631 804.146Z" fill="#768791"/>
<path d="M321.672 802.995C324.917 803.79 327.687 804.264 330.966 804.812C330.473 810.282 329.352 817.842 331.41 822.878C320.888 821.266 322.726 817.655 321.967 808.286C321.826 806.556 321.769 804.735 321.672 802.995Z" fill="#5A6B76"/>
<path d="M376.631 804.146C379.149 803.534 381.738 802.94 384.235 802.274C384.424 808.57 386.498 819.171 378.815 820.823C378.805 818.673 377.686 805.374 376.631 804.146Z" fill="#5A6B76"/>
<path d="M219.572 801.776C238.865 806.273 254.601 808.213 274.348 804.579L282.215 803.041C281.844 808.953 280.822 814.669 279.595 820.458C276.537 821.271 274.51 821.777 271.34 822.261C256.158 824.215 235.777 824.781 221.458 818.267C218.843 817.08 219.53 804.652 219.572 801.776Z" fill="#768791"/>
<path d="M274.348 804.579L282.215 803.041C281.844 808.953 280.822 814.669 279.595 820.458C276.537 821.271 274.51 821.777 271.34 822.261C272.866 817.842 275.764 808.948 274.348 804.579Z" fill="#5A6B76"/>
<path d="M342.02 201.107C345.883 202.927 353.881 213.147 355.304 216.935C360.395 230.493 363.539 245.084 367.544 259.05C367.851 259.071 355.964 252.883 353.824 252.17C351.415 251.4 350.863 250.866 348.299 250.616C339.461 249.757 335.425 261.821 333.804 262.551C333.763 261.162 334.55 258.497 334.756 256.728C335.852 247.294 338.007 237.98 339.406 228.608C340.748 219.622 341.303 210.181 342.02 201.107Z" fill="#49250A"/>
<path d="M178.281 872.152C193.455 879.612 218.623 878.087 234.948 873.704C237.565 873.001 245.064 869.071 247.034 869.267C247.515 871.39 247.295 871.755 249.289 872.303C252.906 873.335 256.006 873.207 258.731 873.951C241.016 882.739 228.998 889.473 208.48 889.697C201.012 889.779 186.435 889.003 180.179 883.949C177.998 882.187 178.338 875.138 178.281 872.152Z" fill="#EBDBC4"/>
<path d="M112.016 124.612C119.551 126.54 120.15 140.706 122.234 147.383C124.605 154.981 126.958 163.112 128.879 170.823L123.42 173.036L118.475 175.615C117.7 172.714 116.543 166.284 115.882 162.781C113.801 151.76 108.46 138.763 109.697 127.68C109.878 126.061 110.776 125.432 112.016 124.612Z" fill="#F4B788"/>
<path d="M321.485 481.534C321.576 482.434 321.486 483.602 321.449 484.534C321.373 491.948 321.406 499.28 320.904 506.676C320.264 516.108 318.413 521.756 308.728 524.226C308.926 516.204 309.038 508.183 309.065 500.161C308.792 494.427 309.076 487.885 309.222 482.096C312.959 482.128 317.667 481.749 321.485 481.534Z" fill="#1E536E"/>
<path d="M321.485 481.534C321.576 482.434 321.486 483.602 321.449 484.534C317.557 484.78 313.398 485.141 309.518 485.059C309.511 488.387 309.651 497.367 309.065 500.161C308.792 494.427 309.076 487.885 309.222 482.096C312.959 482.128 317.667 481.749 321.485 481.534Z" fill="#1B3747"/>
<path d="M94.8498 138.674C97.3423 138.504 99.2514 139.097 100.242 141.529C105.131 153.525 110.335 165.168 115.837 176.866L112.033 179.251L107.26 182.589C105.415 177.188 103.484 171.816 101.467 166.477C98.5006 158.823 92.3847 146.659 94.8498 138.674Z" fill="#F4B788"/>
<path d="M249.289 872.303L249.645 872.18C254.745 870.39 275.66 860.022 279.137 860.383C281.389 867.4 263.586 871.851 258.731 873.951C256.006 873.207 252.906 873.335 249.289 872.303Z" fill="#CAB292"/>
<path d="M236.826 218.413L238.557 218.534L238.892 219.152C237.387 223.231 221.877 227.268 217.601 228.706C206.486 232.443 196.236 237.786 186.024 243.396L185.286 243.563L184.672 243.073L185.007 242.05C195.756 236.09 202.022 232.536 213.533 227.798C219.951 225.156 230.745 221.336 236.53 218.558L236.826 218.413Z" fill="#261E17"/>
<path d="M403.925 842.481C404.92 842.742 411.065 845.851 412.551 846.577C404.609 847.243 400.491 848.595 394.278 853.356C392.746 852.548 388.458 848.905 386.892 847.636C392.488 844.225 397.611 843.559 403.925 842.481Z" fill="#EBDBC4"/>
<path d="M323.698 853.146C337.029 859.94 353.517 863.515 367.327 869.801C370.59 871.289 375.242 871.842 378.5 873.549C379.017 873.823 379.051 875.366 379.144 875.969C371.729 874.029 360.873 868.865 353.23 866.195C343.504 862.793 333.975 859.817 324.152 856.73C323.418 855.621 323.701 854.703 323.698 853.146Z" fill="#BC3601"/>
<path d="M205.33 845.572C213.889 845.668 218.898 845.152 226.861 848.914C225.078 850.704 223.415 852.557 221.718 854.42C213.359 849.677 209.768 849.247 200.249 849.225L205.33 845.572Z" fill="#EBDBC4"/>
<path d="M219.696 829.507C227.974 831.063 232.742 831.963 240.331 835.492L235.787 839.514C235.257 839.45 231.301 837.651 230.543 837.281C225.013 834.57 221.353 834.926 215.38 835.017L219.696 829.507Z" fill="#EBDBC4"/>
<path d="M212.84 838.263C220.764 838.071 226.113 838.455 233.366 841.852L228.898 846.577C221.008 842.801 217.052 842.208 208.7 842.482L212.84 838.263Z" fill="#EBDBC4"/>
<path d="M224.109 823.467C233.626 825.434 238.906 826.503 248.696 827.306L244.004 831.698C243.462 832.159 242.86 832.734 242.815 832.702C238.721 830.114 224.329 827.635 221.248 827.388L224.109 823.467Z" fill="#CAB292"/>
<path d="M385.004 829.1C388.072 828.908 390.26 831.698 392.836 833.971C385.691 834.405 382.158 834.547 375.807 838.099L374.918 838.491C373.143 837.88 370.648 835.784 369.04 834.565C374.471 832.223 379.339 830.73 385.004 829.1Z" fill="#EBDBC4"/>
<path d="M392.846 837.039C396.451 836.629 397.578 838.172 400.553 840.427C394.03 840.445 390.056 841.189 385.024 845.225L384.407 845.463C382.599 844.755 379.244 841.993 377.552 840.696C383.295 837.464 386.428 837.432 392.846 837.039Z" fill="#EBDBC4"/>
<path d="M270.056 275.707C277.511 275.813 277.845 283.859 272.658 287.82C264.267 287.76 265.2 278.79 270.056 275.707Z" fill="#140B04"/>
<path d="M270.038 278.237C271.487 278.363 271.664 278.395 272.825 279.262C274.469 281.866 273.539 283.944 271.543 286.056C270.647 285.855 270.519 285.749 269.697 285.383C267.639 282.901 268.322 280.716 270.038 278.237Z" fill="#4E5D36"/>
<path d="M380.318 824.202H381.535C382.763 825.096 383.396 825.206 383.714 826.416C379.403 828.379 373.154 828.406 368.976 830.867L366.7 832.205L365.742 831.913L359.712 827.397C366.973 826.635 373.187 825.53 380.318 824.202Z" fill="#CAB292"/>
<path d="M263.197 482.196C270.827 481.717 271.903 485.766 267.294 491.272C262.309 493.203 258.616 486.766 263.197 482.196Z" fill="#140B04"/>
<path d="M264.781 482.694C268.953 483.954 268.019 486.784 266.287 489.743C261.521 488.994 262.432 485.597 264.781 482.694Z" fill="#4E5D36"/>
<path d="M278.414 854.607L278.869 854.712L279.297 855.502C279.246 855.644 279.209 855.794 279.145 855.927C277.873 858.657 254.588 867.368 249.914 869.486L249.384 869.267C249.701 868.139 249.87 867.56 250.996 866.961C259.752 862.3 269.961 859.839 278.414 854.607Z" fill="#BC3601"/>
<path d="M416.409 561.438L416.821 561.781C416.547 563.205 414.723 564.908 413.662 566.104L413.55 566.04L413.397 565.447C414.389 563.488 414.922 563.022 416.409 561.438Z" fill="#CAB292"/>
<path d="M257.535 194.207L256.44 205.444L256.44 215.184L257.535 220.967L261.893 230.402L265.566 238.315C265.566 238.315 271.849 250.123 271.17 252.744C269.066 250.267 265.835 242.7 261.893 241.872C258.16 241.086 239.938 247.694 238.081 246.146C238.013 245.793 237.985 245.193 238.085 244.867C241.316 234.261 249.235 200.272 257.535 194.207Z" fill="#49250A"/>
<path d="M269.839 92.2344C285.221 96.4254 304.42 73.0443 315.806 64.6848C314.752 67.197 312.326 72.6822 310.788 74.9157C308.869 78.4205 306.629 81.2306 303.945 84.1653C303.69 84.443 302.358 85.7873 302.584 86.0771C312.643 86.6928 323.963 79.8689 329.138 71.4431C329.853 70.277 330.546 69.0832 331.303 67.9448C331.552 69.7451 331.86 71.0825 332.314 72.8152C335.026 81.4491 339.99 88.2431 348.162 92.4795C349.033 92.9277 349.92 93.3491 350.818 93.7434C351.762 100.154 353.227 106.414 353.708 112.896C354.741 126.817 353.177 141.043 351.111 154.803C350.153 161.197 349.206 167.774 346.87 173.838C345.043 178.582 342.065 182.936 339.045 186.998C335.205 192.162 325.153 203.795 319.936 206.889C316.744 208.781 313.259 209.761 309.608 210.296C300.298 211.661 288.644 210.956 280.9 205.195C278.333 203.286 275.989 201.036 273.528 198.989C259.553 187.368 253.9 179.861 250.616 161.868C249.592 156.257 248.983 149.883 246.263 144.792C246.332 148.225 246.509 151.577 246.937 154.986C247.027 155.708 247.133 156.524 247.175 157.243C243.805 157.283 241.081 156.522 238.592 154.063C233.362 148.638 231.503 139.899 231.205 132.607C231.076 129.45 231.675 124.909 233.757 122.383C234.559 121.409 236.07 121.622 236.795 122.643C240.641 128.057 243.039 133.864 248.202 138.272C246.111 127.45 248.235 112.007 248.937 100.875C248.987 100.087 250.85 96.5783 251.336 95.5288C252.292 93.4834 253.065 91.3572 253.645 89.1751C253.808 88.4742 253.961 87.4261 254.089 86.6937C257.363 86.8913 260.733 86.8451 263.922 85.986C270.87 84.1151 277.102 80.3326 281.998 75.0642C281.034 77.6013 278.742 81.921 277.165 84.0395C276.022 85.7554 274.736 87.3721 273.321 88.8724C272.862 89.3607 269.908 92.0296 269.839 92.2344Z" fill="#F4B788"/>
<path d="M269.839 92.2344C285.221 96.4254 304.42 73.0443 315.806 64.6848C314.752 67.197 312.326 72.6822 310.788 74.9157L310.422 74.8632C308.629 76.2336 306.747 78.1791 304.827 79.6648C296.447 86.1482 284.828 95.3679 273.538 93.9273C272.085 93.7418 270.821 93.3179 269.839 92.2344Z" fill="#E89768"/>
<path d="M302.584 86.0771C312.643 86.6928 323.963 79.8689 329.138 71.4431C329.853 70.277 330.546 69.0832 331.303 67.9448C331.552 69.7451 331.86 71.0825 332.314 72.8152C330.725 74.5035 329.57 76.6825 327.797 78.4843C322.845 83.5196 316.104 87.3171 308.947 87.7241C306.629 87.8353 304.472 87.4573 302.584 86.0771Z" fill="#E89768"/>
<path d="M281.998 75.064C281.034 77.6011 278.742 81.9208 277.165 84.0394C276.461 83.8838 274.311 85.2566 273.427 85.6276C272.144 86.1663 270.894 86.8354 269.546 87.2422C266.032 88.68 257.422 89.8734 253.645 89.1749C253.807 88.474 253.961 87.4259 254.089 86.6935C257.363 86.8911 260.733 86.8449 263.922 85.9858C270.87 84.1149 277.101 80.3324 281.998 75.064Z" fill="#E89768"/>
<path d="M311.407 113.825C311.118 113.555 311.009 113.351 310.921 112.968C309.621 107.344 315.452 104.911 319.974 104.054C326.786 102.763 335.46 102.795 341.537 106.655C345.422 109.122 346.778 112.668 347.616 116.985C344.245 114.43 341.124 112.937 337.038 111.994C335.208 112.651 333.54 112.664 331.685 113.111C328.889 113.784 326.311 114.872 323.717 116.071L323.706 116.297L323.917 116.428C320.304 117.206 318.925 117.505 316.255 120.109C315.778 119.934 315.199 120.285 314.696 120.494C312.519 121.399 310.344 123.89 309.643 126.191C308.158 131.071 311.491 139.06 313.652 143.549C313.802 143.86 313.911 144.038 314.144 144.284L314.367 144.272L314.405 143.789C315.09 143.689 316.011 145.061 316.405 145.598C318.902 149.003 317.977 153.05 314.765 155.489C313.745 158.453 310.643 160.483 307.977 161.897C305.283 163.327 301.916 163.535 299.021 162.619C296.604 161.854 292.487 158.997 291.775 156.435C288.681 155.866 285.708 154.12 285.844 150.493C285.927 148.275 287.621 146.631 289.189 145.254C288.483 147.778 287.188 150.585 289.07 152.859C291.365 151.188 295.266 151.84 297.881 152.473C300.615 153.147 301.929 154.351 304.699 152.895C310.354 149.923 309.814 147.422 308.152 141.907C306.412 136.134 306.25 129.629 306.846 123.637C307.126 120.809 308.489 118.203 310.102 115.913C310.428 115.448 311.246 114.323 311.407 113.825Z" fill="#E89768"/>
<path d="M311.407 113.825C311.118 113.555 311.009 113.351 310.921 112.968C309.621 107.344 315.452 104.911 319.974 104.054C326.786 102.763 335.46 102.795 341.537 106.655C345.422 109.122 346.779 112.668 347.616 116.985C344.245 114.43 341.124 112.937 337.038 111.994C329.38 110.696 322.71 111.047 315.135 112.789C314.389 112.961 311.87 113.498 311.407 113.825Z" fill="#38271A"/>
<path d="M314.367 144.272L314.405 143.789C315.09 143.689 316.011 145.061 316.405 145.598C318.902 149.003 317.977 153.05 314.765 155.489C313.745 158.453 310.643 160.483 307.977 161.897C305.283 163.327 301.916 163.535 299.021 162.619C296.604 161.854 292.487 158.997 291.775 156.435C288.681 155.866 285.708 154.12 285.844 150.493C285.927 148.275 287.621 146.631 289.189 145.254C288.483 147.778 287.188 150.585 289.07 152.859C291.096 154.453 293.171 154.058 295.429 154.905C298.566 156.081 300.953 158.767 304.562 158.08C306.549 157.702 307.978 156.049 309.677 155.082C311.252 154.199 313.83 153.848 314.806 152.201C316.134 149.966 314.873 146.635 314.367 144.272Z" fill="#291E16"/>
<path d="M291.776 156.435C297.6 157.228 301.394 163.074 307.536 159.327C308.588 158.685 309.664 157.769 310.699 157.193C311.881 156.536 313.491 155.994 314.765 155.489C313.745 158.453 310.643 160.483 307.977 161.897C305.283 163.327 301.916 163.535 299.021 162.619C296.604 161.854 292.487 158.997 291.776 156.435Z" fill="#E89768"/>
<path d="M280.492 171.728C278.749 170.227 277.214 168.409 275.489 166.936C274.577 166.156 271.705 165.961 272.476 164.052C272.619 163.698 273.258 163.185 273.642 163.26C275.138 163.549 276.574 164.259 278.065 164.614C280.869 165.39 283.856 165.572 286.706 165.965C299.354 167.71 311.761 166.807 324.357 165.13C325.753 164.944 329.005 162.792 329.411 165.194C329.448 165.41 329.313 166.005 329.061 166.105C326.528 167.239 324.905 168.73 323.018 170.654C322.429 173.518 316.432 178.821 314.115 180.247C304.973 185.875 291.713 184.91 284.302 176.742C283.141 175.462 280.83 173.478 280.492 171.728Z" fill="#291E16"/>
<path d="M280.492 171.728C294.735 182.785 309.272 181.651 323.018 170.654C322.429 173.518 316.432 178.821 314.115 180.247C304.973 185.875 291.713 184.91 284.302 176.742C283.141 175.462 280.83 173.478 280.492 171.728Z" fill="#E89768"/>
<path d="M280.604 167.733C289.131 169.15 297.415 169.951 306.075 169.596C311.118 169.388 316.256 168.787 321.269 168.223C319.928 169.65 319.012 170.311 317.396 171.444C311.146 175.462 305.501 177.262 297.996 176.477C292.206 175.871 284.241 172.359 280.604 167.733Z" fill="white"/>
<path d="M255.114 116.065C255.806 113.082 256.734 110.155 258.986 107.924C264.96 102.006 275.149 102.344 282.792 103.796C287.341 104.66 293.145 107.707 290.405 113.269C290.564 113.833 291.498 115.15 291.807 115.813C293.231 118.87 293.068 121.473 292.712 124.684C290.438 122.538 288.758 119.645 286.096 117.841C282.395 115.333 275.444 111.349 271.141 111.018C265.111 111.316 260.117 112.705 255.114 116.065Z" fill="#38271A"/>
<path d="M271.141 111.018C275.101 110.531 287.026 111.561 290.405 113.269C290.564 113.832 291.498 115.15 291.807 115.812C293.231 118.87 293.069 121.473 292.712 124.684C290.438 122.538 288.758 119.645 286.097 117.841C282.395 115.332 275.444 111.348 271.141 111.018Z" fill="#E89768"/>
<path d="M264.384 122.958C263.645 123.397 261.649 124.59 260.868 124.177C260.858 124.047 260.834 123.88 260.884 123.776C261.903 121.69 265.095 119.525 266.934 118.565C271.154 116.363 276.449 115.483 280.997 116.884C284.939 118.098 287.219 121.203 289.032 124.706C287.425 124.038 286.516 123.385 285.066 122.413C285.49 123.684 286.039 124.939 286.556 126.178C285.35 126.232 284.655 126.303 283.519 126.473C282.768 126.586 279.953 127.17 279.43 127.119C277.339 128.588 274.913 128.381 272.789 127.118C269.722 127.392 266.101 125.506 264.384 122.958Z" fill="#291E16"/>
<path d="M278.754 119.265C280.758 119.774 283.706 120.731 285.066 122.413C285.49 123.684 286.039 124.939 286.556 126.178C285.35 126.232 284.655 126.303 283.519 126.473C282.768 126.586 279.953 127.17 279.43 127.119C281.302 124.994 281.488 122.647 279.718 120.482C279.372 120.059 278.972 119.774 278.754 119.265Z" fill="white"/>
<path d="M275.75 120.306C276.33 120.061 277 120.326 277.256 120.902C277.512 121.478 277.259 122.153 276.688 122.419C276.309 122.595 275.865 122.554 275.526 122.31C275.187 122.066 275.005 121.658 275.052 121.242C275.098 120.827 275.365 120.469 275.75 120.306Z" fill="white"/>
<path d="M273.334 119.111L273.395 119.308C270.958 121.641 270.355 124.476 272.789 127.118C269.722 127.392 266.101 125.506 264.384 122.958C267.85 120.469 269.21 119.677 273.334 119.111Z" fill="white"/>
<path d="M323.917 116.428C329.185 115.972 333.484 116.324 337.84 119.814C339.611 121.234 340.676 122.984 342.171 124.546C340.111 124.117 339.561 123.721 337.839 122.565C337.43 123.994 337.041 124.489 335.666 125.261C333.742 126.342 329.688 127.041 327.541 126.981C325.394 128.523 323.174 128.181 321.095 126.769C319.611 126.601 318.945 126.423 317.34 126.355C317.896 123.356 319.197 122.672 320.723 120.479L320.89 120.238C318.231 121.469 316.181 123.656 314.221 124.368L314.047 124.253C313.951 123.012 315.539 121.044 316.255 120.11C318.925 117.505 320.304 117.207 323.917 116.428Z" fill="#291E16"/>
<path d="M321.385 119.984C321.267 120.339 321.213 120.377 321.013 120.663C319.483 122.864 319.658 124.484 321.095 126.769C319.611 126.601 318.944 126.423 317.34 126.355C317.896 123.356 319.197 122.672 320.723 120.479L320.89 120.238L321.385 119.984Z" fill="white"/>
<path d="M324.228 120.912C324.612 120.803 325.025 120.909 325.307 121.19C325.59 121.471 325.7 121.883 325.594 122.268C325.488 122.652 325.183 122.949 324.795 123.045C324.211 123.19 323.618 122.84 323.463 122.257C323.31 121.675 323.649 121.077 324.228 120.912Z" fill="white"/>
<path d="M331.286 119.395C333.801 120.127 335.73 120.947 337.839 122.565C337.43 123.994 337.041 124.489 335.666 125.261C333.742 126.342 329.688 127.041 327.541 126.981C329.445 124.791 329.365 122.18 327.376 120.091C328.191 119.797 329.796 119.9 331.286 119.395Z" fill="white"/>
<path d="M325.233 119.14C327.389 118.99 329.172 118.877 331.286 119.394C329.796 119.9 328.191 119.797 327.376 120.091C326.707 119.695 325.957 119.429 325.233 119.14Z" fill="white"/>
<path d="M234.892 128.015C235.196 127.994 235.897 127.951 236.199 128.154C238.387 129.622 241.973 132.598 243.067 134.962C243.548 136.003 241.618 136.391 241.041 137.932C239.732 141.427 240.99 145.388 242.118 148.6C241.883 148.501 241.661 148.375 241.455 148.226C237.064 145.058 237.167 138.548 240.23 134.483C239.358 133.597 234.484 129.058 234.454 128.353L234.892 128.015Z" fill="#291E16"/>
<path d="M279.975 149.565C280.053 151.139 274.101 155.762 272.689 156.843C270.505 158.515 268.159 160.124 267.033 162.752C266.042 165.065 267.056 167.155 267.947 169.293C267.573 169.032 267.226 168.768 266.863 168.492C265.27 167.219 264.658 166.129 264.592 164.105C264.39 159.349 269.41 157.223 272.693 154.791C274.879 153.171 277.596 150.791 279.975 149.565Z" fill="#E89768"/>
<path d="M300.979 186.662C302.262 186.52 309.407 186.197 309.666 187.635C308.943 188.631 304.225 189.39 302.911 189.487C301.239 189.649 295.175 189.224 294.194 187.96L294.261 187.687C295.516 186.806 299.345 186.763 300.979 186.662Z" fill="#E89768"/>
<path d="M324.652 152.26C325.079 152.362 325.809 152.635 326.202 152.868C332.974 156.884 339.005 160.638 334.675 169.119C334.524 169.314 334.329 169.501 334.155 169.68L333.9 169.655C333.758 169.149 334.285 166.41 334.366 165.707C334.938 160.763 332.068 158.889 328.657 156.205C327.449 155.254 325.727 153.599 324.73 152.358L324.652 152.26Z" fill="#E89768"/>
<path d="M317.386 129.188C318.331 129.43 319.787 129.995 320.81 130.303C323.491 131.122 326.267 131.598 329.068 131.72C330.11 131.771 334.484 131.229 334.919 131.771C334.749 132.196 334.457 132.286 334.047 132.517C329.023 134.542 320.632 134.104 317.386 129.188Z" fill="#E89768"/>
<path d="M284.415 129.834L284.702 129.822L284.761 130.016C284.04 130.922 282.315 131.717 281.272 132.209C277.965 133.769 273.151 133.906 269.718 132.623C269.109 132.307 268.404 132.044 268.195 131.411C268.565 131.098 271.162 131.284 271.843 131.334C276.246 131.655 280.128 130.766 284.415 129.834Z" fill="#E89768"/>
<path d="M226.456 60.0184C235.685 59.8482 243.306 53.4925 250.374 48.2925C252.84 46.4877 255.366 44.7674 257.949 43.1346C280.365 29.0052 306.417 26.7008 330.098 39.199C338.427 43.5942 343.623 47.1782 346.647 56.5557C353.602 57.4609 359.622 59.8879 364.674 64.9387C369.827 70.0898 373.054 77.8208 373.941 84.9903C374.152 86.6871 374.129 88.4913 374.129 90.2087C374.114 96.4072 372.657 101.079 370.639 106.781C370.218 102.636 369.809 101.202 368.56 97.2145C367.59 108.97 363.254 118.615 357.514 128.753C357.075 129.53 356.656 130.399 356.251 131.2C356.677 128.247 356.457 125.241 356.572 122.297C356.961 112.421 355.496 104.11 353.301 94.5257C355.783 95.1933 356.274 95.0695 358.758 94.4705C355.712 91.3661 353.516 88.892 351.102 85.2168C350.262 83.9359 348.084 79.5432 347.364 78.8311C347.883 82.3366 348.592 85.8114 349.489 89.2399L349.268 89.2932L348.881 89.0217C341.635 85.7229 336.085 77.1431 333.959 69.731C333.332 67.545 333.115 65.199 332.707 62.9639C331.011 64.8791 329.791 67.2756 328.144 69.2891C322.62 76.0415 315.171 81.5736 306.691 83.8928C312.032 76.3923 316.041 70.1741 318.181 60.9467C316.731 61.9179 315.349 63.1188 313.892 64.0721C302.706 71.3939 293.723 81.9488 281.78 88.0777C280.163 88.9079 277.553 89.4956 275.785 89.8681C276.29 89.0694 276.518 88.7152 277.139 87.9913C283.177 79.0806 284.946 73.3664 286.794 62.9891C286.477 63.5665 286.257 63.903 285.878 64.4426C285.027 66.1049 283.589 67.8193 282.511 69.3366C278.037 75.6305 272.953 79.6876 265.629 82.2128C264.945 82.4484 263.353 82.9115 262.64 82.9227C256.385 84.7312 247.948 83.5967 242.864 79.3775C249.588 79.1452 253.839 76.6494 258.436 71.9741C250.854 75.4412 246.522 76.9406 237.977 77.3004L239.504 79.2779C235.466 84.3299 232.477 90.1369 230.711 96.3591C230.292 97.8144 229.967 100.864 229.599 101.811C227.979 94.1103 229.104 88.4046 232.157 81.4299C228.91 83.8176 225.859 87.7079 223.935 91.2412C223.865 90.5565 223.805 89.8709 223.755 89.1844C223.115 79.8622 227.461 72.7101 234.051 66.4592C235.55 65.0378 237.024 63.5055 238.381 61.9472C233.028 64.297 230.618 64.2481 226.456 60.0184Z" fill="#95582A"/>
<path d="M306.747 42.2967C316.847 40.7924 328.101 43.9574 336.299 49.9766C340.297 52.9123 342.475 55.6562 345.192 59.6786C342.929 60.4951 338.831 62.1345 336.902 63.4759C337.834 71.6681 341.758 78.2799 346.029 85.1511C346.647 86.146 348.62 88.3154 348.881 89.0216C341.635 85.7228 336.085 77.143 333.959 69.7309C333.332 67.545 333.115 65.1989 332.707 62.9638C331.011 64.879 329.791 67.2755 328.144 69.289C322.62 76.0414 315.171 81.5735 306.691 83.8927C312.032 76.3923 316.041 70.174 318.181 60.9466C316.731 61.9178 315.349 63.1187 313.892 64.072C302.706 71.3938 293.723 81.9488 281.78 88.0776C280.163 88.9079 277.553 89.4956 275.785 89.868C276.29 89.0693 276.518 88.7152 277.139 87.9913C279.192 87.6488 287.274 78.9603 288.896 76.7802C291.065 73.8649 293.374 70.3349 295.716 67.4938C300.152 62.0739 305.929 57.91 312.47 55.4161C317.076 53.6712 321.028 52.8012 325.923 53.2552C321.331 46.873 313.88 44.3788 306.747 42.2967Z" fill="#6A411D"/>
<path d="M361.079 70.6248C365.701 74.9862 369.151 78.9958 371.914 84.8032C372.548 86.1361 373.593 89.2851 374.129 90.2088C374.114 96.4073 372.657 101.079 370.64 106.781C370.218 102.636 369.809 101.202 368.56 97.2145C367.59 108.97 363.254 118.615 357.514 128.753C357.075 129.53 356.656 130.399 356.251 131.2C356.677 128.247 356.457 125.241 356.572 122.297C356.961 112.421 355.496 104.11 353.301 94.5257C355.783 95.1934 356.274 95.0696 358.758 94.4705C355.712 91.3662 353.516 88.892 351.102 85.2168C350.262 83.9359 348.084 79.5432 347.364 78.8311C347.032 78.0928 346.442 72.7219 346.273 71.4853C348.315 74.0875 350.468 76.6001 352.728 79.0163C357.087 83.6523 360.104 86.3509 363.704 91.7327C364.092 84.5965 363.204 77.4481 361.079 70.6248Z" fill="#6A411D"/>
<path d="M262.64 82.9227C266.553 80.0187 270.754 77.8811 274.865 74.5266C276.791 72.982 278.649 71.3532 280.432 69.6448C281.477 68.6309 284.938 65.0277 285.878 64.4426C285.027 66.1049 283.589 67.8193 282.511 69.3366C278.037 75.6305 272.953 79.6876 265.629 82.2128C264.945 82.4484 263.353 82.9115 262.64 82.9227Z" fill="#6A411D"/>
<path d="M273.688 50.2554L273.898 50.3255C273.472 51.958 265.791 57.9716 263.932 59.0603C259.534 61.6366 253.687 63.3069 248.63 62.0348C248.202 61.882 248.185 61.8541 247.803 61.5954L247.765 61.3521C248.487 60.8993 250.285 60.2663 251.197 59.9734C259.005 57.4675 266.05 53.091 273.688 50.2554Z" fill="#6A411D"/>
<path d="M295.731 50.3408L295.643 50.5449C290.652 52.7853 287.237 55.5492 282.695 58.4219C277.819 61.5062 270.622 64.0321 264.794 63.6961L264.793 63.5213C265.199 63.1608 270.048 61.0893 270.849 60.752C276.909 58.2028 282.569 54.5748 288.683 52.2127C290.952 51.3181 293.317 50.6899 295.731 50.3408Z" fill="#6A411D"/>
<path d="M239.504 79.2778C242.984 83.6347 246.313 85.165 251.689 86.3236C249.389 94.738 244.764 101.73 239.563 108.552C242.303 106.952 243.669 106.104 245.971 103.884C245.694 105.502 245.497 108.396 245.379 110.067C244.965 115.914 244.309 124.603 245.098 130.349C243.172 127.697 241.529 124.359 239.483 121.629C238.406 120.192 236.335 118.982 235.869 118.288C233.142 114.223 230.283 106.455 229.599 101.811C229.967 100.864 230.292 97.8144 230.711 96.3591C232.477 90.1369 235.466 84.3298 239.504 79.2778Z" fill="#6A411D"/>
<path d="M363.754 123.099C365.876 124.586 364.687 135.585 364.167 138.26C362.704 145.775 360.996 152.761 354.494 157.442C354 157.758 354.044 157.843 353.558 157.843C353.418 157.515 354.118 152.73 354.199 152.058C354.515 149.542 354.807 147.023 355.074 144.501C355.201 143.25 355.678 136.713 355.992 136.262C358.576 132.554 361.647 126.914 363.754 123.099Z" fill="#E89768"/>
<path d="M332.794 266.34C334.909 262.779 337.324 256.94 340.553 254.312C342.838 252.452 345.617 250.318 348.678 250.033C349.254 249.979 356.309 252.159 356.943 252.786C357.577 253.413 361.263 255.539 362.624 256.758C363.475 257.52 365.957 260.137 366.486 260.58L362.186 260.716C362.186 260.716 359.965 259.368 358.423 258.768C355.977 257.817 354.454 257.215 351.838 257.426C349.77 257.593 348.642 258.121 346.766 259.008C345.842 259.444 344.482 260.286 344.482 260.286L343.441 261.395C343.031 261.506 342.588 262.355 342.133 262.547L337.332 264.626C335.449 265.422 334.491 265.391 332.794 266.34Z" fill="#2F231A"/>
</svg>
