<svg preserveAspectRatio="none" width="100%" height="100%" overflow="visible" style="display: block;" viewBox="0 0 56 56" fill="none" xmlns="http://www.w3.org/2000/svg">
<g id="gcloud">
<path id="Vector" d="M35.2625 17.6312H35.4375L35.35 17.5437L41.475 11.4187V11.2875C36.3125 6.7375 29.1813 5.1625 22.575 7.13125C15.9687 9.1 10.8938 14.35 9.05625 21C9.14375 20.9562 9.275 20.9125 9.40625 20.9125C11.6813 19.425 14.3938 18.55 17.2375 18.55C18.2 18.55 19.1188 18.6375 20.0375 18.8125C20.0813 18.7687 20.125 18.7688 20.1688 18.7688C24.1063 14.4375 30.7563 13.9125 35.3063 17.6312H35.2625Z" fill="var(--fill-0, #EA4535)"/>
<path id="Vector_2" d="M47.2938 20.9125C46.2875 17.1938 44.1875 13.825 41.2563 11.2438L35 17.4563C37.625 19.6 39.1563 22.8375 39.0688 26.2063V27.3C46.4625 27.3 46.4625 38.325 39.0688 38.325H27.9563V47.075H27.9125L27.9563 47.1625H39.0688C45.4563 47.2063 51.1 43.0938 52.9813 37.0563C54.8625 31.0188 52.5438 24.4563 47.2938 20.9125Z" fill="var(--fill-0, #557EBF)"/>
<path id="Vector_3" d="M17.0625 47.2062H28.5687V38.3687H17.0625C16.2312 38.3687 15.4437 38.1937 14.7 37.8875L8.05 44.275V44.3625C10.675 46.2437 13.825 47.25 17.1062 47.25L17.0625 47.2062Z" fill="var(--fill-0, #36A852)"/>
<path id="Vector_4" d="M17.5875 18.3313C11.0688 18.375 5.29375 22.4 3.19375 28.3062C1.09375 34.2562 3.19375 40.775 8.35625 44.625L15.1813 38.1062C11.4187 36.4875 10.5438 31.7625 13.4313 29.0063C16.3188 26.2063 21.2188 27.0812 22.925 30.6687L29.75 24.15C26.8625 20.5188 22.3562 18.375 17.5875 18.4187V18.3313Z" fill="var(--fill-0, #F9BC15)"/>
</g>
</svg>
