<svg preserveAspectRatio="none" width="100%" height="100%" overflow="visible" style="display: block;" viewBox="0 0 56 56" fill="none" xmlns="http://www.w3.org/2000/svg">
<g id="git" clip-path="url(#clip0_125_53554)">
<path id="Vector" d="M54.5724 25.5404L30.4592 1.428C29.0714 0.039375 26.8192 0.039375 25.4293 1.428L20.4225 6.43562L26.7741 12.7873C28.2507 12.2889 29.9429 12.6232 31.1194 13.7996C32.3019 14.9835 32.6336 16.6902 32.123 18.1716L38.2445 24.2935C39.7254 23.7829 41.4348 24.1128 42.6169 25.2976C44.2706 26.95 44.2706 29.6288 42.6169 31.2821C42.2239 31.6753 41.7573 31.9872 41.2437 32.2C40.7301 32.4128 40.1796 32.5224 39.6237 32.5224C39.0678 32.5224 38.5173 32.4128 38.0038 32.2C37.4902 31.9872 37.0236 31.6753 36.6306 31.2821C36.0401 30.6913 35.6376 29.939 35.4737 29.12C35.3099 28.3009 35.3919 27.4517 35.7096 26.6792L30.0011 20.9707L30.0003 35.9949C30.4144 36.1988 30.7926 36.469 31.1198 36.7946C32.7727 38.4471 32.7727 41.125 31.1198 42.7809C29.4665 44.4334 26.7868 44.4334 25.1353 42.7809C23.4824 41.1254 23.4824 38.4475 25.1353 36.7946C25.5313 36.398 26.0023 36.0842 26.5208 35.8715V20.7082C26.0018 20.4961 25.5307 20.182 25.1353 19.7846C23.8831 18.5334 23.5817 16.6959 24.2239 15.1576L17.962 8.89569L1.428 25.4288C0.760951 26.0961 0.386224 27.0009 0.386224 27.9444C0.386224 28.8879 0.760951 29.7928 1.428 30.4601L25.5417 54.5724C26.9303 55.9611 29.1817 55.9611 30.5725 54.5724L54.5729 30.5721C55.2398 29.9046 55.6144 28.9997 55.6143 28.0561C55.6142 27.1126 55.2395 26.2077 54.5724 25.5404Z" fill="var(--fill-0, #F34F29)"/>
</g>
<defs>
<clipPath id="clip0_125_53554">
<rect width="56" height="56" fill="white"/>
</clipPath>
</defs>
</svg>
