<svg preserveAspectRatio="none" width="100%" height="100%" overflow="visible" style="display: block;" viewBox="0 0 52 51" fill="none" xmlns="http://www.w3.org/2000/svg">
<g id="Group">
<path id="Vector" fill-rule="evenodd" clip-rule="evenodd" d="M25.948 0C11.6192 0 0 11.6166 0 25.948C0 37.4129 7.43488 47.1389 17.7448 50.5703C19.0412 50.811 19.5173 50.0075 19.5173 49.3221C19.5173 48.7034 19.4932 46.6593 19.482 44.4911C12.2633 46.0608 10.74 41.4296 10.74 41.4296C9.55969 38.4304 7.85899 37.6329 7.85899 37.6329C5.5043 36.0224 8.03645 36.0559 8.03645 36.0559C10.6416 36.2386 12.0141 38.7299 12.0141 38.7299C14.3284 42.6959 18.0843 41.5495 19.565 40.8869C19.7979 39.2098 20.4703 38.0647 21.2124 37.4168C15.449 36.7615 9.38996 34.5361 9.38996 24.5936C9.38996 21.7607 10.404 19.4459 12.0639 17.6284C11.7941 16.9752 10.9059 14.3361 12.3148 10.762C12.3148 10.762 14.4934 10.0646 19.452 13.4217C21.5222 12.8464 23.7424 12.5572 25.948 12.5473C28.1523 12.5572 30.3738 12.8455 32.4479 13.4209C37.4004 10.0637 39.5764 10.7611 39.5764 10.7611C40.9888 14.3348 40.1006 16.9744 39.8312 17.6275C41.4949 19.4451 42.5017 21.7598 42.5017 24.5927C42.5017 34.5589 36.4315 36.7529 30.6535 37.3957C31.5846 38.2009 32.4139 39.7805 32.4139 42.2009C32.4139 45.6728 32.3838 48.467 32.3838 49.3217C32.3838 50.0122 32.8513 50.8213 34.1662 50.5665C44.4701 47.1316 51.8964 37.4086 51.8964 25.948C51.8959 11.6175 40.278 0 25.948 0Z" fill="#ED6A5A"/>
<path id="Vector_2" d="M9.82781 37.2552C9.77066 37.3841 9.56785 37.4228 9.38309 37.3347C9.19402 37.2505 9.08875 37.0747 9.14977 36.9454C9.20563 36.8122 9.40887 36.7757 9.59664 36.8646C9.7857 36.9493 9.89313 37.1267 9.82738 37.2556L9.82781 37.2552ZM10.8788 38.4278C10.7555 38.5425 10.5136 38.4893 10.3495 38.3075C10.1793 38.127 10.1475 37.8851 10.2734 37.7687C10.4014 37.6544 10.6361 37.7085 10.8062 37.889C10.9755 38.072 11.009 38.3118 10.8793 38.4282L10.8788 38.4278ZM11.9023 39.9218C11.7434 40.0327 11.483 39.9291 11.3223 39.6984C11.1633 39.4672 11.1633 39.1901 11.3266 39.0797C11.4868 38.9688 11.7434 39.0689 11.9066 39.2975C12.0648 39.5317 12.0648 39.8093 11.9023 39.9218ZM13.3036 41.366C13.1618 41.5229 12.8584 41.4807 12.6367 41.2672C12.4102 41.0579 12.3471 40.7602 12.4893 40.6038C12.6337 40.4465 12.9383 40.4903 13.1613 40.7026C13.3878 40.9114 13.4561 41.2096 13.3044 41.3656L13.3036 41.366ZM15.2372 42.2043C15.174 42.4076 14.8827 42.5 14.5883 42.4132C14.2948 42.3242 14.1028 42.0866 14.1629 41.8812C14.2231 41.6763 14.5166 41.5804 14.8126 41.6728C15.1061 41.7613 15.2982 41.9977 15.2372 42.2043ZM17.3611 42.3595C17.3684 42.5734 17.1192 42.7505 16.8111 42.7548C16.5004 42.7621 16.2491 42.5885 16.2461 42.3779C16.2461 42.1618 16.4901 41.9869 16.8004 41.9809C17.1084 41.9753 17.3615 42.1472 17.3615 42.359L17.3611 42.3595ZM19.3368 42.0234C19.3738 42.2318 19.1593 42.4463 18.853 42.5034C18.5522 42.5593 18.2729 42.4295 18.2342 42.2228C18.1973 42.0088 18.4155 41.7944 18.7163 41.739C19.0231 41.6861 19.2981 41.8116 19.3368 42.0234Z" fill="#ED6A5A"/>
</g>
</svg>
