<svg preserveAspectRatio="none" width="100%" height="100%" overflow="visible" style="display: block;" viewBox="0 0 50 48" fill="none" xmlns="http://www.w3.org/2000/svg">
<g id="Group">
<path id="Vector" fill-rule="evenodd" clip-rule="evenodd" d="M24.5326 0C10.9854 0 0 10.983 0 24.5326C0 35.3722 7.02934 44.5677 16.7769 47.812C18.0026 48.0395 18.4527 47.2798 18.4527 46.6318C18.4527 46.0468 18.4299 44.1143 18.4194 42.0643C11.5944 43.5484 10.1542 39.1698 10.1542 39.1698C9.03825 36.3342 7.43031 35.5802 7.43031 35.5802C5.20406 34.0576 7.59809 34.0893 7.59809 34.0893C10.0612 34.2619 11.3588 36.6173 11.3588 36.6173C13.5468 40.367 17.0978 39.2832 18.4978 38.6567C18.718 37.0711 19.3538 35.9885 20.0553 35.3758C14.6063 34.7563 8.87778 32.6523 8.87778 23.2521C8.87778 20.5737 9.83653 18.3853 11.4059 16.6668C11.1508 16.0493 10.311 13.5541 11.6431 10.1749C11.6431 10.1749 13.7028 9.51559 18.3909 12.6896C20.3483 12.1457 22.4473 11.8723 24.5326 11.8629C26.6167 11.8723 28.717 12.1448 30.678 12.6888C35.3604 9.51478 37.4177 10.1741 37.4177 10.1741C38.753 13.5529 37.9133 16.0485 37.6586 16.666C39.2316 18.3844 40.1834 20.5729 40.1834 23.2513C40.1834 32.6739 34.4443 34.7482 28.9815 35.3559C29.8618 36.1173 30.6459 37.6106 30.6459 39.899C30.6459 43.1815 30.6174 45.8234 30.6174 46.6314C30.6174 47.2843 31.0594 48.0492 32.3026 47.8083C42.0444 44.5608 49.0657 35.3681 49.0657 24.5326C49.0653 10.9838 38.0811 0 24.5326 0Z" fill="var(--fill-0, #ED6A5A)"/>
<path id="Vector_2" d="M9.29175 35.2231C9.23772 35.345 9.04597 35.3815 8.87128 35.2983C8.69253 35.2186 8.593 35.0525 8.65069 34.9302C8.7035 34.8043 8.89566 34.7697 9.07319 34.8538C9.25194 34.9339 9.3535 35.1016 9.29134 35.2235L9.29175 35.2231ZM10.2854 36.3318C10.1688 36.4402 9.94013 36.3898 9.78494 36.218C9.62406 36.0474 9.594 35.8187 9.71303 35.7086C9.83409 35.6005 10.0559 35.6517 10.2168 35.8223C10.3768 35.9954 10.4085 36.2221 10.2858 36.3322L10.2854 36.3318ZM11.2531 37.7443C11.1028 37.8491 10.8566 37.7512 10.7047 37.533C10.5544 37.3145 10.5544 37.0524 10.7088 36.948C10.8603 36.8432 11.1028 36.9379 11.2572 37.154C11.4067 37.3754 11.4067 37.6378 11.2531 37.7443ZM12.5779 39.1097C12.4438 39.258 12.157 39.2182 11.9474 39.0163C11.7333 38.8184 11.6736 38.5369 11.8081 38.389C11.9446 38.2403 12.2326 38.2818 12.4434 38.4824C12.6575 38.6799 12.7221 38.9618 12.5787 39.1093L12.5779 39.1097ZM14.406 39.9023C14.3463 40.0944 14.0709 40.1818 13.7926 40.0997C13.5151 40.0156 13.3335 39.791 13.3904 39.5968C13.4473 39.403 13.7247 39.3124 14.0047 39.3998C14.2821 39.4834 14.4637 39.7069 14.406 39.9023ZM16.4141 40.0489C16.421 40.2513 16.1854 40.4186 15.8941 40.4227C15.6004 40.4296 15.3628 40.2655 15.3599 40.0664C15.3599 39.8621 15.5907 39.6967 15.884 39.691C16.1752 39.6858 16.4145 39.8483 16.4145 40.0485L16.4141 40.0489ZM18.2821 39.7313C18.317 39.9283 18.1143 40.131 17.8246 40.185C17.5402 40.2378 17.2762 40.1152 17.2396 39.9198C17.2047 39.7174 17.4111 39.5147 17.6954 39.4623C17.9855 39.4123 18.2455 39.531 18.2821 39.7313Z" fill="var(--fill-0, #ED6A5A)"/>
</g>
</svg>
