<svg preserveAspectRatio="none" width="100%" height="100%" overflow="visible" style="display: block;" viewBox="0 0 57 57" fill="none" xmlns="http://www.w3.org/2000/svg">
<g id="html">
<path id="Vector" d="M8.47741 50.7104L4.02206 0.739664H52.9779L48.5177 50.7028L28.4702 56.2603L8.47741 50.7104Z" fill="var(--fill-0, #E44D26)"/>
<path id="Vector_2" d="M28.5 52.0125L44.6996 47.5211L48.511 4.82541H28.5V52.0125Z" fill="var(--fill-0, #F16529)"/>
<path id="Vector_3" d="M28.5 23.3589H20.39L19.8298 17.0826H28.5V10.9542H13.1318L13.2788 12.5983L14.7848 29.4877H28.5V23.3589ZM28.5 39.2757L28.4728 39.2832L21.6475 37.4396L21.2116 32.5523H15.0587L15.9173 42.1751L28.4719 45.6601L28.5 45.6525V39.2757Z" fill="var(--fill-0, #EBEBEB)"/>
<path id="Vector_4" d="M28.4786 23.3589V29.4877H36.0253L35.3142 37.4361L28.4786 39.281V45.6574L41.0431 42.1751L41.1353 41.1398L42.5754 25.0047L42.7246 23.3589H41.0734H28.4786ZM28.4786 10.9542V17.0826H43.2826L43.4055 15.7057L43.6852 12.5983L43.8317 10.9542H28.4786Z" fill="var(--fill-0, white)"/>
</g>
</svg>
