<svg preserveAspectRatio="none" width="100%" height="100%" overflow="visible" style="display: block;" viewBox="0 0 55 55" fill="none" xmlns="http://www.w3.org/2000/svg">
<g id="Group 1">
<path id="Vector" d="M1.49012e-08 0H54.768V54.7684H1.49012e-08V0Z" fill="var(--fill-0, #F0DB4F)"/>
<path id="Javascript" d="M50.2858 41.706C49.8846 39.2075 48.2554 37.1088 43.4293 35.1518C41.7528 34.3814 39.8838 33.8297 39.3269 32.5592C39.1291 31.8198 39.1029 31.4033 39.228 30.9558C39.5872 29.5033 41.321 29.0505 42.6952 29.467C43.5803 29.7636 44.4181 30.4457 44.9234 31.5337C47.2868 30.0033 47.2819 30.0134 48.9322 28.9617C48.328 28.025 48.0056 27.5927 47.6101 27.192C46.1886 25.6043 44.2518 24.7866 41.1543 24.8492L39.5408 25.0578C37.9947 25.4485 36.5212 26.2601 35.6571 27.3482C33.0645 30.2899 33.8039 35.4384 36.9587 37.5572C40.0667 39.89 44.6324 40.4207 45.2156 42.602C45.7831 45.2725 43.253 46.137 40.7383 45.8299C38.885 45.4445 37.8543 44.5025 36.7399 42.7897C34.6889 43.9767 34.6889 43.9767 32.5802 45.1894C33.0802 46.2827 33.6057 46.7775 34.4439 47.7247C38.4112 51.7488 48.3389 51.5511 50.1196 45.4602C50.1918 45.2511 50.6713 43.8563 50.2858 41.706ZM29.7736 25.1716H24.6509L24.6299 38.4156C24.6299 41.2322 24.7756 43.8143 24.3176 44.6058C23.5681 46.1624 21.6261 45.9695 20.741 45.6676C19.8402 45.2248 19.3821 44.5953 18.8514 43.7054C18.7058 43.4499 18.5964 43.2522 18.5596 43.2368L14.3946 45.7875C15.0872 47.2089 16.1074 48.4427 17.4143 49.2442C19.3664 50.4158 21.9901 50.775 24.7341 50.145C26.5199 49.6248 28.0608 48.5472 28.8676 46.907C30.0339 44.7567 29.7837 42.154 29.7732 39.2753C29.7994 34.5787 29.7736 29.883 29.7736 25.1716Z" fill="var(--fill-0, #323330)"/>
</g>
</svg>
