<svg preserveAspectRatio="none" width="100%" height="100%" overflow="visible" style="display: block;" viewBox="0 0 56 56" fill="none" xmlns="http://www.w3.org/2000/svg">
<g id="Java">
<path id="Vector" d="M20.8324 42.9275C20.8324 42.9275 18.7469 44.1411 22.3186 44.5506C26.6464 45.045 28.8579 44.9741 33.6258 44.0729C33.6258 44.0729 34.8819 44.8582 36.6327 45.5389C25.9407 50.1196 12.4355 45.2734 20.8324 42.9275ZM19.5252 36.9491C19.5252 36.9491 17.1854 38.6811 20.7602 39.0513C25.3833 39.5286 29.0334 39.5675 35.3526 38.3513C35.3526 38.3513 36.2246 39.2372 37.5979 39.7211C24.6732 43.5011 10.2777 40.0186 19.5252 36.9491Z" fill="var(--fill-0, #0074BD)"/>
<path id="Vector_2" d="M30.5384 26.8061C33.1743 29.8401 29.8471 32.5679 29.8471 32.5679C29.8471 32.5679 36.5361 29.1156 33.4648 24.7905C30.5952 20.7589 28.3955 18.7565 40.3051 11.8492C40.3051 11.8497 21.6103 16.5174 30.5384 26.8061Z" fill="var(--fill-0, #EA2D2E)"/>
<path id="Vector_3" d="M44.6788 47.3502C44.6788 47.3502 46.2228 48.6233 42.9778 49.6072C36.8082 51.4762 17.2939 52.0397 11.8742 49.6821C9.92687 48.8342 13.58 47.6586 14.7293 47.4106C15.9276 47.1511 16.6119 47.1984 16.6119 47.1984C14.4449 45.6728 2.60619 50.1952 10.5993 51.4924C32.396 55.0257 50.3318 49.9012 44.6788 47.3502ZM21.8365 30.7536C21.8365 30.7536 11.9114 33.1113 18.3221 33.9684C21.0293 34.3306 26.4237 34.2475 31.4519 33.8257C35.56 33.4806 39.6826 32.7434 39.6826 32.7434C39.6826 32.7434 38.2353 33.3642 37.1871 34.0791C27.1062 36.7307 7.63656 35.4957 13.2422 32.7849C17.9812 30.4929 21.8365 30.7536 21.8365 30.7536ZM39.6414 40.7054C49.8881 35.3824 45.15 30.2667 41.8429 30.9557C41.0344 31.1242 40.6718 31.2707 40.6718 31.2707C40.6718 31.2707 40.9728 30.7987 41.5468 30.5957C48.0887 28.2966 53.1191 37.3782 39.4367 40.9754C39.4367 40.9745 39.5938 40.8323 39.6414 40.7054Z" fill="var(--fill-0, #0074BD)"/>
<path id="Vector_4" d="M33.4648 0.694313C33.4648 0.694313 39.1383 6.37131 28.0823 15.0981C19.2159 22.1007 26.0606 26.0925 28.0792 30.6552C22.9031 25.9857 19.1065 21.8746 21.6532 18.0486C25.3929 12.4337 35.7534 9.71031 33.4648 0.694313Z" fill="var(--fill-0, #EA2D2E)"/>
<path id="Vector_5" d="M22.8436 55.1342C32.6769 55.7629 47.7811 54.7842 48.1386 50.1309C48.1386 50.1309 47.4513 51.8949 40.0111 53.2945C31.6173 54.8747 21.2625 54.6906 15.1231 53.6769C15.1231 53.6773 16.3809 54.7186 22.8436 55.1342Z" fill="var(--fill-0, #0074BD)"/>
</g>
</svg>
