<svg preserveAspectRatio="none" width="100%" height="100%" overflow="visible" style="display: block;" viewBox="0 0 37 37" fill="none" xmlns="http://www.w3.org/2000/svg">
<g id="Frame" clip-path="url(#clip0_120_53375)">
<path id="Vector" d="M33.5312 0.867187H3.46875C2.78665 0.860246 2.12966 1.12418 1.64193 1.60107C1.1542 2.07796 0.875574 2.72886 0.867188 3.41094V33.5948C0.87709 34.2759 1.15638 34.9253 1.64395 35.401C2.13151 35.8766 2.78764 36.1398 3.46875 36.1328H33.5312C34.2134 36.1382 34.8699 35.8734 35.3574 35.3962C35.8449 34.919 36.1237 34.2683 36.1328 33.5862V3.40227C36.1206 2.72218 35.8405 2.07439 35.3534 1.59969C34.8662 1.12499 34.2114 0.861747 33.5312 0.867187ZM11.3226 30.9297H6.08766V14.086H11.3226V30.9297ZM8.72102 11.7909C8.1206 11.7914 7.5335 11.6139 7.03399 11.2807C6.53448 10.9476 6.145 10.4738 5.91484 9.91921C5.68467 9.36466 5.62415 8.7543 5.74094 8.16535C5.85772 7.57639 6.14656 7.03531 6.57092 6.61055C6.99528 6.18578 7.53609 5.89643 8.12493 5.77908C8.71377 5.66173 9.32419 5.72167 9.87896 5.95131C10.4337 6.18095 10.9079 6.56997 11.2416 7.06916C11.5752 7.56835 11.7533 8.15528 11.7533 8.7557C11.7525 9.15477 11.6731 9.54978 11.5195 9.91811C11.3659 10.2864 11.1412 10.6209 10.8582 10.9022C10.5752 11.1836 10.2395 11.4064 9.87028 11.5579C9.50108 11.7094 9.10563 11.7866 8.70656 11.7851L8.72102 11.7909ZM30.9297 30.9297H25.6948V22.7348C25.6948 20.7836 25.6601 18.2716 22.9747 18.2716C20.2893 18.2716 19.8326 20.3991 19.8326 22.6076V30.9297H14.6063V14.086H19.6245V16.3985H19.6938C20.3934 15.0746 22.0988 13.6784 24.6455 13.6784C29.9469 13.6669 30.9297 17.1559 30.9297 21.6797V30.9297Z" fill="#ED6A5A"/>
</g>
<defs>
<clipPath id="clip0_120_53375">
<rect width="37" height="37" fill="white"/>
</clipPath>
</defs>
</svg>
