<svg preserveAspectRatio="none" width="100%" height="100%" overflow="visible" style="display: block;" viewBox="0 0 52 52" fill="none" xmlns="http://www.w3.org/2000/svg">
<g id="Frame">
<path id="Vector" d="M47.125 1.21875H4.875C3.91638 1.20899 2.99303 1.57992 2.30758 2.25015C1.62212 2.92037 1.23054 3.83515 1.21875 4.79375V47.2144C1.23267 48.1716 1.62519 49.0843 2.31041 49.7527C2.99564 50.4212 3.91777 50.791 4.875 50.7813H47.125C48.0837 50.7889 49.0064 50.4167 49.6915 49.746C50.3766 49.0754 50.7684 48.1608 50.7812 47.2022V4.78156C50.7642 3.82577 50.3705 2.91536 49.6859 2.24821C49.0012 1.58106 48.0809 1.2111 47.125 1.21875ZM15.9128 43.4688H8.55562V19.7966H15.9128V43.4688ZM12.2566 16.5709C11.4127 16.5717 10.5876 16.3223 9.8856 15.854C9.18359 15.3858 8.63622 14.7199 8.31274 13.9405C7.98927 13.1611 7.90421 12.3033 8.06834 11.4756C8.23247 10.6479 8.63841 9.88746 9.23481 9.2905C9.83121 8.69353 10.5913 8.28687 11.4188 8.12195C12.2464 7.95703 13.1043 8.04127 13.8839 8.364C14.6636 8.68674 15.3301 9.23347 15.799 9.93504C16.2678 10.6366 16.5181 11.4615 16.5181 12.3053C16.5171 12.8662 16.4054 13.4213 16.1895 13.939C15.9737 14.4566 15.6579 14.9266 15.2601 15.3221C14.8624 15.7175 14.3906 16.0307 13.8717 16.2436C13.3529 16.4565 12.7971 16.565 12.2363 16.5628L12.2566 16.5709ZM43.4688 43.4688H36.1116V31.9516C36.1116 29.2094 36.0628 25.6791 32.2888 25.6791C28.5147 25.6791 27.8728 28.6691 27.8728 31.7728V43.4688H20.5278V19.7966H27.5803V23.0466H27.6778C28.6609 21.1859 31.0578 19.2237 34.6369 19.2237C42.0875 19.2075 43.4688 24.1109 43.4688 30.4688V43.4688Z" fill="var(--fill-0, #ED6A5A)"/>
</g>
</svg>
