<svg preserveAspectRatio="none" width="100%" height="100%" overflow="visible" style="display: block;" viewBox="0 0 56 56" fill="none" xmlns="http://www.w3.org/2000/svg">
<g id="MongoDB" clip-path="url(#clip0_125_53575)">
<path id="Vector" fill-rule="evenodd" clip-rule="evenodd" d="M36.2263 16.4493C35.0871 12.9021 33.2596 9.76256 30.6845 7.06099C30.0335 6.37762 29.3099 5.75156 28.8558 4.90149C28.5688 4.36337 28.2953 3.81781 28.0158 3.27618L27.8381 2.82949L27.7887 3.00537C27.7655 3.88912 27.265 4.48806 26.642 5.04762C25.9403 5.67674 25.2875 6.36012 24.6138 7.02031L22.5418 9.74549L20.8666 12.8264L19.7461 15.8517L19.7124 15.8985C19.096 17.9237 18.7919 20.0062 18.6428 22.1088C18.5863 22.8994 18.6511 23.7009 18.6953 24.4954C18.7587 25.6311 18.956 26.7472 19.2518 27.8466C20.3267 31.8392 22.5085 35.1507 25.4918 37.9647C26.0457 38.4875 26.6446 38.9631 27.2226 39.4601L27.4785 40.3386L27.7165 41.7018L27.8303 43.125C27.8289 43.4137 27.8171 43.7038 27.8342 43.9917C27.839 44.0656 27.9353 44.1339 27.9895 44.2047L28.4725 44.3745L28.9752 44.5701L28.889 43.3052L28.8851 42.0592L29.0588 40.1614L29.1848 39.7484L29.5457 39.1092C29.9911 38.7513 30.4684 38.4258 30.8739 38.0272C31.6076 37.3067 32.34 36.5761 32.9967 35.7864C33.851 34.7628 34.5808 33.6413 35.1706 32.4456C35.5639 31.6437 35.9349 30.8256 36.2416 29.9877C36.512 29.2492 36.6796 28.4727 36.8926 27.7127L36.9486 27.5487C37.3883 25.4977 37.4623 23.4257 37.3008 21.3406C37.1709 19.6601 36.7758 18.0383 36.2263 16.4493ZM27.5201 38.4446C27.5874 38.1073 27.671 37.7717 27.7318 37.4331C27.671 37.7717 27.5879 38.1073 27.5201 38.4446ZM46.5824 46.5204C46.221 45.8279 45.6908 45.302 44.9899 44.9568C44.4028 44.6681 43.7714 44.5412 43.1222 44.5228C42.6357 44.5088 42.1474 44.5337 41.6601 44.5399C41.2274 44.5451 40.7943 44.5526 40.3616 44.5486C39.8528 44.5434 39.3439 44.5281 38.8351 44.5136C38.7507 44.511 38.6908 44.5281 38.6514 44.6138C38.5897 44.7472 38.5166 44.8759 38.4409 45.022L38.5258 45.0491C38.7783 45.0937 39.032 45.1318 39.2831 45.1821C39.606 45.2464 39.7513 45.4319 39.7661 45.7041C39.788 46.0917 39.7968 46.4802 39.7954 46.8687C39.7889 48.4061 39.7779 49.9434 39.7666 51.4804C39.7657 51.5819 39.7639 51.6877 39.7364 51.7831C39.7044 51.8934 39.6699 52.036 39.5876 52.0902C39.4396 52.1853 39.2735 52.2486 39.0998 52.2762C38.8544 52.3164 38.8133 52.3274 38.7367 52.5689L38.7034 52.6896C38.6667 52.8213 38.6864 52.8471 38.8238 52.8484C39.6121 52.8572 40.4001 52.8742 41.188 52.8716C41.9068 52.869 42.6256 52.9127 43.3418 52.7776C44.0186 52.6502 44.6504 52.4271 45.227 52.0496C45.9751 51.5591 46.5133 50.9037 46.7972 50.0484C47.0264 49.3576 47.0776 48.6528 46.9998 47.9305C46.9512 47.4383 46.8095 46.9598 46.5824 46.5204ZM45.2012 50.7471C44.7794 51.532 44.1503 52.0561 43.2513 52.1944C42.6882 52.2806 42.1243 52.2556 41.5874 52.0426C41.2475 51.9078 41.1211 51.6142 41.1106 51.2673C41.1009 50.9273 41.0961 50.5872 41.0961 50.2471C41.0944 49.0509 41.0944 47.8548 41.0961 46.6591C41.097 46.2824 41.1036 45.9049 41.1097 45.5277C41.1141 45.2626 41.1696 45.1738 41.4282 45.1524C42.5639 45.057 43.6476 45.1795 44.5476 45.9788C45.1041 46.4732 45.4208 47.1036 45.5525 47.8277C45.6072 48.1296 45.6238 48.4384 45.6579 48.7447C45.6304 49.4438 45.5359 50.1241 45.2012 50.7471ZM54.7339 49.4517C54.5099 48.9066 54.0855 48.5649 53.5522 48.3461C53.3702 48.2713 53.1825 48.2096 52.9861 48.137L53.0548 48.0932C53.2669 47.9572 53.5032 47.8474 53.6861 47.6798C54.1306 47.2725 54.3152 46.7602 54.2286 46.1516C54.1463 45.5728 53.8576 45.148 53.3418 44.8724C52.8736 44.623 52.3688 44.532 51.8464 44.5324C50.9425 44.5333 50.0382 44.5469 49.1343 44.5486C48.8228 44.5491 48.5113 44.5259 48.1998 44.5215C48.1394 44.5206 48.0498 44.5359 48.0239 44.5762C47.9526 44.6856 47.9054 44.8116 47.8546 44.9332C47.8253 45.0041 47.8542 45.043 47.9351 45.0535C48.1526 45.0832 48.3696 45.1204 48.5874 45.1528C48.8884 45.1979 49.0341 45.3545 49.0525 45.6577L49.0564 45.8375C49.0569 46.7803 49.0599 47.7231 49.056 48.6659C49.0504 49.6075 49.0415 50.549 49.0293 51.4904C49.028 51.609 49.0118 51.728 48.9948 51.8457C48.9689 52.0233 48.874 52.1458 48.692 52.1843L48.1771 52.2858C48.1163 52.2981 48.0283 52.2963 48.0034 52.3339C47.9089 52.4752 47.8328 52.6297 47.8433 52.8161L47.8962 52.8305L49.6256 52.8729L49.9726 52.8716C50.5711 52.8646 51.1704 52.8764 51.7681 52.8458C52.4151 52.8134 53.0228 52.6214 53.5846 52.2911C54.1826 51.9389 54.6429 51.4747 54.8065 50.7764C54.9115 50.3306 54.9119 49.8822 54.7339 49.4517ZM50.3401 45.435C50.3427 45.2456 50.4263 45.1633 50.6144 45.1585C51.0777 45.1458 51.5379 45.1484 51.9851 45.3081C52.5634 45.5146 52.9191 46.0134 52.9126 46.6228C52.9095 46.8569 52.913 47.0887 52.8268 47.3136C52.6566 47.7564 52.3303 47.99 51.8674 48.0355C51.6259 48.06 51.3822 48.0626 51.1669 48.074L50.4486 48.0425C50.3532 48.039 50.3116 47.997 50.3121 47.899L50.3401 45.435ZM53.3177 51.3386C53.0863 51.8422 52.6645 52.1069 52.1364 52.1987C51.7156 52.2709 51.2841 52.252 50.8712 52.1432C50.5623 52.064 50.4363 51.8159 50.3746 51.5407C50.3331 51.3566 50.3401 51.1374 50.3366 50.9457C50.3309 50.65 50.3353 50.0362 50.3353 50.0362H50.3291C50.3291 49.5987 50.3304 49.2198 50.3278 48.8002C50.3274 48.7097 50.3427 48.6646 50.4534 48.6681C50.8463 48.6799 51.2404 48.6865 51.6333 48.7018C51.9846 48.7154 52.3136 48.8195 52.6229 48.9862C53.0937 49.2399 53.3772 49.6284 53.4551 50.1622C53.5146 50.5669 53.4892 50.965 53.3177 51.3386ZM10.1859 51.8102L10.1942 49.4316C10.1955 49.0737 10.15 48.7228 10.0327 48.3833C9.70944 47.4484 8.81781 47.0227 7.88944 47.3582C7.46725 47.5109 7.08881 47.7424 6.72744 48.0049C6.517 48.158 6.517 48.158 6.36475 47.9397C5.93381 47.3219 5.31825 47.1106 4.60162 47.3386C4.13831 47.4856 3.73319 47.7371 3.3495 48.0294C3.31362 48.0565 3.24144 48.0867 3.22 48.0705C3.18412 48.0438 3.15919 47.9804 3.16006 47.9327L3.18631 47.5101C3.1885 47.4212 3.17144 47.332 3.16269 47.2388C2.98944 47.2987 2.85119 47.3587 2.70637 47.3937C2.25881 47.5031 1.80819 47.6037 1.358 47.7065C1.24906 47.7314 1.134 47.7642 1.1235 47.8894C1.11256 48.0123 1.23112 48.0329 1.323 48.0696C1.51637 48.1475 1.70844 48.2302 1.89962 48.3142C2.06019 48.3851 2.12012 48.5132 2.11925 48.6856C2.11619 49.4228 2.121 50.1591 2.11662 50.8963C2.11487 51.196 2.10087 51.4952 2.08731 51.7949C2.07506 52.0605 1.9845 52.1716 1.72725 52.2386C1.59075 52.2744 1.45206 52.2985 1.31469 52.3309C1.2845 52.3379 1.23287 52.3571 1.23244 52.372C1.22675 52.5019 1.21975 52.6349 1.24162 52.7614C1.246 52.7841 1.38337 52.7841 1.4595 52.7929L1.51069 52.7898C2.04094 52.7819 2.57119 52.7736 3.10187 52.7679C3.38319 52.7649 3.66406 52.7675 3.96944 52.7675L4.00225 52.3431C3.82725 52.3112 3.67106 52.2871 3.51706 52.2534C3.27687 52.2009 3.1745 52.0736 3.16837 51.8312L3.164 51.4843C3.16137 50.5844 3.15787 49.6849 3.15787 48.7849C3.15787 48.6541 3.21212 48.5504 3.32719 48.4721C3.57087 48.3076 3.82812 48.1768 4.11294 48.1037C4.71319 47.9502 5.23381 48.1637 5.46481 48.6742C5.53788 48.8352 5.59519 49.0133 5.61138 49.1883C5.69625 50.0904 5.6595 50.9934 5.60831 51.8956C5.59738 52.0902 5.50594 52.1882 5.31387 52.2359L4.86238 52.3313C4.82606 52.3405 4.77313 52.316 4.7705 52.3462C4.76044 52.4709 4.76612 52.6621 4.76612 52.6621H4.87375L6.24837 52.7071C6.62506 52.7062 7.00219 52.7517 7.37844 52.7614C7.44581 52.7627 7.50575 52.7727 7.50969 52.6949C7.51399 52.574 7.51238 52.4529 7.50488 52.3322L7.43313 52.3195L7.04594 52.2324C6.78475 52.1707 6.69463 52.0714 6.69375 51.8072C6.69069 51.1557 6.69944 50.5047 6.69375 49.8537C6.6904 49.4814 6.67654 49.1092 6.65219 48.7377C6.64563 48.6388 6.66094 48.5741 6.73969 48.5185C6.96794 48.3516 7.22473 48.2278 7.49744 48.1532C8.344 47.9301 9.037 48.3942 9.08075 49.2671C9.12363 50.1088 9.10569 50.9536 9.09913 51.7971C9.09694 52.0907 8.99981 52.1795 8.71063 52.2582L8.61087 52.2841C8.31469 52.3549 8.31731 52.3549 8.33481 52.6695C8.3405 52.7679 8.36762 52.7933 8.47262 52.7907C9.07594 52.7771 9.67925 52.7736 10.2826 52.7684C10.5293 52.7662 10.7761 52.7684 11.0447 52.7684L11.0994 52.3589C10.8636 52.2963 10.6461 52.2499 10.4361 52.1812C10.2506 52.1182 10.185 52.0062 10.1859 51.8102ZM30.9623 48.2048C31.2108 47.9742 31.2126 47.6697 31.143 47.3316C30.9461 47.5376 30.7256 47.6326 30.4741 47.6505C30.1368 47.6746 29.8056 47.6452 29.4914 47.5109C28.6418 47.1461 27.8053 47.1719 26.9714 47.5722C26.2701 47.9082 25.8388 48.4319 25.7954 49.2259C25.7679 49.7347 25.8633 50.2164 26.2028 50.6211C26.4062 50.8635 26.6674 51.0206 26.9618 51.1291C27.0887 51.1759 27.0983 51.2362 26.992 51.3172C26.9135 51.3765 26.8322 51.432 26.7483 51.4834C26.5706 51.5951 26.3918 51.7051 26.2119 51.8133C26.1065 51.8772 26.0706 51.9586 26.1052 52.0832C26.2063 52.4499 26.4666 52.6616 26.7921 52.8161L26.9106 52.8987L26.8069 53.0024C26.488 53.261 26.1564 53.5051 25.851 53.7794C25.5946 54.01 25.5119 54.3189 25.5894 54.6597C25.7456 55.34 26.1966 55.7609 26.8367 55.9542C27.9554 56.2929 29.0058 56.0986 29.9635 55.4358C30.5314 55.0425 30.9387 54.5306 31.0625 53.8262C31.2012 53.0348 30.7615 52.3479 29.9744 52.2062C29.4538 52.1117 28.9209 52.0846 28.3942 52.0242C28.1483 51.9962 27.8989 51.9796 27.6596 51.9231C27.4562 51.875 27.3551 51.7092 27.3739 51.5473C27.3928 51.3881 27.5621 51.2397 27.7559 51.2244C28.1461 51.1929 28.5285 51.1321 28.8881 50.9676C29.841 50.5319 30.2833 49.7689 30.1726 48.7416C30.1582 48.6034 30.1267 48.4669 30.0983 48.3059C30.4032 48.3571 30.7151 48.4345 30.9623 48.2048ZM28.0709 53.0247C28.4585 53.0361 28.8995 53.0602 29.3256 53.1849C29.7006 53.2942 30.009 53.4859 30.1 53.9046C30.2098 54.4103 29.9666 54.9134 29.477 55.1838C29.0185 55.4367 28.5206 55.4577 28.0158 55.4056C27.5835 55.361 27.1946 55.2114 26.8831 54.892C26.4727 54.4716 26.4705 53.8897 26.8813 53.4706C27.2484 53.0961 27.4448 53.0186 28.0709 53.0247ZM29.0408 49.9789C28.8151 50.7012 28.1579 50.8009 27.643 50.5699C27.2042 50.3735 27.013 49.9867 26.9128 49.5453C26.8739 49.3756 26.8647 49.1992 26.8419 49.0256C26.8511 48.7766 26.8923 48.5377 26.9994 48.3137C27.328 47.6238 28.1352 47.6649 28.5819 47.9773C28.7735 48.1112 28.9069 48.2932 28.9905 48.5089C29.1765 48.9784 29.1943 49.4978 29.0408 49.9789ZM24.9414 52.2814C24.7851 52.2575 24.6306 52.223 24.479 52.1782C24.213 52.0968 24.1806 52.0469 24.1776 51.7656C24.1697 50.9816 24.1644 50.1976 24.1557 49.4141C24.1513 49.0614 24.1093 48.7136 24.0013 48.3767C23.7169 47.4886 22.8458 47.0117 21.9743 47.2738C21.4913 47.4195 21.0766 47.6903 20.6903 48.0084L20.5494 48.1164L20.5498 47.9716C20.559 47.8049 20.5769 47.6382 20.5756 47.4716C20.5748 47.3845 20.5415 47.297 20.5253 47.2204C20.1959 47.3197 19.9006 47.4195 19.5991 47.4956C19.2968 47.5717 18.9884 47.6234 18.6826 47.6855C18.5308 47.7161 18.4192 47.808 18.4218 47.9126C18.4258 48.06 18.5478 48.0884 18.6546 48.1326C18.8479 48.2118 19.0409 48.2919 19.2321 48.3767C19.3686 48.4376 19.4241 48.5504 19.4228 48.697C19.4132 49.7159 19.4071 50.7353 19.3922 51.7547C19.3878 52.0767 19.3064 52.1616 18.9897 52.2324L18.8514 52.26C18.5583 52.3103 18.55 52.3221 18.5701 52.6314L18.5719 52.6826C18.5684 52.8016 18.6204 52.8401 18.7429 52.8388C19.5217 52.8296 20.3009 52.8252 21.0796 52.8283C21.4134 52.8296 21.4493 52.8034 21.4423 52.4604L21.4266 52.3129C21.2358 52.281 21.0534 52.2578 20.8749 52.2184C20.6881 52.1769 20.6211 52.1003 20.6036 51.9104C20.5874 51.7367 20.5822 51.5604 20.5804 51.3854C20.5717 50.5844 20.5647 49.7833 20.5608 48.9827C20.5599 48.781 20.5971 48.5937 20.7826 48.4638C21.0556 48.2687 21.3775 48.1533 21.7123 48.1304C22.407 48.0827 22.9351 48.4944 22.9727 49.187C23.0191 50.0414 23.0051 50.8989 23.016 51.7551C23.0169 51.819 23.0055 51.8833 22.9968 51.9467C22.9801 52.0719 22.9189 52.1659 22.792 52.1983C22.6682 52.2307 22.5426 52.2596 22.4162 52.2788C22.2276 52.3068 22.2237 52.3055 22.2093 52.4958L22.2141 52.624C22.2364 52.8454 22.2368 52.8388 22.4608 52.8366C23.2142 52.8305 23.9671 52.8266 24.7201 52.8274C25.0351 52.8283 25.0574 52.8134 25.06 52.4888L25.0591 52.4118C25.0639 52.3287 25.0268 52.295 24.9414 52.2814ZM35.4642 47.3276C34.6745 47.1347 33.9255 47.2782 33.2141 47.6461C32.5229 48.0036 32.0609 48.5561 31.885 49.3191C31.7074 50.0904 31.7923 50.8429 32.1331 51.5591C32.3549 52.0242 32.6961 52.3838 33.1608 52.6174C34.2484 53.1652 35.5788 52.9167 36.4319 52.1839C37.1053 51.6059 37.3524 50.8364 37.3673 49.8839C37.3581 49.7886 37.3489 49.6048 37.3236 49.4228C37.1805 48.3859 36.4626 47.5717 35.4642 47.3276ZM36.0623 51.3329C35.8527 52.1581 35.1391 52.5247 34.3341 52.2412C33.9233 52.0968 33.6162 51.8207 33.4097 51.4476C32.9346 50.5901 32.8431 49.6783 33.1135 48.7429C33.2938 48.1199 33.8065 47.7791 34.4164 47.822C34.9615 47.8601 35.3806 48.1217 35.6882 48.5653C36.0124 49.0334 36.1375 49.5659 36.1708 50.125C36.1764 50.2147 36.1716 50.3044 36.1716 50.3945L36.2101 50.3989C36.162 50.7108 36.1393 51.0289 36.0623 51.3329ZM15.603 47.3141C14.7722 47.1242 13.9939 47.3119 13.2729 47.7341C12.6494 48.0989 12.2465 48.6441 12.0921 49.3563C11.9473 50.0217 12.0063 50.6758 12.2421 51.3132C12.3856 51.7017 12.6031 52.0434 12.922 52.3099C13.5936 52.8703 14.3784 53.0121 15.2136 52.8559C15.9206 52.7233 16.5419 52.4092 16.9934 51.8216C17.416 51.2721 17.577 50.6412 17.5936 49.9574C17.5687 49.7409 17.5626 49.5204 17.5166 49.3091C17.2883 48.2542 16.6714 47.5577 15.603 47.3141ZM16.2807 51.3303C16.0781 52.1511 15.3532 52.5269 14.5539 52.2434C14.0407 52.0609 13.7064 51.6851 13.4951 51.2034C13.1565 50.4295 13.0874 49.6241 13.3066 48.8077C13.4746 48.1834 13.9808 47.7236 14.7556 47.8338C15.2311 47.9012 15.6021 48.144 15.8786 48.5303C16.2523 49.0514 16.3752 49.6481 16.3923 50.2751V50.4032L16.4238 50.4081C16.3778 50.7161 16.3551 51.0293 16.2807 51.3303Z" fill="var(--fill-0, #4FAA41)"/>
</g>
<defs>
<clipPath id="clip0_125_53575">
<rect width="56" height="56" fill="white"/>
</clipPath>
</defs>
</svg>
