<svg preserveAspectRatio="none" width="100%" height="100%" overflow="visible" style="display: block;" viewBox="0 0 57 57" fill="none" xmlns="http://www.w3.org/2000/svg">
<g id="node.js" clip-path="url(#clip0_125_53568)">
<path id="Vector" d="M50.905 24.6053C50.882 24.6053 50.8595 24.6121 50.8404 24.6249L49.7957 25.235C49.7761 25.2471 49.7599 25.2642 49.7488 25.2845C49.7377 25.3048 49.7321 25.3276 49.7325 25.3507V26.5709C49.7325 26.6226 49.757 26.6617 49.7957 26.6876L50.8404 27.2968C50.8596 27.3095 50.882 27.3163 50.905 27.3163C50.928 27.3163 50.9504 27.3095 50.9696 27.2968L52.0125 26.6876C52.0324 26.6752 52.0487 26.6579 52.06 26.6374C52.0713 26.6169 52.0772 26.5939 52.0771 26.5705V25.3516C52.0772 25.3284 52.0713 25.3056 52.06 25.2853C52.0487 25.265 52.0323 25.248 52.0125 25.2359L50.9691 24.6253C50.9502 24.6126 50.9278 24.6054 50.905 24.6053ZM28.1527 31.9013C27.9625 31.9013 27.7733 31.9476 27.612 32.0384L22.4691 35.0341C22.3043 35.1308 22.1676 35.269 22.0727 35.4349C21.9779 35.6009 21.9282 35.7888 21.9285 35.9799V41.9573C21.9285 42.3465 22.1343 42.7099 22.4691 42.905L23.8229 43.6825C24.4802 44.0067 24.7122 44.0058 25.0083 44.0058C25.9746 44.0058 26.529 43.4095 26.529 42.3848V36.4867C26.5285 36.4456 26.512 36.4064 26.4831 36.3772C26.4542 36.3481 26.4151 36.3313 26.3741 36.3304H25.7177C25.6765 36.3311 25.6372 36.3478 25.6081 36.3769C25.579 36.4061 25.5624 36.4455 25.5618 36.4867V42.3862C25.5618 42.8399 25.0858 43.2946 24.3256 42.9059L22.9207 42.0887C22.869 42.0629 22.8428 41.997 22.8428 41.9453V35.9665C22.8428 35.9149 22.869 35.8508 22.9207 35.8245L28.0618 32.8422C28.1006 32.8164 28.1656 32.8164 28.2172 32.8422L33.3597 35.8245C33.4109 35.8508 33.4363 35.902 33.4363 35.967V41.9449C33.4363 42.0094 33.4109 42.0624 33.3597 42.0883L28.2172 45.0839C28.1785 45.1097 28.1135 45.1097 28.0618 45.0839L26.7477 44.2917C26.709 44.2658 26.6573 44.2529 26.6186 44.2788C26.2579 44.4863 26.1946 44.5134 25.8464 44.6301C25.7689 44.6559 25.6402 44.7071 25.8976 44.8496L27.612 45.8748C27.7795 45.9651 27.9594 46.0168 28.1527 46.0168C28.3459 46.0168 28.5387 45.9656 28.6933 45.901L33.8362 42.9054C34.0011 42.8084 34.1378 42.6698 34.2327 42.5036C34.3275 42.3373 34.3772 42.1492 34.3768 41.9578V35.9799C34.3768 35.5907 34.1711 35.2287 33.8362 35.0341L28.6933 32.0384C28.5277 31.9474 28.3416 31.9002 28.1527 31.9013ZM36.1816 34.6311C35.9177 34.6321 35.665 34.7379 35.479 34.9252C35.2931 35.1125 35.1891 35.366 35.1899 35.6299C35.1892 35.8937 35.2933 36.1471 35.4792 36.3343C35.6651 36.5215 35.9178 36.6272 36.1816 36.6283C36.7236 36.6283 37.1738 36.1745 37.1738 35.6299C37.1724 35.3666 37.0676 35.1144 36.882 34.9276C36.6965 34.7409 36.4449 34.6341 36.1816 34.6311ZM36.1683 34.7998C36.2781 34.7985 36.387 34.819 36.4888 34.8601C36.5906 34.9012 36.6832 34.9622 36.7612 35.0394C36.8393 35.1166 36.9011 35.2086 36.9433 35.31C36.9855 35.4114 37.007 35.5201 37.0068 35.6299C37.0068 36.0841 36.6327 36.4733 36.1687 36.4733C35.7181 36.4733 35.344 36.0966 35.344 35.6299C35.344 35.1632 35.7305 34.7998 36.1683 34.7998ZM35.808 35.0719V36.2128H36.028V35.7604H36.2213C36.2988 35.7604 36.3241 35.7862 36.3371 35.8508C36.3371 35.8641 36.3753 36.1491 36.3753 36.2008H36.6069C36.5811 36.1491 36.5682 35.9933 36.5553 35.9024C36.5428 35.7599 36.5303 35.6562 36.3753 35.6433C36.4528 35.617 36.5815 35.5782 36.5815 35.3707C36.5815 35.0724 36.3232 35.0724 36.195 35.0724L35.808 35.0719ZM36.0017 35.2536H36.1816C36.2467 35.2536 36.3491 35.2536 36.3491 35.409C36.3491 35.4607 36.3241 35.5653 36.1816 35.5653H36.0013L36.0017 35.2536ZM29.5581 36.1487C28.0885 36.1487 27.2122 36.7712 27.2122 37.8217C27.2122 38.9501 28.0885 39.2601 29.4935 39.403C31.1812 39.5718 31.3104 39.8185 31.3104 40.1556C31.3104 40.739 30.8455 40.9857 29.7629 40.9857C28.3967 40.9857 28.1006 40.6481 27.9972 39.961C27.9972 39.8831 27.934 39.8319 27.8565 39.8319H27.1863C27.1454 39.8323 27.1063 39.8489 27.0774 39.878C27.0486 39.9071 27.0324 39.9463 27.0322 39.9873C27.0322 40.869 27.4958 41.9066 29.7518 41.9066C31.3749 41.9066 32.3159 41.2573 32.3159 40.1164C32.3159 39.0009 31.5678 38.703 29.9833 38.4955C28.3847 38.288 28.2177 38.1713 28.2177 37.7954C28.2177 37.4842 28.3593 37.0696 29.5447 37.0696C30.6014 37.0696 31.0004 37.3034 31.1554 38.0163C31.1632 38.0485 31.1813 38.0772 31.2069 38.0981C31.2326 38.1191 31.2644 38.131 31.2975 38.1321H31.9801C32.0193 38.1321 32.058 38.1067 32.0843 38.0809C32.1082 38.0465 32.1214 38.0057 32.1222 37.9638C32.0193 36.7191 31.2079 36.1487 29.5581 36.1487Z" fill="var(--fill-0, #5FA04E)"/>
<g id="Vector_2">
<mask id="path-2-inside-1_125_53568" fill="white">
<path d="M38.3289 10.9832C38.2741 10.9826 38.2201 10.9962 38.1722 11.0228C38.1223 11.0519 38.0807 11.0933 38.0515 11.143C38.0222 11.1928 38.0063 11.2492 38.0052 11.3069V19.7363C38.0052 19.8137 37.9651 19.8921 37.8881 19.9438C37.8525 19.9629 37.8127 19.9729 37.7723 19.9729C37.7319 19.9729 37.6921 19.9629 37.6565 19.9438L36.2912 19.1533C36.191 19.0959 36.0776 19.0657 35.9621 19.0657C35.8466 19.0657 35.7332 19.0959 35.633 19.1533L30.1699 22.3306C30.0688 22.3876 29.9846 22.4703 29.9257 22.5703C29.8668 22.6704 29.8354 22.7841 29.8346 22.9002V29.2414C29.8346 29.4748 29.9637 29.6957 30.1699 29.8123L35.6339 32.9896C35.734 33.047 35.8474 33.0771 35.9628 33.0771C36.0781 33.0771 36.1915 33.047 36.2916 32.9896L41.7552 29.8123C41.9614 29.6957 42.0905 29.4748 42.0905 29.2414V13.4342C42.0905 13.1879 41.9614 12.9666 41.7552 12.8504L38.4955 11.0228C38.4439 10.9969 38.3866 10.9834 38.3289 10.9832ZM6.09499 18.8946C5.99213 18.8946 5.88926 18.932 5.7993 18.9837L0.33532 22.1494C0.232723 22.2079 0.147576 22.2928 0.08864 22.3951C0.0297044 22.4975 -0.000891586 22.6137 0 22.7319L0.0133594 31.2382C0.0133594 31.3553 0.0770391 31.472 0.180352 31.5241C0.228162 31.5558 0.284225 31.5726 0.341555 31.5726C0.398885 31.5726 0.454947 31.5558 0.502758 31.5241L3.75087 29.6569C3.95705 29.5403 4.08485 29.3194 4.08485 29.086V25.1049C4.08485 24.8716 4.21399 24.6507 4.42062 24.534L5.7993 23.7303C5.90217 23.6652 6.01884 23.6394 6.13463 23.6394C6.25041 23.6394 6.36663 23.6652 6.45703 23.7303L7.83572 24.534C8.0419 24.6507 8.17104 24.8716 8.17104 25.1049V29.086C8.17104 29.3194 8.29929 29.5403 8.50502 29.6569L11.7273 31.5241C11.7775 31.5559 11.8356 31.5727 11.895 31.5727C11.9543 31.5727 12.0125 31.5559 12.0626 31.5241C12.1138 31.4961 12.1564 31.4547 12.1859 31.4043C12.2154 31.354 12.2306 31.2966 12.2301 31.2382V22.7319C12.2301 22.4985 12.1009 22.2777 11.8943 22.1605L6.44367 18.9837C6.35201 18.9345 6.2515 18.9041 6.14798 18.8942L6.09499 18.8946ZM50.9233 18.9881C50.8106 18.9881 50.6988 19.0175 50.5955 19.0763L45.1306 22.2518C44.9245 22.3685 44.7967 22.5894 44.7967 22.8232V29.1644C44.7967 29.3978 44.9245 29.6186 45.1306 29.7353L50.5563 32.8467C50.654 32.904 50.7652 32.9342 50.8785 32.9342C50.9918 32.9342 51.103 32.904 51.2007 32.8467L54.4871 31.0062C54.5382 30.9781 54.5807 30.9367 54.6101 30.8863C54.6395 30.836 54.6547 30.7786 54.6541 30.7203C54.6546 30.6622 54.6393 30.605 54.6099 30.5548C54.5805 30.5046 54.5381 30.4634 54.4871 30.4353L48.9977 27.2576C48.9478 27.2283 48.9062 27.1866 48.877 27.1366C48.8478 27.0867 48.8318 27.03 48.8307 26.9721V24.9878C48.8301 24.9296 48.8453 24.8724 48.8747 24.8222C48.9041 24.772 48.9467 24.7307 48.9977 24.7028L50.7122 23.7169C50.7624 23.6852 50.8205 23.6684 50.8798 23.6684C50.9392 23.6684 50.9973 23.6852 51.0475 23.7169L52.7602 24.7024C52.8103 24.7316 52.8521 24.7732 52.8816 24.8232C52.911 24.8731 52.9272 24.9298 52.9285 24.9878V26.5442C52.9285 26.6613 52.9926 26.778 53.0955 26.8296C53.1457 26.8615 53.2039 26.8784 53.2634 26.8784C53.3228 26.8784 53.3811 26.8615 53.4313 26.8296L56.678 24.9237C56.7776 24.8656 56.8599 24.7821 56.9166 24.6817C56.9732 24.5813 57.0022 24.4676 57.0004 24.3524V22.8094C57.0004 22.576 56.8713 22.3565 56.678 22.2394L51.2524 19.0759C51.1523 19.0186 51.039 18.9882 50.9237 18.9877L50.9233 18.9881ZM35.9621 23.7236C35.9911 23.7236 36.0204 23.7303 36.0467 23.7436L37.9144 24.8329C37.966 24.8587 37.9923 24.9228 37.9923 24.9749V27.1534C37.9923 27.2184 37.966 27.2709 37.9144 27.2968L36.0463 28.386C36.0201 28.3988 35.9913 28.4054 35.9621 28.4054C35.9329 28.4054 35.9042 28.3988 35.8779 28.386L34.0099 27.2968C33.9582 27.2709 33.9319 27.2055 33.9319 27.1534V24.9749C33.9319 24.9099 33.9586 24.8587 34.0099 24.8324L35.8779 23.7436C35.9042 23.7305 35.9327 23.7236 35.9621 23.7236Z"/>
</mask>
<path d="M38.3289 10.9832C38.2741 10.9826 38.2201 10.9962 38.1722 11.0228C38.1223 11.0519 38.0807 11.0933 38.0515 11.143C38.0222 11.1928 38.0063 11.2492 38.0052 11.3069V19.7363C38.0052 19.8137 37.9651 19.8921 37.8881 19.9438C37.8525 19.9629 37.8127 19.9729 37.7723 19.9729C37.7319 19.9729 37.6921 19.9629 37.6565 19.9438L36.2912 19.1533C36.191 19.0959 36.0776 19.0657 35.9621 19.0657C35.8466 19.0657 35.7332 19.0959 35.633 19.1533L30.1699 22.3306C30.0688 22.3876 29.9846 22.4703 29.9257 22.5703C29.8668 22.6704 29.8354 22.7841 29.8346 22.9002V29.2414C29.8346 29.4748 29.9637 29.6957 30.1699 29.8123L35.6339 32.9896C35.734 33.047 35.8474 33.0771 35.9628 33.0771C36.0781 33.0771 36.1915 33.047 36.2916 32.9896L41.7552 29.8123C41.9614 29.6957 42.0905 29.4748 42.0905 29.2414V13.4342C42.0905 13.1879 41.9614 12.9666 41.7552 12.8504L38.4955 11.0228C38.4439 10.9969 38.3866 10.9834 38.3289 10.9832ZM6.09499 18.8946C5.99213 18.8946 5.88926 18.932 5.7993 18.9837L0.33532 22.1494C0.232723 22.2079 0.147576 22.2928 0.08864 22.3951C0.0297044 22.4975 -0.000891586 22.6137 0 22.7319L0.0133594 31.2382C0.0133594 31.3553 0.0770391 31.472 0.180352 31.5241C0.228162 31.5558 0.284225 31.5726 0.341555 31.5726C0.398885 31.5726 0.454947 31.5558 0.502758 31.5241L3.75087 29.6569C3.95705 29.5403 4.08485 29.3194 4.08485 29.086V25.1049C4.08485 24.8716 4.21399 24.6507 4.42062 24.534L5.7993 23.7303C5.90217 23.6652 6.01884 23.6394 6.13463 23.6394C6.25041 23.6394 6.36663 23.6652 6.45703 23.7303L7.83572 24.534C8.0419 24.6507 8.17104 24.8716 8.17104 25.1049V29.086C8.17104 29.3194 8.29929 29.5403 8.50502 29.6569L11.7273 31.5241C11.7775 31.5559 11.8356 31.5727 11.895 31.5727C11.9543 31.5727 12.0125 31.5559 12.0626 31.5241C12.1138 31.4961 12.1564 31.4547 12.1859 31.4043C12.2154 31.354 12.2306 31.2966 12.2301 31.2382V22.7319C12.2301 22.4985 12.1009 22.2777 11.8943 22.1605L6.44367 18.9837C6.35201 18.9345 6.2515 18.9041 6.14798 18.8942L6.09499 18.8946ZM50.9233 18.9881C50.8106 18.9881 50.6988 19.0175 50.5955 19.0763L45.1306 22.2518C44.9245 22.3685 44.7967 22.5894 44.7967 22.8232V29.1644C44.7967 29.3978 44.9245 29.6186 45.1306 29.7353L50.5563 32.8467C50.654 32.904 50.7652 32.9342 50.8785 32.9342C50.9918 32.9342 51.103 32.904 51.2007 32.8467L54.4871 31.0062C54.5382 30.9781 54.5807 30.9367 54.6101 30.8863C54.6395 30.836 54.6547 30.7786 54.6541 30.7203C54.6546 30.6622 54.6393 30.605 54.6099 30.5548C54.5805 30.5046 54.5381 30.4634 54.4871 30.4353L48.9977 27.2576C48.9478 27.2283 48.9062 27.1866 48.877 27.1366C48.8478 27.0867 48.8318 27.03 48.8307 26.9721V24.9878C48.8301 24.9296 48.8453 24.8724 48.8747 24.8222C48.9041 24.772 48.9467 24.7307 48.9977 24.7028L50.7122 23.7169C50.7624 23.6852 50.8205 23.6684 50.8798 23.6684C50.9392 23.6684 50.9973 23.6852 51.0475 23.7169L52.7602 24.7024C52.8103 24.7316 52.8521 24.7732 52.8816 24.8232C52.911 24.8731 52.9272 24.9298 52.9285 24.9878V26.5442C52.9285 26.6613 52.9926 26.778 53.0955 26.8296C53.1457 26.8615 53.2039 26.8784 53.2634 26.8784C53.3228 26.8784 53.3811 26.8615 53.4313 26.8296L56.678 24.9237C56.7776 24.8656 56.8599 24.7821 56.9166 24.6817C56.9732 24.5813 57.0022 24.4676 57.0004 24.3524V22.8094C57.0004 22.576 56.8713 22.3565 56.678 22.2394L51.2524 19.0759C51.1523 19.0186 51.039 18.9882 50.9237 18.9877L50.9233 18.9881ZM35.9621 23.7236C35.9911 23.7236 36.0204 23.7303 36.0467 23.7436L37.9144 24.8329C37.966 24.8587 37.9923 24.9228 37.9923 24.9749V27.1534C37.9923 27.2184 37.966 27.2709 37.9144 27.2968L36.0463 28.386C36.0201 28.3988 35.9913 28.4054 35.9621 28.4054C35.9329 28.4054 35.9042 28.3988 35.8779 28.386L34.0099 27.2968C33.9582 27.2709 33.9319 27.2055 33.9319 27.1534V24.9749C33.9319 24.9099 33.9586 24.8587 34.0099 24.8324L35.8779 23.7436C35.9042 23.7305 35.9327 23.7236 35.9621 23.7236Z" fill="var(--fill-0, #333333)" stroke="var(--stroke-0, #E1E1E1)" mask="url(#path-2-inside-1_125_53568)"/>
</g>
<path id="Vector_3" d="M15.0611 22.8209C15.0597 22.7236 15.0846 22.6273 15.1324 22.5426C15.1804 22.4579 15.2505 22.3874 15.3346 22.3385L20.7604 19.1871L20.7594 19.1861C20.8441 19.1377 20.941 19.1129 21.0387 19.1129C21.112 19.1129 21.1842 19.1281 21.2516 19.1559L21.317 19.1871L26.7418 22.3385C26.9049 22.4371 27.0143 22.6256 27.0143 22.8228V29.1373C27.0143 29.3385 26.9147 29.5244 26.7428 29.6217H26.7418L21.317 32.773C21.2323 32.8216 21.1363 32.8472 21.0387 32.8473C20.9408 32.8473 20.8443 32.8217 20.7594 32.773H20.7604L15.3346 29.6217C15.1715 29.5225 15.0611 29.3348 15.0611 29.1373V22.8209Z" fill="url(#paint0_linear_125_53568)" stroke="var(--stroke-0, #E1E1E1)" stroke-width="0.2"/>
<path id="Vector_4" d="M21.2321 19.1554C21.2566 19.1647 21.2809 19.1749 21.3044 19.1866V19.1876L26.7546 22.338V22.339L26.7614 22.3419C26.7843 22.3532 26.8047 22.3683 26.8239 22.3849L21.1452 32.835C21.0172 32.8643 20.8813 32.8445 20.7605 32.7735L20.7595 32.7725L15.3112 29.6231C15.2725 29.5996 15.2355 29.5698 15.2019 29.5372L21.2321 19.1554Z" fill="url(#paint1_linear_125_53568)" stroke="var(--stroke-0, #E1E1E1)" stroke-width="0.2"/>
<path id="Vector_5" d="M21.0994 19.1166L27.0164 29.3012C26.9804 29.3966 26.9234 29.486 26.8475 29.5541L26.7547 29.6215L21.3192 32.7836C21.2741 32.8061 21.2225 32.8217 21.1727 32.8344L15.4178 22.2758L20.7459 19.1869L20.7469 19.1879L20.7508 19.1849C20.8528 19.1195 20.9756 19.103 21.0994 19.1166Z" fill="url(#paint2_linear_125_53568)" stroke="var(--stroke-0, #E1E1E1)" stroke-width="0.2"/>
</g>
<defs>
<linearGradient id="paint0_linear_125_53568" x1="23.2477" y1="21.4475" x2="18.2928" y2="31.4928" gradientUnits="userSpaceOnUse">
<stop stop-color="#3F873F"/>
<stop offset="0.33" stop-color="#3F8B3D"/>
<stop offset="0.637" stop-color="#3E9638"/>
<stop offset="0.934" stop-color="#3DA92E"/>
<stop offset="1" stop-color="#3DAE2B"/>
</linearGradient>
<linearGradient id="paint1_linear_125_53568" x1="20.2139" y1="26.7176" x2="34.0387" y2="16.5659" gradientUnits="userSpaceOnUse">
<stop offset="0.138" stop-color="#3F873F"/>
<stop offset="0.402" stop-color="#52A044"/>
<stop offset="0.713" stop-color="#64B749"/>
<stop offset="0.908" stop-color="#6ABF4B"/>
</linearGradient>
<linearGradient id="paint2_linear_125_53568" x1="14.7631" y1="25.978" x2="27.3176" y2="25.978" gradientUnits="userSpaceOnUse">
<stop offset="0.092" stop-color="#6ABF4B"/>
<stop offset="0.287" stop-color="#64B749"/>
<stop offset="0.598" stop-color="#52A044"/>
<stop offset="0.862" stop-color="#3F873F"/>
</linearGradient>
<clipPath id="clip0_125_53568">
<rect width="57" height="57" fill="white"/>
</clipPath>
</defs>
</svg>
