<svg preserveAspectRatio="none" width="100%" height="100%" overflow="visible" style="display: block;" viewBox="0 0 55 49" fill="none" xmlns="http://www.w3.org/2000/svg">
<g id="Group">
<path id="Vector" d="M27.3875 29.4438C30.142 29.4438 32.375 27.2108 32.375 24.4563C32.375 21.7017 30.142 19.4688 27.3875 19.4688C24.633 19.4688 22.4 21.7017 22.4 24.4563C22.4 27.2108 24.633 29.4438 27.3875 29.4438Z" fill="var(--fill-0, #61DAFB)"/>
<path id="Vector_2" d="M46.3313 16.2312C45.3688 15.8812 44.3625 15.5313 43.3125 15.225C43.575 14.175 43.7937 13.125 43.9688 12.1187C44.8875 6.34375 43.8813 2.275 41.0813 0.7C40.25 0.21875 39.3313 0 38.2812 0C35.2188 0 31.325 2.275 27.3875 6.08125C23.45 2.275 19.5562 0 16.4937 0C15.4437 0 14.525 0.21875 13.6938 0.7C10.8938 2.31875 9.8875 6.3875 10.8063 12.1187C10.9813 13.125 11.2 14.175 11.4625 15.225C10.4125 15.5313 9.40625 15.8375 8.44375 16.2312C2.975 18.3312 0 21.2188 0 24.4563C0 27.6938 3.01875 30.5813 8.44375 32.6813C9.40625 33.0313 10.4125 33.3813 11.4625 33.6875C11.2 34.7375 10.9813 35.7875 10.8063 36.7937C9.8875 42.5687 10.8938 46.6375 13.6938 48.2125C14.525 48.6938 15.4437 48.9125 16.4937 48.9125C19.6 48.9125 23.4937 46.6375 27.3875 42.8313C31.325 46.6375 35.2188 48.9125 38.2812 48.9125C39.3313 48.9125 40.25 48.6938 41.0813 48.2125C43.8813 46.5938 44.8875 42.525 43.9688 36.7937C43.7937 35.7875 43.575 34.7375 43.3125 33.6875C44.3625 33.3813 45.3688 33.075 46.3313 32.6813C51.8 30.5813 54.775 27.6938 54.775 24.4563C54.775 21.2188 51.8 18.3312 46.3313 16.2312ZM39.8562 2.8875C41.65 3.9375 42.2625 7.175 41.5188 11.7687C41.3875 12.6875 41.1688 13.65 40.9062 14.6562C38.6313 14.1312 36.225 13.7812 33.6875 13.5625C32.2 11.4625 30.6687 9.58125 29.1375 7.875C32.375 4.68125 35.6562 2.49375 38.325 2.49375C38.8937 2.49375 39.4187 2.625 39.8562 2.8875ZM34.9563 28.8313C34.1688 30.2313 33.25 31.6312 32.2875 33.0312C30.6687 33.1625 29.05 33.2063 27.3875 33.2063C25.6812 33.2063 24.0625 33.1625 22.4875 33.0312C21.525 31.6312 20.65 30.2313 19.8625 28.8313C19.0312 27.3875 18.2437 25.9 17.5437 24.4563C18.2437 23.0125 19.0312 21.525 19.8625 20.0813C20.65 18.6813 21.5687 17.2813 22.5312 15.8813C24.15 15.75 25.7687 15.7063 27.4312 15.7063C29.1375 15.7063 30.7563 15.75 32.3313 15.8813C33.2938 17.2813 34.1688 18.6813 34.9563 20.0813C35.7875 21.525 36.575 23.0125 37.275 24.4563C36.5312 25.9 35.7875 27.3438 34.9563 28.8313ZM38.5875 27.3875C39.2437 28.9187 39.7687 30.4063 40.25 31.8938C38.7625 32.2438 37.1875 32.5063 35.525 32.725C36.05 31.8938 36.6187 31.0188 37.1 30.1C37.625 29.1813 38.1062 28.2625 38.5875 27.3875ZM27.3875 39.2438C26.3375 38.1063 25.3312 36.8813 24.3687 35.6125C25.375 35.6563 26.3812 35.7 27.3875 35.7C28.3937 35.7 29.4 35.6563 30.4062 35.6125C29.4437 36.8813 28.4375 38.1063 27.3875 39.2438ZM19.25 32.6813C17.5875 32.4625 16.0125 32.2 14.525 31.85C15.0062 30.4063 15.5312 28.875 16.1875 27.3438C16.6688 28.2188 17.15 29.1375 17.675 30.0125C18.2 30.975 18.725 31.8063 19.25 32.6813ZM16.1875 21.525C15.5312 19.9937 15.0062 18.5063 14.525 17.0188C16.0125 16.6688 17.5875 16.4062 19.25 16.1875C18.725 17.0187 18.1562 17.8938 17.675 18.8125C17.15 19.7312 16.6688 20.65 16.1875 21.525ZM27.3875 9.66875C28.4375 10.8063 29.4437 12.0312 30.4062 13.3C29.4 13.2562 28.3937 13.2125 27.3875 13.2125C26.3812 13.2125 25.375 13.2562 24.3687 13.3C25.3312 12.0312 26.3375 10.8063 27.3875 9.66875ZM37.1 18.8562L35.525 16.2312C37.1875 16.45 38.7625 16.7125 40.25 17.0625C39.7687 18.5062 39.2437 20.0375 38.5875 21.5688C38.1062 20.65 37.625 19.7312 37.1 18.8562ZM13.2563 11.7687C12.5125 7.175 13.125 3.9375 14.9187 2.8875C15.3562 2.625 15.8812 2.49375 16.45 2.49375C19.075 2.49375 22.3562 4.6375 25.6375 7.875C24.1062 9.5375 22.575 11.4625 21.0875 13.5625C18.55 13.7812 16.1437 14.175 13.8687 14.6562C13.6062 13.65 13.4313 12.6875 13.2563 11.7687ZM2.45 24.4563C2.45 22.4 4.94375 20.2125 9.31875 18.5938C10.1938 18.2437 11.1563 17.9375 12.1188 17.675C12.8188 19.8625 13.6937 22.1812 14.7437 24.5C13.6937 26.8188 12.775 29.0938 12.1188 31.2812C6.08125 29.5312 2.45 26.9063 2.45 24.4563ZM14.9187 46.025C13.125 44.975 12.5125 41.7375 13.2563 37.1438C13.3875 36.225 13.6062 35.2625 13.8687 34.2563C16.1437 34.7813 18.55 35.1313 21.0875 35.35C22.575 37.45 24.1062 39.3313 25.6375 41.0375C22.4 44.2313 19.1187 46.4187 16.45 46.4187C15.8812 46.4187 15.3562 46.2875 14.9187 46.025ZM41.5188 37.1438C42.2625 41.7375 41.65 44.975 39.8562 46.025C39.4187 46.2875 38.8937 46.4187 38.325 46.4187C35.7 46.4187 32.4187 44.275 29.1375 41.0375C30.6687 39.375 32.2 37.45 33.6875 35.35C36.225 35.1313 38.6313 34.7375 40.9062 34.2563C41.1688 35.2625 41.3438 36.225 41.5188 37.1438ZM45.4563 30.3188C44.5813 30.6688 43.6188 30.975 42.6562 31.2375C41.9562 29.05 41.0813 26.7313 40.0312 24.4125C41.0813 22.0938 42 19.8188 42.6562 17.6313C48.6938 19.3813 52.325 22.0063 52.325 24.4563C52.325 26.5125 49.7875 28.7 45.4563 30.3188Z" fill="var(--fill-0, #61DAFB)"/>
</g>
</svg>
