<svg preserveAspectRatio="none" width="100%" height="100%" overflow="visible" style="display: block;" viewBox="0 0 56 56" fill="none" xmlns="http://www.w3.org/2000/svg">
<g id="sql">
<path id="Vector" d="M28 15.9906C16.9872 15.9906 8.05787 12.8804 8.05787 8.77406V47.2259C8.05787 51.1774 16.8319 54.3817 27.7196 54.4447H28C39.0128 54.4447 47.9421 51.3327 47.9421 47.2259V8.77406C47.9421 12.7868 39.0128 15.9906 28 15.9906Z" fill="url(#paint0_linear_125_53557)"/>
<path id="Vector_2" d="M47.9421 8.77406C47.9421 12.7868 39.0128 15.9911 28 15.9911C16.9872 15.9911 8.05787 12.8804 8.05787 8.77406C8.05787 4.66725 16.9872 1.55531 28 1.55531C39.0128 1.55531 47.9421 4.66725 47.9421 8.77406Z" fill="var(--fill-0, #E8E8E8)"/>
<path id="Vector_3" d="M43.3072 8.18256C43.3072 10.7341 36.4306 12.7868 28 12.7868C19.5694 12.7868 12.6927 10.7341 12.6927 8.18256C12.6927 5.63106 19.5694 3.60938 28 3.60938C36.4306 3.60938 43.3072 5.66169 43.3072 8.18256Z" fill="var(--fill-0, #50E6FF)"/>
<path id="Vector_4" d="M28 9.33275C23.894 9.22855 19.8004 9.82858 15.897 11.1068C19.804 12.3615 23.8989 12.9299 28 12.7868C32.1094 12.9068 36.2074 12.2957 40.103 10.9821C36.1883 9.76369 32.098 9.20626 28 9.33275Z" fill="var(--fill-0, #198AB3)"/>
<path id="Vector_5" d="M40.1336 35.4664V24.8898H37.3328V37.7379H44.9873V35.4664H40.1336ZM17.9204 30.2711C17.3422 30.0385 16.8059 29.7129 16.3328 29.3072C16.2073 29.1745 16.1097 29.0179 16.0457 28.8468C15.9817 28.6757 15.9525 28.4936 15.96 28.3111C15.9505 28.1284 15.9885 27.9465 16.0703 27.7829C16.1522 27.6194 16.275 27.4798 16.4268 27.3779C16.8097 27.1131 17.2691 26.9816 17.7341 27.0038C18.8419 26.9545 19.9351 27.2716 20.8447 27.9059V25.2315C19.8512 24.8606 18.7937 24.6915 17.7341 24.7341C16.5133 24.6686 15.3096 25.0434 14.3417 25.7902C13.9202 26.1155 13.582 26.5363 13.355 27.0179C13.128 27.4996 13.0187 28.0283 13.0362 28.5604C13.0362 30.1464 14.0306 31.3906 16.1468 32.3238C16.8337 32.6161 17.4812 32.9919 18.0762 33.4447C18.2216 33.5666 18.3387 33.7188 18.4192 33.8906C18.4998 34.0625 18.5419 34.2498 18.5426 34.4396C18.5426 34.8241 18.3562 35.1829 18.0451 35.4051C17.621 35.6525 17.1342 35.7712 16.6438 35.7468C15.3925 35.7363 14.1876 35.2718 13.2532 34.4396V37.3327C14.2806 37.863 15.4271 38.1202 16.5826 38.0796C17.8863 38.1566 19.1782 37.7961 20.2532 37.0523C20.6327 36.693 20.9231 36.2501 21.1014 35.7589C21.2797 35.2677 21.341 34.7416 21.2804 34.2226C21.2956 33.4261 21.019 32.6517 20.5026 32.0451C19.7756 31.2794 18.8959 30.675 17.9204 30.2711ZM34.2226 35.217C34.9288 34.0343 35.2849 32.6754 35.2494 31.2983C35.1789 30.132 34.8266 29.0002 34.2226 28C33.7369 27.0287 32.9807 26.2186 32.0451 25.6672C31.0967 25.1293 30.0236 24.8499 28.9332 24.857C27.7581 24.8317 26.5978 25.122 25.5732 25.6979C24.6126 26.2336 23.8248 27.0323 23.3021 28C22.7514 29.0998 22.4741 30.3161 22.4936 31.5459C22.4998 32.627 22.7554 33.6921 23.2404 34.6583C23.7155 35.6189 24.4617 36.4191 25.3868 36.96C26.3266 37.5324 27.3977 37.8538 28.4974 37.8932L31.1736 41.0038H34.9383L31.1102 37.5826C32.3993 37.1958 33.5048 36.3555 34.2226 35.217ZM31.1102 34.4396C30.8272 34.7914 30.4666 35.0728 30.0565 35.2617C29.6464 35.4505 29.1981 35.5417 28.7468 35.5281C28.292 35.5431 27.8401 35.4493 27.4287 35.2546C27.0174 35.0599 26.6584 34.7698 26.3817 34.4085C25.7253 33.5098 25.4058 32.4088 25.4791 31.2983C25.4077 30.1875 25.7269 29.0866 26.3817 28.1864C26.6744 27.8253 27.0444 27.5345 27.4644 27.3354C27.8844 27.1363 28.3437 27.0339 28.8085 27.0357C29.263 27.0157 29.7152 27.1106 30.1233 27.3117C30.5313 27.5129 30.8821 27.8137 31.143 28.1864C31.7554 29.1041 32.0502 30.1972 31.9821 31.2983C32.0914 32.4173 31.7806 33.537 31.1102 34.4396Z" fill="url(#paint1_radial_125_53557)"/>
</g>
<defs>
<linearGradient id="paint0_linear_125_53557" x1="8.05778" y1="31.6089" x2="47.9422" y2="31.6089" gradientUnits="userSpaceOnUse">
<stop stop-color="#005BA1"/>
<stop offset="0.07" stop-color="#0060A9"/>
<stop offset="0.36" stop-color="#0071C8"/>
<stop offset="0.52" stop-color="#0078D4"/>
<stop offset="0.64" stop-color="#0074CD"/>
<stop offset="0.82" stop-color="#006ABB"/>
<stop offset="1" stop-color="#005BA1"/>
</linearGradient>
<radialGradient id="paint1_radial_125_53557" cx="0" cy="0" r="1" gradientUnits="userSpaceOnUse" gradientTransform="translate(22807.1 7342.32) scale(16498.3 4279.5)">
<stop stop-color="#F2F2F2"/>
<stop offset="0.58" stop-color="#EEEEEE"/>
<stop offset="1" stop-color="#E6E6E6"/>
</radialGradient>
</defs>
</svg>
