<svg preserveAspectRatio="none" width="100%" height="100%" overflow="visible" style="display: block;" viewBox="0 0 56 56" fill="none" xmlns="http://www.w3.org/2000/svg">
<g id="svelte" clip-path="url(#clip0_120_51968)">
<path id="path598" d="M48.3135 7.40947C43.1167 -0.0332831 32.8515 -2.23916 25.4322 2.49197L12.3978 10.8045C10.6345 11.9109 9.12145 13.373 7.95512 15.0981C6.78879 16.8232 5.99536 18.7727 5.62538 20.8219C5.46053 21.7415 5.37664 22.6794 5.37508 23.6202C5.38309 26.1712 6.00809 28.6825 7.19661 30.9395C6.0823 32.6335 5.32161 34.5358 4.96072 36.5317C4.59106 38.6177 4.64284 40.7799 5.1117 42.8369C5.58099 44.9076 6.45847 46.8637 7.69319 48.5909C12.8896 56.0332 23.1778 58.2391 30.5741 53.5084L43.5951 45.1955C45.3573 44.0877 46.8685 42.6238 48.032 40.897C49.195 39.1702 49.9844 37.219 50.3493 35.1688C50.5167 34.247 50.6007 33.3121 50.5996 32.375C50.5966 29.8287 49.9793 27.3214 48.8007 25.0648C49.9146 23.3721 50.6753 21.4716 51.0369 19.4775C51.1984 18.5548 51.2806 17.6203 51.2828 16.6836C51.2837 13.3608 50.2453 10.1211 48.3135 7.41822V7.40947Z" fill="var(--fill-0, #FF3E00)"/>
<path id="path600" d="M24.1583 49.2896C23.3022 49.5103 22.4291 49.6217 21.5535 49.6221C19.8819 49.6226 18.235 49.2175 16.754 48.4409C15.2733 47.6648 14.0026 46.5408 13.0509 45.1653C11.8889 43.5396 11.2646 41.5905 11.2657 39.5916C11.2664 39.0281 11.3152 38.4662 11.4112 37.9146C11.4894 37.4996 11.5947 37.0927 11.7259 36.6975L11.9719 35.9503L12.6365 36.456C14.1801 37.5896 15.9049 38.4528 17.7369 39.0084L18.22 39.1541L18.1746 39.6371V39.8878C18.1735 40.492 18.3616 41.0821 18.7119 41.5739C18.9949 41.993 19.3762 42.3369 19.8222 42.5749C20.279 42.8159 20.7724 42.9406 21.2712 42.9411C21.5345 42.9421 21.7972 42.9085 22.0545 42.8409C22.3336 42.7678 22.6033 42.6497 22.8563 42.49L35.8765 34.1364C36.2669 33.8888 36.5885 33.5462 36.8107 33.1406C37.0327 32.7351 37.1483 32.2796 37.1469 31.8168C37.1432 31.2126 36.9504 30.6246 36.5957 30.135C36.3083 29.7211 35.9249 29.3834 35.4785 29.1498C35.0215 28.9139 34.529 28.7933 34.0317 28.7954C33.7683 28.7945 33.5057 28.8282 33.2485 28.896C32.9705 28.9674 32.7024 29.0854 32.4517 29.2465L27.4877 32.4183C26.6524 32.9446 25.7627 33.3354 24.8419 33.5803C23.9906 33.8 23.1156 33.912 22.2367 33.9128C20.5654 33.9128 18.9193 33.5077 17.4386 32.7325C15.958 31.9572 14.6869 30.8346 13.7341 29.4608C12.5736 27.8342 11.9493 25.8856 11.9489 23.8871C11.9496 23.3249 11.9984 22.764 12.0945 22.2101C12.3175 20.9781 12.7933 19.8061 13.4929 18.7683C14.1921 17.7301 15.0994 16.849 16.157 16.181L29.191 7.87283C30.0088 7.35221 30.9009 6.95845 31.8369 6.70602C32.6882 6.4877 33.5631 6.37789 34.4417 6.37789C36.117 6.37352 37.7682 6.77602 39.254 7.55083C40.7397 8.32521 42.0152 9.44958 42.9716 10.826C44.1252 12.4565 44.7415 14.4065 44.7342 16.4041C44.7334 16.9692 44.6845 17.5327 44.5883 18.0858C44.5103 18.5007 44.4052 18.9075 44.274 19.3025L44.0281 20.0498L43.3634 19.5624C41.8209 18.4271 40.0958 17.5639 38.263 17.01L37.7799 16.86L37.8254 16.3765V16.1263C37.8254 15.5203 37.6376 14.9297 37.288 14.4353C37.001 14.0219 36.6187 13.6846 36.1726 13.451C35.7165 13.215 35.2249 13.094 34.7284 13.0953C34.4676 13.1009 34.2082 13.1407 33.9546 13.2138C33.6748 13.284 33.4049 13.4022 33.1531 13.5647L20.1191 21.8728C19.8099 22.0657 19.5365 22.3322 19.3154 22.656C19.1093 22.9582 18.965 23.3144 18.8942 23.6959C18.8621 23.8544 18.8422 24.016 18.8349 24.1789C18.8345 24.7818 19.0222 25.3698 19.3722 25.8606C19.6589 26.2741 20.0416 26.6118 20.4872 26.845C20.9434 27.081 21.4349 27.2019 21.9315 27.2003C22.1948 27.2012 22.4575 27.1675 22.7147 27.0996C22.9944 27.0288 23.2643 26.9108 23.5166 26.7492L28.4896 23.559C29.3247 23.0317 30.2145 22.6409 31.1355 22.397C31.9917 22.1765 32.8647 22.0651 33.7403 22.0645C35.4123 22.0645 37.0592 22.4691 38.5406 23.2444C40.022 24.0196 41.2942 25.1427 42.2477 26.5169C43.4082 28.1431 44.0324 30.0917 44.0328 32.0906C44.0341 32.659 43.9837 33.2264 43.8826 33.7855C43.661 35.018 43.1852 36.1905 42.486 37.2286C41.7864 38.2664 40.8787 39.1471 39.8201 39.8147L26.8089 48.1228C25.9725 48.6516 25.0809 49.044 24.1583 49.2896Z" fill="var(--fill-0, white)"/>
</g>
<defs>
<clipPath id="clip0_120_51968">
<rect width="56" height="56" fill="white"/>
</clipPath>
</defs>
</svg>
