<svg preserveAspectRatio="none" width="100%" height="100%" overflow="visible" style="display: block;" viewBox="0 0 56 56" fill="none" xmlns="http://www.w3.org/2000/svg">
<g id="swift">
<path id="Vector" d="M55.2694 14.9013C55.269 13.7507 55.1532 12.6031 54.9237 11.4756C54.6942 10.3215 54.3039 9.20518 53.7644 8.15938C53.2005 7.14641 52.4998 6.21599 51.6819 5.39438C50.8383 4.56899 49.8585 3.89554 48.7856 3.40375C47.7269 2.86987 46.5944 2.49681 45.4256 2.29688C44.2662 2.07375 42.9931 2.07375 41.8337 1.96438H13.2344C12.3422 1.9789 11.4521 2.05345 10.57 2.1875C9.69462 2.29055 8.83773 2.51435 8.02375 2.8525C7.79187 2.96188 7.44625 3.07563 7.21437 3.185C6.44427 3.59781 5.71224 4.07802 5.02687 4.62C4.795 4.84313 4.56312 4.9525 4.33125 5.17125C3.47859 5.96211 2.77343 6.89837 2.24875 7.93625C1.67577 8.96736 1.28364 10.089 1.08937 11.2525C0.916966 12.3879 0.801612 13.5312 0.74375 14.6781V41.0988C0.74411 42.2493 0.859898 43.3969 1.08937 44.5244C1.31897 45.6785 1.70922 46.7948 2.24875 47.8406C2.81259 48.8536 3.51335 49.784 4.33125 50.6056C5.17482 51.431 6.15464 52.1045 7.2275 52.5963C8.28627 53.1301 9.41872 53.5032 10.5875 53.7031C11.7469 53.9263 13.02 53.9263 14.1794 54.0356H41.8381C43.0431 54.0348 44.2454 53.9235 45.43 53.7031C46.5988 53.5032 47.7312 53.1301 48.79 52.5963C49.8399 52.065 50.814 51.3955 51.6862 50.6056C52.5389 49.8148 53.2441 48.8785 53.7687 47.8406C54.3417 46.8095 54.7339 45.6879 54.9281 44.5244C55.1005 43.389 55.2159 42.2457 55.2737 41.0988V14.9013H55.2694Z" fill="var(--fill-0, #F05138)"/>
<path id="Vector_2" d="M37.1875 42.2188C32.3269 44.9006 25.6462 45.1763 18.9219 42.4244C13.679 40.2971 9.1962 36.6435 6.055 31.9375C7.51482 33.055 9.10968 33.984 10.8019 34.7025C17.745 37.8087 24.6837 37.5944 29.5706 34.7025C22.6144 29.6012 16.7081 22.9688 12.3069 17.5525C11.4383 16.6372 10.6631 15.6376 9.9925 14.5688C15.3125 19.2106 23.7737 25.0688 26.7837 26.7269C22.4861 22.3234 18.5367 17.5929 14.9712 12.5781C20.8981 18.3377 27.4199 23.4516 34.4269 27.8338C34.7375 28 34.9781 28.14 35.1706 28.2713C35.376 27.7698 35.5528 27.2571 35.7 26.7356C37.3231 21.0963 35.4681 14.6869 31.4169 9.38C40.7969 14.7919 46.375 24.9594 44.0388 33.4731C43.9775 33.705 43.9119 33.9106 43.8419 34.1512L43.925 34.2475C48.5581 39.7731 47.285 45.6225 46.7031 44.5287C44.1875 39.8125 39.5369 41.2694 37.1875 42.2188Z" fill="var(--fill-0, #FEFEFE)"/>
</g>
</svg>
