<svg preserveAspectRatio="none" width="100%" height="100%" overflow="visible" style="display: block;" viewBox="0 0 56 56" fill="none" xmlns="http://www.w3.org/2000/svg">
<g id="typescript">
<g clip-path="url(#clip0_120_53329)">
<path id="Vector" d="M9.91813 20.5625H53.5237V52.7931H9.91813V20.5625Z" fill="var(--fill-0, white)"/>
<path id="original" d="M0.65625 27.9606V55.3044H55.3438V0.616875H0.65625V27.9606ZM44.7256 25.7731C46.0355 26.0771 47.2259 26.7621 48.1469 27.7419C48.6539 28.2697 49.0946 28.8574 49.4594 29.4919C49.4594 29.5619 47.0969 31.1587 45.6575 32.0512C45.605 32.0862 45.395 31.8587 45.1631 31.5131C44.9004 31.0597 44.527 30.6803 44.0779 30.4102C43.6289 30.1402 43.1187 29.9883 42.595 29.9687C40.9369 29.855 39.8694 30.7256 39.8781 32.1562C39.8644 32.5124 39.946 32.8658 40.1144 33.18C40.4775 33.9369 41.1556 34.3875 43.2819 35.3062C47.1975 36.9906 48.8731 38.1019 49.9144 39.6812C51.0781 41.4312 51.3363 44.2575 50.5488 46.3487C49.6738 48.6237 47.53 50.1681 44.4981 50.68C43.1134 50.8386 41.7142 50.8239 40.3331 50.6362C38.2163 50.2873 36.2665 49.271 34.7681 47.7356C34.265 47.18 33.285 45.7319 33.3463 45.6269C33.506 45.5083 33.6741 45.4016 33.8494 45.3075L35.875 44.1875L37.4456 43.2775L37.7737 43.7631C38.3275 44.5553 39.0322 45.2303 39.8475 45.7494C41.5975 46.6681 43.9862 46.5412 45.1675 45.4781C45.5641 45.0886 45.8115 44.5722 45.8667 44.019C45.9218 43.4659 45.7812 42.9108 45.4694 42.4506C45.0319 41.8425 44.1569 41.3306 41.7112 40.2631C38.8894 39.0469 37.6731 38.2944 36.5619 37.0956C35.8681 36.3046 35.356 35.3713 35.0612 34.3612C34.8414 33.2073 34.8089 32.0255 34.965 30.8612C35.5469 28.1356 37.59 26.2325 40.5737 25.6681C41.9556 25.4971 43.3553 25.5355 44.7256 25.7819V25.7731ZM31.8894 28.0656V30.3056H24.7887V50.5312H19.7531V30.3012H12.635V28.1138C12.6128 27.3594 12.6304 26.6044 12.6875 25.8519C12.7225 25.8125 17.0625 25.8125 22.3125 25.8125H31.8631L31.8894 28.0656Z" fill="var(--fill-0, #007ACC)"/>
</g>
</g>
<defs>
<clipPath id="clip0_120_53329">
<rect width="56" height="56" rx="5" fill="white"/>
</clipPath>
</defs>
</svg>
