<svg preserveAspectRatio="none" width="100%" height="100%" overflow="visible" style="display: block;" viewBox="0 0 56 56" fill="none" xmlns="http://www.w3.org/2000/svg">
<g id="vercel">
<path id="Vector" d="M7.58362 21.4322L7.39638 21.7573L0 34.5669H15.1681L7.58362 21.4322ZM7.5845 22.2981L14.4187 34.1351H0.749438L7.5845 22.2981ZM14.6676 22.6244L20.4505 32.6384L26.2321 22.624H23.7029L20.4488 28.2621L17.1951 22.6249L14.6676 22.6244ZM53.8116 22.6244V32.0316H56V22.6244H55.7839H53.8116ZM15.4166 23.0567H16.9444L20.4488 29.1261L23.9531 23.0567H25.4826L20.4505 31.7726L15.4166 23.0567ZM54.2439 23.0567H55.5669V31.5993H54.2439V23.0567ZM28.1417 24.7699C27.0178 24.7699 26.0339 25.1387 25.3321 25.7946C24.6308 26.4504 24.2178 27.3914 24.2178 28.4983C24.2178 30.7252 26.0868 32.2263 28.3369 32.2263C29.6949 32.2263 30.9072 31.6881 31.6632 30.7641L31.8237 30.5672L29.96 29.4901L29.8432 29.6183C29.4945 29.9998 28.9559 30.2308 28.3369 30.2308C27.6299 30.2308 27.0944 29.8839 26.7593 29.3952H31.9594L31.9935 29.2211C32.0409 28.9825 32.0649 28.7398 32.0652 28.4966C32.0652 27.3906 31.6531 26.4491 30.9518 25.7937C30.2505 25.1383 29.267 24.7699 28.1417 24.7699ZM41.643 24.7699C40.5186 24.7699 39.5356 25.1387 38.8342 25.7946C38.1325 26.4504 37.7186 27.3914 37.7186 28.4983C37.7186 29.6052 38.1321 30.5467 38.8334 31.2025C39.5347 31.8587 40.5177 32.2263 41.643 32.2263C43.1375 32.2263 44.3818 31.5687 45.0437 30.4653L45.1566 30.2763L43.2722 29.1896L43.1672 29.3895C42.8934 29.9145 42.3811 30.2326 41.643 30.2326C41.0974 30.2326 40.6713 30.0576 40.3756 29.7601C40.0803 29.463 39.9083 29.0364 39.9083 28.4983C39.9083 27.9602 40.0807 27.5341 40.3764 27.237C40.6722 26.9395 41.0983 26.7636 41.643 26.7636C42.3811 26.7636 42.8934 27.0817 43.1672 27.6071L43.2722 27.8079L45.1574 26.7199L45.0437 26.5313C44.38 25.4279 43.1375 24.7699 41.643 24.7699ZM49.1505 24.7699C48.0261 24.7699 47.0426 25.1387 46.3409 25.7946C45.6391 26.4504 45.2266 27.3914 45.2266 28.4983C45.2266 30.7252 47.0973 32.2263 49.3452 32.2263C50.7036 32.2263 51.9159 31.6881 52.6719 30.7641L52.8325 30.5672L50.9688 29.4901L50.8519 29.6183C50.5033 29.9998 49.9643 30.2308 49.3452 30.2308C48.6386 30.2308 48.1031 29.8839 47.768 29.3952H52.9668L53.0018 29.2211C53.0492 28.9825 53.0732 28.7398 53.0736 28.4966C53.0736 27.3906 52.6614 26.4491 51.9601 25.7937C51.2588 25.1383 50.2758 24.7699 49.1505 24.7699ZM32.8033 24.9646V32.0316H34.9913V28.9275C34.9913 27.8578 35.6917 27.1928 36.7259 27.1928C36.9228 27.1928 37.1088 27.2278 37.2903 27.2803L37.5668 27.3595V24.9646H37.3507C36.5986 24.9646 35.9144 25.1746 35.406 25.529C35.2345 25.6489 35.1177 25.809 34.9913 25.9608V24.9642L32.8033 24.9646ZM28.1417 25.2035C29.1729 25.2035 30.0427 25.5369 30.6556 26.11C31.269 26.6831 31.6326 27.4969 31.6326 28.4966C31.6326 28.6584 31.6081 28.8102 31.5853 28.9629H26.0006L26.1109 29.2561C26.4403 30.1289 27.3271 30.6644 28.3364 30.6644C28.9552 30.6671 29.5521 30.436 30.0077 30.0173L31.1093 30.6539C30.4382 31.3451 29.4744 31.794 28.3364 31.794C26.2749 31.794 24.6514 30.4859 24.6514 28.4983C24.6514 27.4977 25.0145 26.684 25.6279 26.1109C26.2412 25.5377 27.1119 25.2031 28.1417 25.2031V25.2035ZM41.643 25.2035C42.9205 25.2035 43.9285 25.7289 44.5318 26.5816L43.3899 27.2396C43.0163 26.6954 42.4196 26.3314 41.643 26.3314C41.0034 26.3314 40.453 26.5457 40.0697 26.9307C39.6861 27.3166 39.4747 27.8657 39.4747 28.4983C39.4747 29.1305 39.6852 29.6796 40.0689 30.0654C40.4521 30.4509 41.0021 30.6661 41.643 30.6661C42.4196 30.6661 43.0168 30.3017 43.3904 29.7579L44.5323 30.4159C43.9298 31.2677 42.9209 31.794 41.643 31.794C40.6118 31.794 39.7421 31.4597 39.1291 30.8866C38.5158 30.3135 38.1522 29.4984 38.1522 28.4979C38.1522 27.4977 38.5153 26.684 39.1291 26.1109C39.7421 25.5377 40.6127 25.2031 41.6426 25.2031L41.643 25.2035ZM49.1505 25.2035C50.1813 25.2035 51.051 25.5369 51.6644 26.11C52.2773 26.6831 52.64 27.4969 52.64 28.4966C52.64 28.6584 52.6155 28.8102 52.5932 28.9629H47.0089L47.1192 29.2561C47.4486 30.1289 48.3354 30.6644 49.3452 30.6644C49.9639 30.6671 50.5609 30.436 51.0164 30.0173L52.1172 30.6539C51.4461 31.3451 50.4827 31.794 49.3452 31.794C47.2854 31.794 45.6597 30.4859 45.6597 28.4983C45.6597 27.4977 46.0228 26.684 46.6366 26.1109C47.25 25.5377 48.1206 25.2031 49.1505 25.2031V25.2035ZM33.2356 25.3982H34.5581V26.9762H34.9913C34.9913 26.565 35.2292 26.1804 35.6527 25.8851C36.0277 25.6239 36.5557 25.4669 37.1337 25.4288V26.8227C36.9998 26.7973 36.8734 26.7601 36.7259 26.7601C35.4931 26.7601 34.5581 27.657 34.5581 28.9279V31.5993H33.2356V25.3982ZM28.1417 26.3314C27.1333 26.3314 26.3611 26.8892 26.0912 27.7506L26.0028 28.0315H30.2789L30.1914 27.7515C29.9241 26.8896 29.1519 26.3314 28.1417 26.3314ZM49.1505 26.3314C48.1399 26.3314 47.3694 26.8896 47.0995 27.7506L47.012 28.0315H51.2872L51.2002 27.7515C50.9324 26.8896 50.1603 26.3314 49.1505 26.3314ZM28.1417 26.7636C28.8536 26.7636 29.3055 27.1044 29.5816 27.5992H26.7028C26.9802 27.1049 27.4312 26.7636 28.1417 26.7636ZM49.1505 26.7636C49.8623 26.7636 50.3143 27.1044 50.5899 27.5992H47.7111C47.9885 27.1049 48.4387 26.7636 49.1505 26.7636Z" fill="var(--fill-0, black)"/>
</g>
</svg>
