<svg preserveAspectRatio="none" width="100%" height="100%" overflow="visible" style="display: block;" viewBox="0 0 126 150" fill="none" xmlns="http://www.w3.org/2000/svg">
<g id="Group 4">
<path id="Vector" d="M38.4436 50.9803C51.2577 54.4721 67.2516 34.992 76.7371 28.0272C75.8587 30.1203 73.8378 34.6903 72.5564 36.5511C70.9581 39.4712 69.0919 41.8124 66.856 44.2574C66.6435 44.4888 65.5341 45.6088 65.722 45.8503C74.1019 46.3633 83.5322 40.6779 87.8432 33.6579C88.439 32.6864 89.0164 31.6917 89.6467 30.7433C89.8543 32.2432 90.1111 33.3574 90.4894 34.8011C92.7487 41.9945 96.884 47.6549 103.691 51.1845C104.417 51.5579 105.156 51.909 105.904 52.2375C106.69 57.5788 107.911 62.7943 108.312 68.1943C109.172 79.7931 107.87 91.6453 106.148 103.11C105.35 108.436 104.561 113.916 102.615 118.969C101.093 122.921 98.6126 126.549 96.0965 129.933C92.8974 134.236 84.5236 143.928 80.1771 146.506C77.5185 148.082 74.6155 148.898 71.5736 149.344C63.8178 150.481 54.1093 149.894 47.6575 145.094C45.5191 143.504 43.5665 141.629 41.5162 139.924C29.8741 130.242 25.1649 123.987 22.4292 108.996C21.576 104.321 21.069 99.0101 18.8028 94.7688C18.8608 97.6294 19.0077 100.422 19.3643 103.262C19.4397 103.863 19.5277 104.544 19.5631 105.142C16.7556 105.176 14.4861 104.542 12.4128 102.493C8.05591 97.9735 6.5071 90.6923 6.25893 84.6172C6.15144 81.9863 6.65034 78.2034 8.38443 76.0986C9.053 75.287 10.3118 75.4651 10.9157 76.3155C14.1194 80.8257 16.1167 85.6645 20.4182 89.3366C18.6767 80.3203 20.4458 67.4538 21.0307 58.1795C21.0721 57.5224 22.624 54.5994 23.0293 53.725C23.8257 52.0209 24.4694 50.2494 24.9524 48.4314C25.088 47.8474 25.2159 46.9743 25.3229 46.364C28.0502 46.5286 30.8575 46.4901 33.5145 45.7744C39.3019 44.2156 44.4935 41.0642 48.5728 36.6748C47.7693 38.7886 45.8603 42.3876 44.5467 44.1527C43.5938 45.5823 42.5225 46.9293 41.3442 48.1792C40.9614 48.586 38.5005 50.8096 38.4436 50.9803Z" fill="var(--fill-0, #F4B788)"/>
<path id="Vector_2" d="M38.4437 50.9803C51.2577 54.4721 67.2516 34.992 76.7372 28.0272C75.8588 30.1203 73.8378 34.6903 72.5565 36.5511L72.2518 36.5074C70.7579 37.6492 69.1903 39.27 67.5907 40.5078C60.6099 45.9095 50.9305 53.591 41.5249 52.3907C40.314 52.2362 39.261 51.883 38.4437 50.9803Z" fill="var(--fill-0, #E89768)"/>
<path id="Vector_3" d="M65.7219 45.8503C74.1018 46.3633 83.5321 40.6779 87.8431 33.6579C88.4389 32.6864 89.0163 31.6917 89.6466 30.7433C89.8542 32.2432 90.111 33.3575 90.4894 34.8011C89.165 36.2077 88.203 38.0231 86.7263 39.5243C82.6009 43.7195 76.9852 46.8834 71.0231 47.2225C69.0918 47.3151 67.2945 47.0002 65.7219 45.8503Z" fill="var(--fill-0, #E89768)"/>
<path id="Vector_4" d="M48.5728 36.6748C47.7692 38.7886 45.8603 42.3876 44.5466 44.1527C43.9603 44.0231 42.1684 45.1669 41.4323 45.4759C40.3632 45.9248 39.3223 46.4823 38.1993 46.8212C35.2716 48.019 28.0989 49.0133 24.9524 48.4314C25.088 47.8474 25.2159 46.9742 25.3229 46.364C28.0502 46.5286 30.8575 46.4901 33.5145 45.7744C39.3019 44.2156 44.4934 41.0642 48.5728 36.6748Z" fill="var(--fill-0, #E89768)"/>
<path id="Vector_5" d="M73.0724 68.969C72.8316 68.7437 72.7407 68.5736 72.6669 68.255C71.5846 63.5692 76.4423 61.5416 80.209 60.8278C85.8836 59.7523 93.1099 59.7787 98.1727 62.9954C101.409 65.0503 102.539 68.0048 103.237 71.6016C100.428 69.4727 97.8287 68.229 94.4244 67.4434C92.8998 67.9904 91.5103 68.0013 89.9648 68.3738C87.6355 68.9348 85.488 69.8408 83.327 70.8399L83.3184 71.0286L83.4941 71.1374C80.4842 71.786 79.3355 72.0344 77.1106 74.2047C76.7138 74.0588 76.2309 74.3511 75.812 74.5252C73.9987 75.2787 72.1866 77.3547 71.603 79.2715C70.3659 83.3375 73.1424 89.9931 74.9422 93.7338C75.0675 93.9927 75.1584 94.1405 75.3525 94.3458L75.538 94.3362L75.57 93.9335C76.14 93.8504 76.9079 94.993 77.2359 95.4405C79.3158 98.2773 78.5455 101.649 75.8698 103.681C75.0196 106.151 72.436 107.842 70.2148 109.02C67.9702 110.211 65.1655 110.385 62.7538 109.622C60.7404 108.984 57.3104 106.604 56.7178 104.469C54.1403 103.995 51.6632 102.541 51.7766 99.5192C51.846 97.6705 53.257 96.3012 54.5633 95.1541C53.9747 97.2572 52.8959 99.5959 54.4641 101.49C56.3758 100.098 59.6261 100.641 61.8043 101.169C64.0819 101.73 65.1765 102.733 67.4837 101.52C72.1952 99.0442 71.7455 96.9602 70.361 92.3657C68.9113 87.5554 68.7762 82.1357 69.2725 77.1434C69.5059 74.7877 70.6411 72.6165 71.9851 70.7086C72.2566 70.3206 72.9385 69.3834 73.0724 68.969Z" fill="var(--fill-0, #E89768)"/>
<path id="Vector_6" d="M73.0725 68.969C72.8317 68.7437 72.7407 68.5736 72.667 68.255C71.5847 63.5692 76.4423 61.5416 80.209 60.8278C85.8837 59.7523 93.11 59.7787 98.1728 62.9954C101.409 65.0503 102.539 68.0048 103.237 71.6016C100.428 69.4727 97.8288 68.229 94.4245 67.4434C88.0447 66.362 82.488 66.6545 76.1782 68.1058C75.5566 68.2491 73.4582 68.6963 73.0725 68.969Z" fill="var(--fill-0, #38271A)"/>
<path id="Vector_7" d="M75.538 94.3361L75.57 93.9334C76.14 93.8503 76.9079 94.993 77.2359 95.4405C79.3158 98.2773 78.5455 101.649 75.8698 103.681C75.0196 106.151 72.436 107.842 70.2148 109.02C67.9702 110.211 65.1655 110.385 62.7538 109.622C60.7404 108.984 57.3104 106.604 56.7178 104.469C54.1403 103.995 51.6632 102.541 51.7766 99.5191C51.846 97.6705 53.257 96.3011 54.5633 95.154C53.9747 97.2572 52.8959 99.5958 54.4641 101.49C56.1522 102.818 57.8806 102.489 59.7611 103.194C62.3752 104.174 64.3632 106.412 67.3695 105.84C69.0256 105.525 70.216 104.148 71.6313 103.342C72.9434 102.607 75.0909 102.314 75.9042 100.942C77.0098 99.0796 75.9594 96.3044 75.538 94.3361Z" fill="var(--fill-0, #291E16)"/>
<path id="Vector_8" d="M56.7179 104.469C61.5699 105.13 64.7307 110.001 69.8476 106.879C70.7235 106.344 71.6203 105.58 72.4828 105.101C73.4668 104.554 74.8084 104.102 75.8699 103.681C75.0197 106.151 72.4361 107.842 70.2149 109.02C67.9703 110.211 65.1656 110.385 62.754 109.622C60.7405 108.984 57.3105 106.604 56.7179 104.469Z" fill="var(--fill-0, #E89768)"/>
<path id="Vector_9" d="M47.3177 117.211C45.866 115.96 44.5871 114.446 43.1504 113.218C42.3903 112.569 39.9979 112.406 40.6402 110.816C40.7595 110.521 41.2917 110.094 41.6113 110.155C42.8577 110.396 44.0537 110.988 45.2958 111.284C47.6324 111.931 50.1206 112.082 52.4945 112.41C63.0316 113.863 73.3673 113.11 83.8602 111.713C85.0237 111.558 87.7326 109.765 88.0705 111.767C88.1012 111.947 87.9894 112.443 87.7793 112.526C85.6687 113.471 84.3173 114.713 82.7447 116.316C82.2545 118.702 77.2581 123.12 75.328 124.309C67.7123 128.997 56.6659 128.194 50.4917 121.388C49.525 120.322 47.5997 118.669 47.3177 117.211Z" fill="var(--fill-0, #291E16)"/>
<path id="Vector_10" d="M47.3176 117.211C59.1832 126.423 71.2934 125.478 82.7447 116.316C82.2545 118.702 77.258 123.12 75.3279 124.309C67.7122 128.998 56.6658 128.194 50.4916 121.388C49.5249 120.322 47.5996 118.669 47.3176 117.211Z" fill="var(--fill-0, #E89768)"/>
<path id="Vector_11" d="M47.4109 113.882C54.5151 115.063 61.4159 115.731 68.63 115.434C72.8316 115.261 77.1118 114.761 81.2876 114.291C80.1709 115.48 79.408 116.031 78.0615 116.975C72.8549 120.322 68.1521 121.822 61.9002 121.168C57.0767 120.663 50.4414 117.737 47.4109 113.882Z" fill="var(--fill-0, white)"/>
<path id="Vector_12" d="M26.1765 70.8348C26.7529 68.3497 27.5263 65.9105 29.4022 64.052C34.3788 59.1213 42.867 59.403 49.2338 60.6127C53.0235 61.3327 57.8587 63.8713 55.576 68.5055C55.7088 68.9748 56.487 70.0729 56.744 70.6245C57.9307 73.1718 57.795 75.3404 57.498 78.0158C55.6033 76.2279 54.2041 73.8173 51.9868 72.3146C48.903 70.2246 43.113 66.9053 39.5277 66.6303C34.505 66.8781 30.3446 68.0358 26.1765 70.8348Z" fill="var(--fill-0, #38271A)"/>
<path id="Vector_13" d="M39.5278 66.6303C42.8266 66.2245 52.7613 67.082 55.5761 68.5055C55.709 68.9748 56.4871 70.0729 56.7441 70.6245C57.9308 73.1718 57.7951 75.3404 57.4981 78.0158C55.6034 76.2279 54.2042 73.8173 51.987 72.3146C48.9031 70.2246 43.1131 66.9053 39.5278 66.6303Z" fill="var(--fill-0, #E89768)"/>
<path id="Vector_14" d="M33.8986 76.578C33.283 76.9435 31.6207 77.9373 30.9702 77.5936C30.9614 77.4855 30.9416 77.3459 30.9835 77.2598C31.8318 75.5214 34.491 73.7174 36.023 72.9179C39.5389 71.0835 43.9498 70.3497 47.7386 71.517C51.023 72.5288 52.9217 75.1156 54.4325 78.0343C53.0933 77.4775 52.3364 76.9335 51.1281 76.1235C51.4817 77.1825 51.9389 78.2283 52.3695 79.2604C51.3652 79.306 50.7856 79.3652 49.8393 79.5068C49.2137 79.6004 46.8692 80.0874 46.4331 80.045C44.6917 81.2689 42.6705 81.0963 40.9007 80.0441C38.3455 80.2719 35.329 78.7007 33.8986 76.578Z" fill="var(--fill-0, #291E16)"/>
<path id="Vector_15" d="M45.8702 73.5007C47.5393 73.9253 49.9957 74.7223 51.1281 76.1235C51.4817 77.1824 51.9388 78.2282 52.3694 79.2604C51.3652 79.306 50.7856 79.3651 49.8393 79.5067C49.2137 79.6004 46.8692 80.0873 46.4331 80.0449C47.993 78.2738 48.1473 76.3185 46.6734 74.5153C46.3849 74.1623 46.0514 73.9247 45.8702 73.5007Z" fill="var(--fill-0, white)"/>
<path id="Vector_16" d="M43.3678 74.3687C43.8511 74.1643 44.409 74.385 44.622 74.8648C44.835 75.3447 44.6246 75.9069 44.149 76.1287C43.8335 76.2757 43.4634 76.241 43.1808 76.0377C42.8982 75.8345 42.7472 75.4945 42.7859 75.1484C42.8248 74.8025 43.0473 74.5043 43.3678 74.3687Z" fill="var(--fill-0, white)"/>
<path id="Vector_17" d="M41.3548 73.3725L41.4058 73.5364C39.3755 75.4806 38.8732 77.8423 40.9008 80.0441C38.3456 80.2719 35.3291 78.7007 33.8987 76.578C36.7866 74.504 37.919 73.8441 41.3548 73.3725Z" fill="var(--fill-0, white)"/>
<path id="Vector_18" d="M83.4941 71.1374C87.8825 70.7577 91.4637 71.0509 95.0928 73.9588C96.5683 75.1412 97.4553 76.5992 98.701 77.901C96.9847 77.5438 96.5265 77.2139 95.0915 76.2502C94.7512 77.4409 94.4269 77.8532 93.2819 78.4968C91.6787 79.3974 88.3014 79.9798 86.5126 79.9294C84.7239 81.2146 82.8749 80.9292 81.1427 79.753C79.9068 79.613 79.3515 79.4645 78.0148 79.4082C78.478 76.9096 79.5615 76.3398 80.8331 74.5127L80.9719 74.3115C78.7569 75.337 77.0492 77.1594 75.4165 77.7525L75.2715 77.6566C75.1916 76.6229 76.5148 74.9831 77.1106 74.2047C79.3355 72.0344 80.4842 71.786 83.4941 71.1374Z" fill="var(--fill-0, #291E16)"/>
<path id="Vector_19" d="M81.3847 74.1001C81.2864 74.3955 81.2409 74.4276 81.0751 74.6654C79.7998 76.4997 79.946 77.849 81.1426 79.753C79.9067 79.613 79.3514 79.4645 78.0148 79.4082C78.4779 76.9096 79.5615 76.3398 80.833 74.5127L80.9719 74.3115L81.3847 74.1001Z" fill="var(--fill-0, white)"/>
<path id="Vector_20" d="M83.7533 74.8732C84.0728 74.7823 84.4168 74.8711 84.6514 75.1051C84.8873 75.3392 84.9794 75.6824 84.891 76.0028C84.8025 76.323 84.5482 76.5707 84.2251 76.6507C83.7386 76.7713 83.2447 76.4792 83.1157 75.9942C82.988 75.5092 83.2705 75.0104 83.7533 74.8732Z" fill="var(--fill-0, white)"/>
<path id="Vector_21" d="M89.6331 73.6088C91.7278 74.2193 93.3347 74.9023 95.0915 76.2502C94.7512 77.4409 94.4269 77.8532 93.2819 78.4968C91.6786 79.3974 88.3014 79.9798 86.5126 79.9294C88.0987 78.1052 88.0323 75.9298 86.375 74.1894C87.0544 73.9443 88.3911 74.0301 89.6331 73.6088Z" fill="var(--fill-0, white)"/>
<path id="Vector_22" d="M84.5899 73.3969C86.3861 73.2716 87.8714 73.1775 89.6331 73.6088C88.391 74.0301 87.0544 73.9443 86.375 74.1894C85.8185 73.859 85.1931 73.638 84.5899 73.3969Z" fill="var(--fill-0, white)"/>
<path id="Vector_23" d="M9.33011 80.7909C9.5838 80.7737 10.1674 80.7379 10.4188 80.9067C12.242 82.1303 15.2294 84.6094 16.1403 86.5787C16.5415 87.4461 14.933 87.7699 14.4525 89.0531C13.3619 91.9649 14.4103 95.2655 15.3498 97.9412C15.1544 97.8589 14.9691 97.7544 14.7976 97.6295C11.1398 94.9907 11.2257 89.5667 13.7769 86.1799C13.0504 85.4418 8.99066 81.6598 8.96499 81.0723L9.33011 80.7909Z" fill="var(--fill-0, #291E16)"/>
<path id="Vector_24" d="M46.8877 98.7459C46.9522 100.057 41.9938 103.908 40.8175 104.809C38.998 106.203 37.0441 107.543 36.106 109.732C35.2803 111.659 36.1248 113.401 36.867 115.182C36.5553 114.965 36.2662 114.745 35.9641 114.514C34.6369 113.454 34.1272 112.546 34.0725 110.859C33.9037 106.897 38.086 105.126 40.821 103.099C42.6417 101.75 44.9058 99.7671 46.8877 98.7459Z" fill="var(--fill-0, #E89768)"/>
<path id="Vector_25" d="M64.3853 129.653C65.4542 129.535 71.4065 129.266 71.6215 130.464C71.0195 131.294 67.0894 131.926 65.9947 132.007C64.6016 132.142 59.5497 131.788 58.7328 130.735L58.7885 130.507C59.8336 129.773 63.0241 129.738 64.3853 129.653Z" fill="var(--fill-0, #E89768)"/>
<path id="Vector_26" d="M84.1059 100.991C84.4622 101.076 85.0703 101.304 85.3971 101.497C91.0386 104.843 96.0633 107.971 92.4563 115.037C92.3298 115.2 92.1676 115.356 92.0227 115.504L91.8101 115.483C91.6922 115.062 92.1308 112.78 92.1983 112.194C92.675 108.075 90.2843 106.514 87.4426 104.277C86.4365 103.485 85.0015 102.107 84.171 101.072L84.1059 100.991Z" fill="var(--fill-0, #E89768)"/>
<path id="Vector_27" d="M78.0529 81.7685C78.8404 81.9697 80.0529 82.4407 80.9055 82.6975C83.139 83.3795 85.4512 83.7761 87.7854 83.8779C88.6527 83.9209 92.2966 83.4688 92.659 83.9202C92.5177 84.2749 92.2745 84.3496 91.9329 84.5419C87.7473 86.2292 80.7569 85.8639 78.0529 81.7685Z" fill="var(--fill-0, #E89768)"/>
<path id="Vector_28" d="M50.5862 82.3064L50.8255 82.2963L50.8742 82.4579C50.2737 83.2133 48.8369 83.8751 47.9675 84.2853C45.2125 85.5852 41.2024 85.699 38.3422 84.6302C37.8351 84.3669 37.2478 84.1481 37.0739 83.6203C37.3817 83.3596 39.5456 83.515 40.1125 83.5563C43.7811 83.8237 47.0144 83.0832 50.5862 82.3064Z" fill="var(--fill-0, #E89768)"/>
<path id="Vector_29" d="M2.30247 24.1394C9.99069 23.9976 16.3392 18.7024 22.2277 14.3699C24.2818 12.8662 26.3863 11.433 28.5379 10.0726C47.2125 -1.69943 68.915 -3.61936 88.6429 6.79359C95.5817 10.4555 99.9098 13.4416 102.43 21.2544C108.223 22.0086 113.238 24.0306 117.447 28.2388C121.74 32.5305 124.428 38.9716 125.167 44.9449C125.343 46.3586 125.323 47.8617 125.323 49.2926C125.311 54.4569 124.097 58.3494 122.417 63.0999C122.065 59.6467 121.725 58.4518 120.684 55.1295C119.876 64.9235 116.264 72.9593 111.483 81.4061C111.117 82.0536 110.768 82.7773 110.43 83.445C110.785 80.9848 110.602 78.4799 110.698 76.0275C111.022 67.799 109.801 60.8743 107.973 52.8893C110.04 53.4456 110.449 53.3424 112.518 52.8433C109.981 50.2569 108.152 48.1956 106.141 45.1336C105.441 44.0664 103.626 40.4066 103.027 39.8133C103.459 42.7339 104.05 45.629 104.797 48.4855L104.613 48.5298L104.291 48.3036C98.2538 45.5552 93.6308 38.4069 91.8592 32.2315C91.3371 30.4102 91.1565 28.4556 90.8162 26.5934C89.4033 28.1891 88.3874 30.1858 87.0151 31.8633C82.413 37.4891 76.2076 42.0982 69.1435 44.0305C73.5933 37.7814 76.9324 32.6007 78.715 24.9128C77.5074 25.722 76.3562 26.7225 75.1424 27.5168C65.824 33.617 58.3403 42.4108 48.3913 47.5171C47.0436 48.2089 44.8692 48.6985 43.3968 49.0088C43.8178 48.3434 44.007 48.0483 44.5245 47.4452C49.5548 40.0212 51.0285 35.2603 52.5676 26.6144C52.3035 27.0955 52.1207 27.3759 51.8046 27.8255C51.0958 29.2104 49.8979 30.6388 48.9996 31.9029C45.273 37.1467 41.0372 40.5269 34.9357 42.6308C34.3664 42.8271 33.0403 43.2129 32.446 43.2222C27.2356 44.729 20.2066 43.7838 15.971 40.2685C21.5729 40.075 25.114 37.9956 28.9435 34.1003C22.6276 36.989 19.0189 38.2383 11.9 38.538L13.1719 40.1855C9.80862 44.3946 7.31836 49.2328 5.84694 54.4169C5.49803 55.6293 5.22739 58.1699 4.92111 58.9589C3.57156 52.5432 4.50869 47.7895 7.05202 41.9785C4.34689 43.9678 1.80541 47.209 0.20253 50.1528C0.143929 49.5824 0.0936801 49.0111 0.0519097 48.4392C-0.480909 40.6723 3.13972 34.7135 8.62983 29.5056C9.87815 28.3214 11.1066 27.0447 12.2365 25.7464C7.77771 27.7041 5.76979 27.6634 2.30247 24.1394Z" fill="var(--fill-0, #95582A)"/>
<path id="Vector_30" d="M69.1902 9.37456C77.6045 8.12126 86.9795 10.7582 93.8089 15.7731C97.1395 18.219 98.9541 20.505 101.217 23.8563C99.3324 24.5366 95.9183 25.9025 94.3114 27.0201C95.0878 33.8455 98.357 39.3541 101.915 45.0789C102.43 45.9078 104.073 47.7153 104.291 48.3036C98.2538 45.5552 93.6308 38.4069 91.8592 32.2315C91.3371 30.4102 91.1565 28.4556 90.8162 26.5934C89.4034 28.1891 88.3874 30.1858 87.0151 31.8633C82.413 37.4891 76.2076 42.0982 69.1435 44.0305C73.5933 37.7814 76.9324 32.6007 78.7151 24.9128C77.5074 25.722 76.3563 26.7225 75.1425 27.5168C65.824 33.617 58.3403 42.4109 48.3913 47.5171C47.0436 48.2089 44.8692 48.6985 43.3968 49.0088C43.8179 48.3434 44.0071 48.0483 44.5245 47.4452C46.2351 47.1599 52.9679 39.921 54.3192 38.1046C56.1261 35.6757 58.0495 32.7347 60.0006 30.3676C63.6961 25.852 68.5083 22.3828 73.9582 20.305C77.7949 18.8512 81.0874 18.1264 85.1649 18.5047C81.3392 13.1873 75.1326 11.1093 69.1902 9.37456Z" fill="var(--fill-0, #6A411D)"/>
<path id="Vector_31" d="M114.452 32.9761C118.302 36.6099 121.177 39.9505 123.478 44.789C124.007 45.8994 124.878 48.5231 125.324 49.2926C125.311 54.4569 124.097 58.3494 122.417 63.0999C122.065 59.6467 121.725 58.4518 120.685 55.1295C119.876 64.9234 116.264 72.9593 111.483 81.4061C111.117 82.0535 110.768 82.7773 110.43 83.445C110.785 80.9848 110.602 78.4799 110.698 76.0275C111.022 67.799 109.801 60.8743 107.973 52.8893C110.04 53.4456 110.45 53.3424 112.518 52.8433C109.981 50.2569 108.152 48.1956 106.141 45.1336C105.441 44.0664 103.626 40.4065 103.027 39.8133C102.75 39.1981 102.259 34.7233 102.118 33.693C103.819 35.8611 105.613 37.9545 107.495 39.9675C111.126 43.8301 113.64 46.0784 116.639 50.5623C116.962 44.6167 116.222 38.661 114.452 32.9761Z" fill="var(--fill-0, #6A411D)"/>
<path id="Vector_32" d="M32.4459 43.2222C35.7055 40.8028 39.2052 39.0218 42.6303 36.227C44.2351 34.9401 45.7826 33.583 47.2679 32.1597C48.1382 31.3149 51.0221 28.3129 51.8045 27.8255C51.0958 29.2104 49.8978 30.6388 48.9995 31.9029C45.273 37.1467 41.0371 40.5269 34.9357 42.6308C34.3664 42.8271 33.0403 43.2129 32.4459 43.2222Z" fill="var(--fill-0, #6A411D)"/>
<path id="Vector_33" d="M41.6496 16.0052L41.825 16.0636C41.4697 17.4237 35.0709 22.434 33.5225 23.3411C29.8588 25.4875 24.988 26.8791 20.7752 25.8193C20.4187 25.692 20.4043 25.6687 20.0859 25.4532L20.054 25.2505C20.6554 24.8732 22.1533 24.3458 22.9134 24.1018C29.4177 22.0141 35.2871 18.3677 41.6496 16.0052Z" fill="var(--fill-0, #6A411D)"/>
<path id="Vector_34" d="M60.013 16.0765L59.9395 16.2466C55.7816 18.1132 52.9373 20.416 49.1534 22.8093C45.0911 25.379 39.0956 27.4835 34.2406 27.2036L34.2395 27.0579C34.5779 26.7576 38.6173 25.0317 39.2851 24.7507C44.3327 22.6268 49.0482 19.6041 54.1413 17.6361C56.0318 16.8907 58.0021 16.3674 60.013 16.0765Z" fill="var(--fill-0, #6A411D)"/>
<path id="Vector_35" d="M13.1719 40.1855C16.0713 43.8155 18.845 45.0904 23.3233 46.0557C21.4069 53.0662 17.5543 58.8917 13.2212 64.5754C15.5038 63.2422 16.6424 62.5356 18.5599 60.6862C18.3288 62.0347 18.165 64.4452 18.0664 65.8375C17.7213 70.7092 17.1751 77.9487 17.8328 82.7358C16.2282 80.526 14.8591 77.7451 13.1549 75.4707C12.2577 74.2734 10.5321 73.2656 10.144 72.687C7.87193 69.3004 5.4904 62.8282 4.92109 58.9589C5.22737 58.1699 5.49802 55.6293 5.84692 54.4169C7.31835 49.2328 9.8086 44.3946 13.1719 40.1855Z" fill="var(--fill-0, #6A411D)"/>
<path id="Vector_36" d="M116.681 76.695C118.449 77.9344 117.458 87.0984 117.025 89.3265C115.806 95.5881 114.383 101.408 108.967 105.309C108.555 105.571 108.592 105.643 108.187 105.642C108.07 105.369 108.653 101.383 108.721 100.823C108.984 98.7266 109.227 96.6278 109.449 94.5267C109.555 93.4846 109.953 88.0379 110.215 87.6618C112.367 84.573 114.925 79.8736 116.681 76.695Z" fill="var(--fill-0, #E89768)"/>
</g>
</svg>
