<svg preserveAspectRatio="none" width="100%" height="100%" overflow="visible" style="display: block;" viewBox="0 0 97 40" fill="none" xmlns="http://www.w3.org/2000/svg">
<path id="Vector" d="M4.92346 0C11.8746 1.17535 20.9566 1.09168 28.0902 1.0118L31.1293 3.9216L33.7262 6.03268C32.5753 6.86569 31.5229 7.39438 31.0681 8.66863L31.2001 9.52827C33.2681 10.4488 34.3563 9.17454 35.9695 7.83183L40.736 11.6964C39.8223 12.7729 39.0223 13.4651 38.936 14.8839L39.2539 15.6865C41.2656 16.0631 41.8302 14.804 43.0644 13.351L48.8107 17.6073C47.8598 18.7903 46.7165 19.9352 46.529 21.4149L46.767 22.3886C48.9172 23.0467 49.8818 20.6656 50.9742 19.03C53.1281 20.4488 55.4965 22.0843 57.6881 23.3966C55.5166 26.2152 55.117 27.1091 53.868 30.4411L54.114 30.2395C55.6672 28.9577 57.531 26.9797 59.0983 25.4925C63.3678 21.4377 70.214 18.9463 76.0823 19.4674C81.6195 19.958 90.6258 25.5229 94.0968 29.8743C95.2724 31.354 96.1564 33.0428 96.7024 34.8496C85.946 41.3083 60.0732 40.8709 47.9031 37.8583C39.9869 35.8994 30.6716 31.7039 22.9082 28.874C15.1035 26.0326 7.31923 24.1992 0 20.2586C0.516338 12.8413 1.1338 7.80519 2.4178 0.406977C5.19949 3.05816 12.021 7.28789 15.9806 5.59144L16.3779 4.99808C10.7762 2.97831 10.1127 3.3815 4.92346 0Z" fill="var(--fill-0, #EBDBC4)"/>
</svg>
