<svg preserveAspectRatio="none" width="100%" height="100%" overflow="visible" style="display: block;" viewBox="0 0 98 26" fill="none" xmlns="http://www.w3.org/2000/svg">
<path id="Vector" d="M0.0372323 0C6.18044 2.35069 15.3266 4.93722 21.6904 7.13196C26.5298 8.80179 43.1363 16.2342 47.0986 16.1087C48.6909 14.534 47.31 14.0661 48.5521 12.5713C50.8209 12.887 53.3794 13.5678 55.5546 13.9102C66.1445 15.5724 88.8197 15.774 97.7743 9.5207L97.975 16.7325C98.0397 23.6134 78.7005 24.61 73.5463 24.9676C54.2417 26.3027 36.3509 17.596 18.5304 11.5024C13.2506 9.69566 4.51432 8.34532 0.512507 4.6367C-0.167326 3.2978 0.0182213 1.5367 0.0372323 0Z" fill="var(--fill-0, #EBDBC4)"/>
</svg>
