<svg preserveAspectRatio="none" width="100%" height="100%" overflow="visible" style="display: block;" viewBox="0 0 24 19" fill="none" xmlns="http://www.w3.org/2000/svg">
<path id="Vector" d="M0 18.7238C0.36069 15.2922 0.154035 10.0316 1.68216 6.91795C2.76339 4.71356 4.12352 2.13011 6.34039 0.846775C6.75798 0.605262 12.8561 -0.204859 13.5541 0.0484919C14.252 0.301843 17.7819 0.625116 19.2373 1.07341C20.1462 1.35339 22.9361 2.46826 23.491 2.61901L20.2843 4.22117C20.2843 4.22117 18.134 3.97524 16.758 4.05907C14.5755 4.19202 13.2133 4.26728 11.3074 5.33927C9.80061 6.18676 9.13049 6.97921 8.01988 8.30432C7.47283 8.95703 6.73666 10.0677 6.73666 10.0677L6.33534 11.2702C6.06335 11.4967 6.02405 12.2937 5.74621 12.5983L2.83726 15.8446C1.68991 17.1034 0.95403 17.4145 0 18.7238Z" fill="var(--fill-0, #2F231A)"/>
</svg>
