<svg preserveAspectRatio="none" width="100%" height="100%" overflow="visible" style="display: block;" viewBox="0 0 78 21" fill="none" xmlns="http://www.w3.org/2000/svg">
<path id="Vector" d="M54.5402 0C60.8758 1.0232 70.6547 1.46445 77.0987 1.73071C77.6827 2.68924 77.4831 3.04298 77.4926 4.28679C71.3152 4.25636 66.0605 3.86836 59.9158 3.45756C59.6333 6.80102 59.19 17.3829 57.0524 19.049C53.5175 21.8029 37.4783 19.4598 33.4764 18.992C25.4785 18.0562 7.06715 13.6097 0 9.96951L0.228888 9.10987C1.19351 8.7257 7.53709 10.5477 9.0036 11.0992C15.2282 13.4309 47.8457 17.9421 52.9057 15.4925C54.2186 13.9178 54.3148 3.03917 54.5402 0Z" fill="var(--fill-0, #1B3747)"/>
</svg>
