<svg preserveAspectRatio="none" width="100%" height="100%" overflow="visible" style="display: block;" viewBox="0 0 58 204" fill="none" xmlns="http://www.w3.org/2000/svg">
<path id="Vector" d="M5.12081 11.8725C3.4775 8.42977 1.1726 3.49029 0 0C7.01315 6.67665 16.0593 10.8117 25.6953 11.7455C38.157 12.9136 48.0971 9.12929 57.555 1.25104L55.3817 11.9227C55.314 12.4625 55.1235 14.3453 54.9574 14.7314C50.1381 45.1329 51.8833 76.3625 53.3171 107.116C54.5136 131.705 55.544 156.302 56.4087 180.905C56.4942 182.18 56.6041 183.416 56.5722 184.696C56.6664 189.622 56.625 196.001 56.9231 200.809C43.5355 203.255 30.6336 204.015 17.0738 202.079L11.4446 201.338C11.9632 197.078 12.0089 189.584 12.1613 185.1L13.1176 149.806C14.1677 114.205 15.3578 79.6733 15.2267 44.0588C14.2932 32.0341 11.0633 25.3685 6.328 14.4944C5.97554 13.8554 5.44666 12.5857 5.12081 11.8725Z" fill="var(--fill-0, #BC3601)"/>
</svg>
