<svg preserveAspectRatio="none" width="100%" height="100%" overflow="visible" style="display: block;" viewBox="0 0 25 225" fill="none" xmlns="http://www.w3.org/2000/svg">
<path id="Vector" d="M0 6.35984C8.82186 6.32561 16.8285 3.43095 24.877 0C23.2611 2.88702 9.10436 10.4108 4.94095 13.6896C6.22382 44.8952 11.075 75.6444 13.7362 106.687C15.7921 130.669 16.1426 156.013 16.8205 180.094L17.6262 205.701C17.8734 211.722 18.3597 218.592 18.3015 224.529C16.4099 224.244 14.2054 223.776 12.2963 223.419C12.2039 206.561 10.7473 189.178 10.4249 172.171C9.93477 146.298 9.70625 119.684 7.14014 93.9859C4.24971 65.0359 0.564626 35.3936 0 6.35984Z" fill="var(--fill-0, #1B3747)"/>
</svg>
