<svg preserveAspectRatio="none" width="100%" height="100%" overflow="visible" style="display: block;" viewBox="0 0 36 68" fill="none" xmlns="http://www.w3.org/2000/svg">
<path id="Vector" d="M8.26387 3.16929C8.72469 1.97493 8.75778 1.2028 9.67068 0.674083C14.763 1.11151 19.5879 1.68586 24.7008 1.38157C27.0277 1.24463 31.4717 -0.200802 33.2534 0.0236168C33.7789 1.14952 33.7059 1.7087 33.7508 2.96012C35.6507 18.0228 38.8138 43.5038 27.83 55.5198C29.2208 52.454 35.4329 35.5693 32.1721 33.9794C31.5919 34.896 31.5284 37.6956 31.2976 39.0763C30.6767 42.7659 29.6531 46.3719 28.2455 49.8371C24.4445 59.0649 19.4461 63.8537 10.4034 67.6346C19.194 60.1489 26.8026 48.4259 25.927 36.4594L25.5985 36.4936C24.9255 37.9656 24.557 41.0923 24.3551 42.8344C23.6586 48.8405 11.9782 68.711 4.77155 67.1173C1.0203 64.177 5.63313 59.0116 7.73689 56.4669C13.6189 49.4186 15.8249 40.0159 14.9006 30.9935C14.4865 26.9539 14.9903 26.5355 16.4295 22.804C9.7703 30.0159 11.003 39.936 3.52138 46.8549C2.64079 47.6689 2.28301 47.783 1.29633 47.6994C-0.742784 46.2235 0.107764 40.0159 0.617258 37.863C2.5655 29.6317 1.92141 20.8033 3.60959 12.652C4.07307 10.4154 7.1042 5.55422 8.26387 3.16929Z" fill="var(--fill-0, #F4B788)"/>
</svg>
