<svg preserveAspectRatio="none" width="100%" height="100%" overflow="visible" style="display: block;" viewBox="0 0 45 260" fill="none" xmlns="http://www.w3.org/2000/svg">
<path id="Vector" d="M0 7.9688C14.721 7.73297 29.2997 5.03992 43.1344 0C43.4975 25.3479 44.6853 51.2626 44.0351 76.622C43.4507 99.4252 41.7352 122.864 40.6573 145.747C39.663 169.76 38.9094 193.776 38.3969 217.8C37.9779 231.429 37.7022 245.062 37.5707 258.698L33.0852 259.805C33.9647 254.316 34.0008 243.826 34.0255 238.09C34.2232 191.772 37.452 145.488 38.2649 99.2198C38.8391 67.474 38.2353 35.7169 36.4551 4.01674C27.6066 7.14339 15.3468 10.6618 5.91736 10.5895C3.24137 10.502 3.50562 10.445 2.34785 8.2883L0 7.9688Z" fill="var(--fill-0, #1B3747)"/>
</svg>
