<svg preserveAspectRatio="none" width="100%" height="100%" overflow="visible" style="display: block;" viewBox="0 0 81 108" fill="none" xmlns="http://www.w3.org/2000/svg">
<path id="Vector" d="M27.7489 92.3835L23.96 87.2215C15.9742 76.1436 14.3245 66.2946 10.8409 53.3639C9.21012 47.3095 -4.34472 28.2054 1.41828 24.8342C5.91551 24.7805 14.5035 42.5336 16.7757 46.3578C18.6772 49.5587 17.7875 48.9691 17.1168 51.2783C20.4475 50.4552 32.5149 40.399 37.5684 39.5119C39.0475 39.2521 44.6261 37.4104 45.926 36.7162L45.0086 36.3879C44.2401 35.3339 43.9903 14.1621 43.1466 11.0898C42.5333 8.85744 42.2991 2.51476 43.855 0.280078C46.5424 -1.14631 49.4659 3.2348 49.9933 5.33141C52.6316 15.8232 52.8479 26.849 55.1726 37.4465C56.2737 42.4678 57.9011 46.6686 59.8094 51.4396C54.9794 53.8633 51.4849 54.8413 47.9948 59.2985C42.3554 66.5004 41.4931 72.0861 42.3797 80.7308C43.6299 76.9648 43.2493 72.6461 45.0128 68.6579C46.3793 65.5681 47.2477 63.8815 49.1647 61.0432C53.0312 55.2627 60.4949 55.637 64.6842 50.3917C68.8696 45.1509 71.7156 32.9399 80.3553 34.0099L80.8922 34.7664C81.3663 38.2171 76.0318 49.6492 74.5224 54.3091C71.1586 68.1976 67.6716 77.0131 57.4368 87.6304C57.9478 92.0351 57.5604 100.358 57.3984 105.038C56.3136 105.471 54.6274 106.206 53.5593 106.523C44.6839 109.226 34.3788 107.883 25.9189 104.366C26.4284 100.031 26.9128 96.6608 27.7489 92.3835Z" fill="var(--fill-0, #F4B788)"/>
</svg>
