<svg preserveAspectRatio="none" width="100%" height="100%" overflow="visible" style="display: block;" viewBox="0 0 317 721" fill="none" xmlns="http://www.w3.org/2000/svg">
<path id="Vector" d="M118.32 22.84C131.353 23.6319 135.675 18.4695 146.195 11.6844C152.096 7.87868 158.611 4.42339 165.365 2.36688C176.953 -1.04044 190.306 -0.63052 201.868 2.70868C213.172 5.97348 221.405 10.2372 228.119 20.2721C231.245 21.2078 235.367 22.4714 237.946 24.3854C255.691 37.5531 254.363 60.8375 241.183 76.1714C245.629 85.1649 242.801 108.109 230.386 110.093C229.618 114.83 228.595 119.126 226.561 123.519C222.96 131.296 220.254 131.299 220.043 139.948C225.472 143.976 230.647 148.144 233.545 154.43C243.9 158.722 279.03 171.921 285.086 179.848C306.746 208.945 303.432 251.287 310.192 285.55C316.477 317.402 316.146 349.13 316.055 381.383C316.043 386.773 316.606 387.671 311.597 390.056C313.035 406.404 317.902 432.741 307.229 446.081C305.629 448.051 303.56 449.561 301.674 451.227C296.102 456.157 291.427 460.801 283.552 461.406C279.258 461.737 275.815 460.611 275.993 455.388C276.109 451.965 277.346 445.921 279.572 443.232C280.781 441.98 282.683 441.41 284.27 441.094C287.337 434.704 287.859 432.285 288.737 425.293C287.049 430.021 284.807 438.108 280.015 440.231C273.958 442.912 272.072 439.112 272.721 433.719C273.313 428.804 274.072 424.381 274.724 419.504C275.571 413.148 274.848 405.746 277.515 399.854C278.892 396.811 280.912 394.213 282.152 391.087C272.194 387.127 274.537 385.583 272.995 376.218C271.569 367.557 271.475 355.529 269.22 347.326C269.369 353.362 270.933 375.161 267.347 379.048C265.92 380.596 263.892 381.501 262.008 382.353C262.642 409.021 263.663 436.237 262.979 462.867C262.466 482.832 260.961 503.361 259.959 523.391C259.044 544.452 258.316 565.517 257.777 586.59C257.39 599.564 256.616 627.057 256.479 641.245C256.479 641.249 258.106 642.93 258.109 642.938C259.087 646.019 258.487 651.694 258.421 654.764C258.36 657.609 257.403 659.53 255.757 661.439C261.008 666.023 267.268 671.736 272.957 675.304C284.895 682.793 305.17 686.57 305.729 703.801C305.831 706.916 306.309 710.77 303.847 713.227C298.503 718.556 285.397 719.05 278.306 719.659C271.891 720.21 263.907 717.528 258.421 717.345C245.536 715.57 200.681 698.834 200.681 698.834C200.681 698.834 200.803 682.63 202.734 672.496C203.323 669.405 205.269 663.367 205.269 663.367L201.721 659.918L200.454 643.952L202.734 640.545C202.734 640.545 201.639 574 198.426 531.505C195.898 498.06 189.53 446.081 189.53 446.081C189.53 446.081 180.898 497.726 177.899 531.505C174.325 571.772 171.057 641.245 171.057 641.245L173.084 643.952L170.55 659.918C169.38 661.822 168.016 663.367 168.016 663.367C168.016 663.367 169.263 669.322 169.764 674.038C170.619 682.092 170.27 698.834 170.27 698.834C167.047 698.468 127.166 719.898 124.577 718.438C115.273 721.192 89.9744 722.169 82.5567 713.459C80.9001 711.511 80.8689 706.369 80.9776 703.805C81.5442 690.45 96.6898 685.947 105.036 678.096C110.5 673.029 114.521 667.396 119.018 661.466C118.622 661.025 118.252 660.644 117.845 660.252C114.158 656.681 115.092 648.05 115.205 642.934L117.443 640.507C116.947 606.069 116.102 571.637 114.911 537.214C113.972 513.654 111.639 489.835 110.915 465.936C110.069 437.952 110.329 411.745 110.742 383.825C107.792 382.791 103.635 381.566 101.475 379.326C100.264 378.07 100.188 376.591 100.13 374.902C99.9141 368.603 100.114 362.186 100.259 355.89L100.972 327.094C101.428 304.498 101.712 281.899 101.825 259.298C97.5305 264.287 92.7169 268.803 87.465 272.77C75.5998 281.838 57.3953 291.565 42.0302 289.409C35.6707 288.575 29.9308 285.169 26.1507 279.985C10.6548 258.946 19.3003 210.483 21.2797 185.746C21.9432 177.455 30.3225 179.438 26.9765 173.494C24.5063 169.104 20.3813 164.424 18.3615 159.563C13.8601 143.055 8.8739 128.755 1.08395 113.412C0.582062 112.422 -0.303851 108.482 0.104505 107.604C5.64697 95.6825 16.6056 116.504 19.5132 121.465C18.3383 118.497 2.89152 84.7667 17.7197 89.1272C22.485 90.5285 25.2701 104.686 28.2704 108.851C26.8739 100.679 23.7903 92.7389 23.7926 84.3848C23.7846 81.384 24.3291 77.9306 27.8883 77.4407C34.3616 76.5499 36.8273 85.0439 37.7444 89.9378C39.0702 97.0131 41.1428 103.727 43.5264 110.514C43.9089 111.603 44.345 115.717 45.0921 116.018C45.0564 109.827 44.513 103.848 44.0807 97.8385C43.9667 92.503 41.5656 84.3616 45.5393 80.0116C49.1213 76.0908 54.1915 82.0828 55.2961 85.4757C60.1678 100.443 58.4827 116.515 65.3662 131.111L65.6639 130.7C70.1007 124.491 72.6189 114.329 81.0309 112.745C82.6244 112.445 84.8023 112.815 86.1133 113.806C86.857 114.359 87.3672 115.17 87.544 116.08C88.0881 119.038 82.5567 129.603 81.7153 133.026C77.7115 149.31 74.8257 157.561 63.6233 170.245L63.5122 176.954C65.6605 177.688 67.4738 178.279 68.3882 180.545C70.3052 185.298 69.6262 192.62 69.6216 197.674C72.6588 193.423 81.2947 181.071 84.8833 178.028C97.3434 167.465 119.938 160.231 135.025 153.728C138.449 147.835 143.94 141.751 149.194 137.447L149.102 131.827C143.868 124.681 141.43 118.643 139.883 109.864C138.001 109.981 136.313 110.127 134.427 110.001C131.948 108.636 130.34 107.457 128.874 104.959C124.574 97.6342 120.677 82.0706 127.466 75.4445C124.479 70.6226 122.368 65.9132 121.824 60.1722C121.718 59.0562 121.753 56.1597 121.097 55.7109L119.998 56.7147C119.129 56.2868 118.588 55.076 118.328 54.1342C115.865 45.1917 119.946 37.7292 125.565 31.2043C121.297 28.649 120.405 27.3999 118.32 22.84Z" fill="var(--fill-0, #261E16)"/>
</svg>
