<svg preserveAspectRatio="none" width="100%" height="100%" overflow="visible" style="display: block;" viewBox="0 0 147 270" fill="none" xmlns="http://www.w3.org/2000/svg">
<path id="Vector" d="M91.557 3.84935C91.5037 2.70444 91.4277 2.52566 91.8752 1.51768C94.36 0.0114074 97.1675 0.0456445 99.9724 0C100.501 0.589575 100.346 1.64321 100.384 2.62076C100.31 6.64889 99.2964 12.712 102.648 15.3822C117.369 15.1464 131.948 12.4533 145.782 7.41343C146.146 32.7614 147.333 58.6761 146.683 84.0354C146.099 106.839 144.383 130.277 143.305 153.16C142.311 177.173 141.557 201.19 141.045 225.214C140.626 238.843 140.35 252.475 140.219 266.111L135.733 267.218C122.157 269.892 111.474 269.801 97.6835 267.781C95.7919 267.496 93.5874 267.028 91.6783 266.671C91.5859 249.813 90.1293 232.43 89.8068 215.423C89.3167 189.55 89.0882 162.936 86.5221 137.238C83.6317 108.288 79.9466 78.6455 79.382 49.6118C88.2038 49.5776 96.2105 46.6829 104.259 43.252C105.657 42.5293 106.776 42.1375 107.644 40.8595L107.245 40.4943C103.226 40.7263 91.9171 44.7354 86.5016 45.7434C72.0909 48.4212 61.2535 42.2669 48.6404 40.2471C54.576 44.7317 64.3119 47.6263 71.6046 48.9842C73.2456 49.3037 73.4087 49.0184 74.1448 50.1101C74.5045 53.9404 72.1711 68.6075 71.7182 73.5942C69.4784 98.2841 65.0587 123.236 62.3637 147.789C60.5774 164.062 60.6573 183.575 59.6535 200.505C58.8113 214.948 57.8813 229.387 56.8635 243.818C56.4038 250.733 55.5452 259.812 55.4422 266.617L50.4442 267.625C34.4233 270.33 22.7304 269.23 7.18698 265.674C7.02348 262.776 6.98887 259.877 6.93678 256.971C6.42121 228.249 5.97636 199.493 4.98475 170.779C3.95359 140.927 0.986733 111.16 0.377621 81.2701C0.0726851 66.3253 -0.0474663 51.3805 0.0167908 36.4358C0.0662194 28.2159 0.552521 18.254 0.174202 10.2548L0.403091 9.39515C1.36771 9.01097 7.7113 10.833 9.1778 11.3845C15.4024 13.7162 48.0199 18.2274 53.0799 15.7778C54.3928 14.203 54.489 3.32444 54.7144 0.285278C61.05 1.30848 70.8289 1.74973 77.2729 2.01599C77.8569 2.97452 77.6573 3.32825 77.6668 4.57207C77.4687 9.70708 76.5041 40.8062 77.3999 42.4608C77.7021 43.02 77.9417 43.0618 78.4995 43.2368C79.1713 42.3734 79.015 39.7564 79.2664 39.7031C94.4892 36.5346 91.7216 17.6074 91.557 3.84935Z" fill="var(--fill-0, #1E536E)"/>
</svg>
