<svg preserveAspectRatio="none" width="100%" height="100%" overflow="visible" style="display: block;" viewBox="0 0 24 219" fill="none" xmlns="http://www.w3.org/2000/svg">
<path id="Vector" d="M21.1604 0C22.8014 0.319512 22.9645 0.0342186 23.7006 1.12588C24.0603 4.95622 21.7269 19.6233 21.274 24.61C19.0342 49.2999 14.6145 74.2522 11.9195 98.8052C10.1332 115.077 10.2131 134.59 9.20931 151.521C8.36712 165.964 7.4371 180.402 6.41925 194.834C5.95956 201.749 5.10101 210.828 4.99797 217.633L0 218.641C1.30187 215.746 1.72544 185.522 2.003 179.893C2.75089 164.712 3.0889 148.47 3.57749 133.225C4.14249 115.587 7.45649 98.9725 9.96176 81.5782C14.0446 54.4349 17.7779 27.2384 21.1604 0Z" fill="var(--fill-0, #1B3747)"/>
</svg>
