<svg preserveAspectRatio="none" width="100%" height="100%" overflow="visible" style="display: block;" viewBox="0 0 83 42" fill="none" xmlns="http://www.w3.org/2000/svg">
<path id="Vector" d="M59.7368 1.86002C66.4276 1.78395 73.1936 1.44921 79.7523 0C76.7091 2.868 74.0434 5.15026 69.794 6.1202L69.6894 6.41305L69.9879 6.96081C73.3156 7.42106 76.6334 5.53824 79.3159 3.84179C80.1622 3.02399 80.0592 2.81859 80.9219 2.79576C82.5473 5.3899 82.7751 17.6987 82.9188 21.2742C82.9523 22.0996 81.7223 22.6511 80.9082 23.1875C76.5452 25.9756 69.967 27.8318 65.499 29.9885C47.6162 38.9957 33.5712 42.5559 13.4378 41.217C-10.0951 39.6499 1.9708 30.2471 14.2086 22.7424C21.7259 22.5598 27.598 23.157 34.5651 27.1319C35.924 27.9079 39.059 32.0843 40.327 32.2783L40.4931 31.723C39.684 28.6496 38.64 27.8774 36.3624 25.637L40.8794 21.0422C41.9692 22.5827 42.4893 24.0775 44.4858 23.4727L44.7588 22.4115C44.5809 21.0193 43.7995 20.4488 42.8144 19.3799L46.8713 15.192C48.3622 16.4244 49.2021 17.577 51.1378 16.8239L51.3081 15.9984C50.9294 14.6367 49.9849 14.0281 48.8933 13.0544L52.3001 9.63864C53.3328 10.3499 54.2217 11.1145 55.4229 11.3503C56.7525 10.8178 56.3046 11.1601 57.1829 10.0989C56.9506 8.92733 55.7563 8.36438 54.6286 7.53517C54.875 6.59946 55.9651 5.91478 56.8236 5.14643L59.7368 1.86002Z" fill="var(--fill-0, #EBDBC4)"/>
</svg>
