<svg preserveAspectRatio="none" width="100%" height="100%" overflow="visible" style="display: block;" viewBox="0 0 72 109" fill="none" xmlns="http://www.w3.org/2000/svg">
<path id="Vector" d="M41.6428 0C50.525 16.4977 54.5781 33.6883 60.0406 51.5093C64.2216 65.1404 68.4738 79.0629 71.8519 92.9201C60.9297 90.4876 50.3287 86.839 40.0965 82.328C35.0353 80.0948 29.9832 77.2937 24.7674 81.0553C14.6422 88.3585 7.84742 99.4145 0 108.799C0.53228 106.001 1.0378 103.236 1.71579 100.464C6.57471 94.3385 22.1982 73.2376 28.7878 74.3378C38.5621 75.9763 55.9846 85.0281 66.8473 87.1393C61.3371 65.9611 55.491 44.8692 49.3088 23.8783C48.2294 20.2445 41.7141 2.11723 41.6428 0Z" fill="var(--fill-0, #6A411D)"/>
</svg>
