<svg preserveAspectRatio="none" width="100%" height="100%" overflow="visible" style="display: block;" viewBox="0 0 65 40" fill="none" xmlns="http://www.w3.org/2000/svg">
<path id="Vector" d="M57.5227 0.984572L57.6 0.0104098C58.9798 -0.190608 60.8383 2.57339 61.6323 3.6558C66.6666 10.5178 64.8022 18.6741 58.3256 23.589C56.2678 29.5627 50.0143 33.6544 44.638 36.5043C39.2051 39.3852 32.4163 39.8048 26.5791 37.9584C21.7056 36.4163 13.4035 30.6591 11.969 25.4959C5.73035 24.3487 -0.265391 20.8306 0.00907488 13.5217C0.177085 9.04996 3.59232 5.73763 6.75418 2.96293C5.32951 8.05023 2.71836 13.7073 6.51421 18.289C10.6 21.5021 14.7836 20.7063 19.3353 22.4117C25.6626 24.7826 30.4745 30.1952 37.751 28.8109C41.7595 28.0488 44.6409 24.7189 48.0666 22.7691C51.2424 20.9903 56.4403 20.2829 58.4088 16.9637C61.0851 12.4586 58.5427 5.74566 57.5227 0.984572Z" fill="var(--fill-0, #291E16)"/>
</svg>
