<svg preserveAspectRatio="none" width="100%" height="100%" overflow="visible" style="display: block;" viewBox="0 0 68 132" fill="none" xmlns="http://www.w3.org/2000/svg">
<path id="Vector" d="M0 131.093C1.43032 129.624 2.82794 126.049 4.13931 124.232C12.9294 112.058 19.8282 98.4332 24.8507 84.2995C25.9212 81.2842 29.4865 70.5078 28.6629 68.227L28.981 68.5214L28.9126 68.2151C28.3447 68.3222 28.1276 68.8485 27.7589 69.467C26.8608 70.9598 23.7296 78.2809 23.0724 79.1789C20.3456 82.8841 9.70893 102.953 7.22892 105.157C7.22 103.616 8.87331 97.7849 9.3937 95.8967C14.4548 77.5732 17.7764 59.5143 20.4051 40.6704C21.0444 36.1237 21.6124 31.5651 22.109 27.0006C22.6026 22.3052 24.1429 3.27397 25.6833 0L26.0252 0.240845C26.6051 3.04498 31.3718 8.59974 32.8111 12.2989C45.1219 43.8403 50.0343 78.0846 58.2386 110.83C59.6421 116.433 59.9782 124.985 61.6166 129.912C63.27 130.311 65.4229 130.206 67.1714 130.215L67.3171 131.093H0Z" fill="var(--fill-0, #38271A)"/>
</svg>
