<svg preserveAspectRatio="none" width="100%" height="100%" overflow="visible" style="display: block;" viewBox="0 0 248 295" fill="none" xmlns="http://www.w3.org/2000/svg">
<path id="Vector" d="M77.9353 55.5213C108.951 63.9676 147.664 16.8471 170.623 0C168.497 5.06291 163.605 16.1174 160.504 20.6186C156.635 27.6818 152.118 33.3451 146.706 39.2594C146.192 39.819 143.507 42.5283 143.962 43.1123C164.245 44.3532 187.07 30.6008 197.505 13.6201C198.947 11.2701 200.345 8.8641 201.87 6.56994C202.373 10.1981 202.994 12.8934 203.91 16.3853C209.379 33.7855 219.388 47.4776 235.865 56.0152C237.622 56.9186 239.409 57.7679 241.22 58.5624C243.123 71.4826 246.079 84.0982 247.049 97.1605C249.13 125.217 245.978 153.886 241.812 181.617C239.879 194.502 237.97 207.758 233.26 219.979C229.575 229.539 223.572 238.314 217.482 246.5C209.738 256.908 189.47 280.352 178.949 286.588C172.514 290.4 165.488 292.375 158.125 293.454C139.352 296.205 115.853 294.783 100.237 283.174C95.0611 279.326 90.3351 274.792 85.3724 270.667C57.1931 247.247 45.7948 232.117 39.1731 195.856C37.1079 184.547 35.8807 171.701 30.3956 161.442C30.5359 168.361 30.8916 175.117 31.7545 181.986C31.9371 183.441 32.15 185.086 32.2357 186.534C25.4403 186.616 19.9471 185.082 14.9288 180.125C4.38312 169.193 0.634274 151.581 0.0336006 136.886C-0.226592 130.522 0.980989 121.372 5.17827 116.28C6.79652 114.317 9.84331 114.748 11.3051 116.805C19.0595 127.715 23.894 139.419 34.3056 148.302C30.0902 126.492 34.3722 95.3692 35.788 72.9355C35.8882 71.3461 39.6445 64.2757 40.6255 62.1605C42.5533 58.0385 44.1112 53.7535 45.2804 49.3558C45.6087 47.9433 45.9182 45.8311 46.1772 44.355C52.7784 44.7532 59.5734 44.6601 66.0045 42.9288C80.0127 39.1583 92.5787 31.5354 102.453 20.9177C100.508 26.0309 95.8872 34.7365 92.7075 39.006C90.4011 42.4641 87.8081 45.7223 84.9561 48.7459C84.0295 49.7298 78.073 55.1085 77.9353 55.5213Z" fill="var(--fill-0, #F4B788)"/>
</svg>
