<svg preserveAspectRatio="none" width="100%" height="100%" overflow="visible" style="display: block;" viewBox="0 0 225 266" fill="none" xmlns="http://www.w3.org/2000/svg">
<path id="Vector" d="M165.487 0C164.738 13.0364 163.439 22.4896 164.964 35.8531C167.562 58.6163 175.225 80.4546 183.149 101.835C186.314 110.375 190.069 120.798 194.35 128.699C196.746 133.198 199.686 137.385 203.103 141.167C206.296 144.751 210.031 148.604 212.034 153.02C226.92 185.849 224.249 230.986 224.239 265.771H66.6846C66.3994 264.1 66.3084 262.117 66.1559 260.404C63.5745 231.393 59.4349 202.231 51.5232 174.154C50.8714 171.84 49.4783 167.201 48.3168 165.283C47.5011 166.69 55.6572 218.714 56.3081 225.488C57.1666 234.423 59.4676 248.747 60.0745 258.453C56.7485 249.958 54.1082 239.603 51.2199 230.807C42.0879 202.998 33.062 175.876 17.5947 150.778C12.3299 142.238 7.25061 133.567 0 126.356C13.8018 114.506 38.9302 103.595 55.7919 95.9532L81.0945 84.2401C95.0126 77.9389 112.006 70.3235 125.278 62.7912C123.719 84.3352 123.266 104.972 124.059 126.579C124.351 134.536 124.197 146.728 126.03 154.361C133.624 158.144 143.954 149.259 149.916 145.762C157.516 141.304 167.14 135.092 175.538 132.237C176.66 131.857 179.017 133.57 179.974 134.292C188.008 140.37 205.459 155.075 207.043 165.176C206.474 166.039 200.626 164.213 198.309 165.845C196.165 166.94 194.742 169.003 194.05 171.424C191.347 180.874 195.769 189.239 205.226 191.847C219.197 188.861 212.651 177.413 214.279 173.648L215.429 173.613L215.661 173.116C215.14 166.723 210.481 154.647 206.849 149.264C205.459 147.204 200.687 143.508 198.896 141.465L198.626 141.152C198.389 135.657 182.013 121.384 176.756 120.141C172.061 119.029 160.373 126.677 156.061 129.291C148.721 133.736 141.431 138.262 134.193 142.871C133.439 130.495 133.542 117.738 133.155 105.365C132.531 85.4176 132.944 65.6578 135.804 45.8861C136.279 42.6062 137.603 38.7821 137.819 35.5766C138.99 33.8191 143.442 28.0592 144.944 26.1739C149.791 20.0899 160.16 4.12443 165.487 0Z" fill="var(--fill-0, #38271A)"/>
</svg>
