<svg preserveAspectRatio="none" width="100%" height="100%" overflow="visible" style="display: block;" viewBox="0 0 45 103" fill="none" xmlns="http://www.w3.org/2000/svg">
<path id="Vector" d="M19.9706 0C26.9887 8.78054 33.7023 11.8645 44.5417 14.1994C39.9032 31.1571 30.5782 45.2486 20.0902 58.9969C25.6149 55.772 28.3708 54.0627 33.0121 49.5892C32.4527 52.851 32.0564 58.682 31.8176 62.0496C30.9823 73.8338 29.6602 91.3455 31.2523 102.925C27.3684 97.5798 24.0546 90.8531 19.9296 85.3516C17.7579 82.4553 13.5812 80.0175 12.6418 78.6181C7.14237 70.426 1.37798 54.7705 0 45.4109C0.741327 43.5025 1.39642 37.3572 2.24093 34.4243C5.80245 21.8845 11.83 10.1814 19.9706 0Z" fill="var(--fill-0, #6A411D)"/>
</svg>
