<svg preserveAspectRatio="none" width="100%" height="100%" overflow="visible" style="display: block;" viewBox="0 0 70 113" fill="none" xmlns="http://www.w3.org/2000/svg">
<path id="Vector" d="M8.55249 0C8.3372 3.20558 7.01273 7.02968 6.53814 10.3096C3.6778 30.0813 3.26506 49.841 3.88893 69.7882C4.27609 82.1615 4.17322 94.9183 4.92674 107.295C12.1649 102.685 19.4547 98.1596 26.7948 93.714C31.1066 91.1002 42.7951 83.452 47.4895 84.5642C52.7472 85.8071 69.1227 100.081 69.3597 105.576C63.8415 102.016 53.1501 89.2417 45.0595 89.9762C37.3994 90.669 6.1593 114.336 1.66614 112.433C1.32715 111.788 0.919762 110.64 0.91887 109.947C0.896567 87.4278 -3.87611 16.7118 8.55249 0Z" fill="var(--fill-0, #6A411D)"/>
</svg>
