<svg preserveAspectRatio="none" width="100%" height="100%" overflow="visible" style="display: block;" viewBox="0 0 304 202" fill="none" xmlns="http://www.w3.org/2000/svg">
<path id="Vector" d="M5.57298 58.391C24.182 58.0478 39.5482 45.2392 53.8012 34.7595C58.7731 31.1222 63.8669 27.6552 69.0746 24.3646C114.276 -4.11075 166.806 -8.75488 214.556 16.433C231.351 25.2909 241.828 32.5138 247.926 51.4125C261.95 53.2368 274.088 58.1278 284.276 68.3069C294.666 78.6881 301.172 94.2685 302.962 108.717C303.388 112.137 303.34 115.773 303.34 119.234C303.31 131.726 300.372 141.142 296.304 152.633C295.454 144.28 294.63 141.389 292.112 133.353C290.155 157.044 281.413 176.482 269.839 196.914C268.953 198.48 268.108 200.23 267.291 201.846C268.15 195.894 267.707 189.835 267.939 183.903C268.724 163.999 265.768 147.249 261.343 127.934C266.348 129.28 267.338 129.03 272.346 127.823C266.205 121.567 261.778 116.581 256.91 109.174C255.215 106.592 250.823 97.7396 249.372 96.3045C250.418 103.369 251.849 110.372 253.657 117.282L253.211 117.389L252.431 116.842C237.819 110.194 226.629 92.9027 222.341 77.9649C221.077 73.5595 220.64 68.8314 219.817 64.327C216.397 68.1867 213.938 73.0165 210.616 77.0743C199.477 90.6826 184.457 101.832 167.359 106.506C178.129 91.3897 186.212 78.8579 190.526 60.2617C187.603 62.219 184.817 64.6392 181.879 66.5605C159.324 81.3162 141.21 102.588 117.129 114.939C113.867 116.613 108.604 117.797 105.04 118.548C106.059 116.938 106.517 116.224 107.77 114.765C119.945 96.8074 123.512 85.2914 127.238 64.3778C126.598 65.5414 126.156 66.2197 125.391 67.3071C123.675 70.6572 120.776 74.1123 118.601 77.1701C109.581 89.8544 99.3287 98.0307 84.5604 103.12C83.1824 103.595 79.9727 104.528 78.534 104.55C65.9226 108.195 48.9092 105.909 38.657 97.4056C52.2162 96.9376 60.7874 91.9077 70.0565 82.4854C54.7691 89.4729 46.0343 92.4947 28.8033 93.2197L31.8819 97.2049C23.7413 107.386 17.7137 119.089 14.1522 131.629C13.3077 134.562 12.6526 140.707 11.9113 142.616C8.64474 127.097 10.913 115.598 17.0691 101.542C10.5214 106.354 4.36985 114.194 0.490152 121.315C0.34831 119.935 0.226684 118.553 0.125581 117.17C-1.16408 98.3825 7.59951 83.9687 20.8881 71.3712C23.9096 68.5067 26.8829 65.4186 29.6178 62.2781C18.8256 67.0136 13.9655 66.9152 5.57298 58.391Z" fill="var(--fill-0, #95582A)"/>
</svg>
