<svg preserveAspectRatio="none" width="100%" height="100%" overflow="visible" style="display: block;" viewBox="0 0 57 24" fill="none" xmlns="http://www.w3.org/2000/svg">
<path id="Vector" d="M19.9109 0.319904C30.5327 -0.598354 39.2008 0.110872 47.985 7.1447C51.5563 10.0047 53.7033 13.5315 56.7185 16.6805C52.5644 15.8164 51.4552 15.0186 47.982 12.6873C47.1583 15.5675 46.3733 16.5649 43.6018 18.1216C39.7212 20.3001 31.5467 21.709 27.2171 21.587C22.8875 24.6957 18.4122 24.0055 14.2193 21.1603C11.2279 20.8216 9.8838 20.4624 6.64848 20.3262C7.76954 14.2823 10.3923 12.904 13.47 8.48462L13.806 7.99783C8.44454 10.4784 4.3112 14.8866 0.359242 16.3213L0.00837394 16.0894C-0.184912 13.5888 3.01768 9.62233 4.45989 7.73943C9.84514 2.48978 12.6255 1.88879 19.9109 0.319904Z" fill="var(--fill-0, #291E16)"/>
</svg>
