<svg preserveAspectRatio="none" width="100%" height="100%" overflow="visible" style="display: block;" viewBox="0 0 148 97" fill="none" xmlns="http://www.w3.org/2000/svg">
<path id="Vector" d="M62.4317 0.748573C82.7981 -2.28305 105.49 4.0954 122.02 16.226C130.082 22.1424 134.474 27.6721 139.951 35.7786C135.39 37.4242 127.126 40.7282 123.237 43.4315C125.116 59.9414 133.029 73.2663 141.64 87.1139C142.886 89.119 146.865 93.4911 147.391 94.9143C132.779 88.2662 121.589 70.9751 117.301 56.0373C116.037 51.6319 115.6 46.9038 114.777 42.3994C111.357 46.2591 108.898 51.0889 105.576 55.1467C94.4369 68.755 79.4171 79.904 62.3187 84.578C73.0892 69.4621 81.1715 56.9303 85.4863 38.3341C82.5632 40.2913 79.7769 42.7116 76.839 44.6329C54.284 59.3886 36.1701 80.6602 12.089 93.0118C8.82693 94.685 3.5639 95.8694 0 96.62C1.01906 95.0104 1.47701 94.2967 2.7295 92.8378C6.86999 92.1476 23.1664 74.6374 26.4371 70.2439C30.8107 64.3685 35.4662 57.2544 40.1887 51.5287C49.1336 40.606 60.7813 32.2144 73.9724 27.1883C83.259 23.6717 91.2284 21.9185 101.098 22.8334C91.838 9.97129 76.8152 4.94467 62.4317 0.748573Z" fill="var(--fill-0, #6A411D)"/>
</svg>
