<svg preserveAspectRatio="none" width="100%" height="100%" overflow="visible" style="display: block;" viewBox="0 0 116 42" fill="none" xmlns="http://www.w3.org/2000/svg">
<path id="Vector" d="M16.4247 17.0806C12.9111 14.0564 9.81552 10.3923 6.33815 7.4228C4.49837 5.85183 -1.2925 5.45783 0.262117 1.61233C0.550857 0.89866 1.83904 -0.134988 2.61278 0.0145854C5.62953 0.597417 8.52437 2.02923 11.531 2.74409C17.1866 4.30881 23.2091 4.67517 28.955 5.46735C54.4596 8.98278 79.4767 7.16261 104.875 3.78308C107.691 3.4084 114.247 -0.928935 115.065 3.91303C115.14 4.34867 114.869 5.54792 114.36 5.74894C109.252 8.03507 105.981 11.0393 102.174 14.9158C100.988 20.6876 88.8942 31.3748 84.2227 34.2503C65.7891 45.5917 39.0517 43.647 24.1074 27.185C21.7674 24.6068 17.1075 20.6073 16.4247 17.0806Z" fill="var(--fill-0, #291E16)"/>
</svg>
