<svg preserveAspectRatio="none" width="100%" height="100%" overflow="visible" style="display: block;" viewBox="0 0 57 25" fill="none" xmlns="http://www.w3.org/2000/svg">
<path id="Vector" d="M7.11814 13.6047C5.62805 14.4887 1.60472 16.8926 0.0301854 16.0612C0.00877521 15.7998 -0.0391088 15.462 0.062292 15.2538C2.11559 11.0488 8.55202 6.68501 12.2601 4.75125C20.7704 0.313999 31.4466 -1.46096 40.6173 1.3625C48.567 3.8101 53.1628 10.0672 56.8197 17.1272C53.5782 15.7805 51.7461 14.4646 48.8216 12.5053C49.6774 15.0668 50.7838 17.5965 51.8261 20.0931C49.3955 20.2034 47.9925 20.3465 45.7019 20.689C44.1877 20.9156 38.5129 22.0935 37.4575 21.9909C33.2424 24.9514 28.3502 24.5339 24.0664 21.9888C17.8818 22.5398 10.5803 18.7392 7.11814 13.6047Z" fill="var(--fill-0, #291E16)"/>
</svg>
