<svg preserveAspectRatio="none" width="100%" height="100%" overflow="visible" style="display: block;" viewBox="0 0 72 144" fill="none" xmlns="http://www.w3.org/2000/svg">
<path id="Vector" d="M1.71579 135.538C2.08155 130.679 3.81519 121.642 4.48128 116.346C6.62825 99.3164 9.58698 81.8314 11.1779 64.7746C12.4952 50.2336 13.3962 35.6598 13.8809 21.0682C14.0921 15.7692 13.9999 4.80242 14.6154 0C26.2899 10.5653 34.289 21.1336 41.6428 35.074C50.525 51.5717 54.5781 68.7623 60.0406 86.5833C64.2216 100.214 68.4738 114.137 71.8519 127.994C60.9297 125.562 50.3287 121.913 40.0965 117.402C35.0353 115.169 29.9832 112.368 24.7674 116.129C14.6422 123.433 7.84742 134.488 0 143.873C0.53228 141.075 1.0378 138.31 1.71579 135.538Z" fill="var(--fill-0, #38271A)"/>
</svg>
