<svg preserveAspectRatio="none" width="100%" height="100%" overflow="visible" style="display: block;" viewBox="0 0 125 121" fill="none" xmlns="http://www.w3.org/2000/svg">
<path id="Vector" d="M51.5546 21.2304C50.9718 20.6857 50.7517 20.2741 50.5733 19.5033C47.9535 8.16905 59.7113 3.26433 68.8285 1.53784C82.5637 -1.06379 100.055 -0.999849 112.309 6.78096C120.141 11.7517 122.877 18.8982 124.566 27.5985C117.769 22.449 111.476 19.4406 103.236 17.5402C99.5461 18.8634 96.1829 18.8899 92.4421 19.7909C86.8041 21.1478 81.6062 23.3393 76.3755 25.756L76.3547 26.2125L76.7799 26.4756C69.4945 28.0445 66.7142 28.6455 61.329 33.8951C60.3685 33.5422 59.1998 34.2493 58.1858 34.6704C53.7967 36.4932 49.4106 41.5148 47.9981 46.1513C45.0037 55.9866 51.7241 72.0858 56.0805 81.1343C56.3838 81.7605 56.6038 82.1179 57.0737 82.6145L57.5227 82.5913L57.6 81.6172C58.9798 81.4162 60.8383 84.1802 61.6323 85.2626C66.6666 92.1245 64.8022 100.281 58.3256 105.196C56.2678 111.169 50.0143 115.261 44.638 118.111C39.2051 120.992 32.4163 121.412 26.5791 119.565C21.7056 118.023 13.4035 112.266 11.969 107.103C5.73035 105.955 -0.265391 102.437 0.00907488 95.1285C0.177085 90.6567 3.59232 87.3444 6.75418 84.5697C5.32951 89.657 2.71836 95.314 6.51421 99.8958C11.1412 96.5288 19.0085 97.8428 24.2808 99.1182C29.7936 100.476 32.4431 102.903 38.0276 99.9692C49.4315 93.9795 48.3431 88.9386 44.9918 77.8249C41.4829 66.1894 41.1558 53.0795 42.3572 41.0036C42.9222 35.3055 45.6698 30.0535 48.923 25.4384C49.5801 24.4999 51.2305 22.2328 51.5546 21.2304Z" fill="var(--fill-0, #E89768)"/>
</svg>
