<svg preserveAspectRatio="none" width="100%" height="100%" overflow="visible" style="display: block;" viewBox="0 0 57 123" fill="none" xmlns="http://www.w3.org/2000/svg">
<path id="Vector" d="M29.8553 0C39.1746 8.78976 46.1329 16.8703 51.7026 28.5742C52.9812 31.2603 55.0895 37.6066 56.169 39.4681C56.1392 51.9601 53.2013 61.3755 49.1334 72.8665C48.2829 64.5136 47.4592 61.6232 44.9405 53.5869C42.9839 77.2776 34.2414 96.7156 22.668 117.147C21.7819 118.714 20.9374 120.464 20.1196 122.08C20.979 116.128 20.5359 110.069 20.7679 104.137C21.5529 84.2332 18.5971 67.483 14.1723 48.1681C19.177 49.5137 20.1672 49.2642 25.1748 48.0569C19.0342 41.8006 14.6065 36.8145 9.73865 29.4077C8.04368 26.8263 3.65163 17.9735 2.2005 16.5385C1.53143 15.0504 0.341968 4.22642 0 1.73422C4.11848 6.97852 8.45999 12.0423 13.0156 16.9116C21.8057 26.2548 27.8897 31.6933 35.1484 42.5393C35.9304 28.1576 34.1403 13.7513 29.8553 0Z" fill="var(--fill-0, #6A411D)"/>
</svg>
