<svg preserveAspectRatio="none" width="100%" height="100%" overflow="visible" style="display: block;" viewBox="0 0 168 133" fill="none" xmlns="http://www.w3.org/2000/svg">
<path id="Vector" d="M0.555944 8.86442C0.368903 5.83428 0.413497 3.02716 0.441747 0C10.8147 15.4153 22.3548 25.8052 36.8375 37.6759C47.7772 46.6414 57.2179 54.4383 72.0778 56.8677C91.7843 60.0912 116.92 59.9217 134.388 48.9341C144.346 41.955 159.863 24.7971 167.389 15.3112C166.937 27.2593 166.339 39.1865 166.226 51.1435C166.211 52.8385 166.143 54.4918 166.003 56.1838C165.721 61.8427 164.002 88.5994 162.381 92.2569C160.478 96.5479 151.798 106.807 148.132 110.393C138.679 119.635 124.676 126.974 111.907 129.992C105.249 131.565 98.3293 132.127 91.4989 132.035C59.4556 131.607 33.5291 115.08 12.0383 92.6554C8.25258 88.7034 7.6638 83.235 6.29474 78.1411C4.02854 69.7138 1.58214 61.1676 0.555345 52.4757C-0.326932 45.0089 0.0685559 37.5867 0.22259 30.0961L0.555944 8.86442Z" fill="var(--fill-0, #F4B788)"/>
</svg>
