<svg preserveAspectRatio="none" width="100%" height="100%" overflow="visible" style="display: block;" viewBox="0 0 85 77" fill="none" xmlns="http://www.w3.org/2000/svg">
<path id="Vector" d="M0 76.4234C1.28164 63.4941 5.19497 40.7042 10.6248 28.9732C14.4668 20.6678 27.4793 4.94621 35.3565 0.111083C36.8403 -0.798849 48.7349 4.15226 51.2149 5.1068C56.2998 7.04264 61.4293 8.85359 66.6005 10.5426C68.0784 11.0303 71.4832 11.6756 73.4547 12.2435C76.1607 13.0226 82.0009 15.7375 84.0468 14.7622C84.3887 14.5986 84.2876 14.6611 84.6534 14.7949C84.3441 15.8178 82.8514 20.0166 82.1645 20.4151C79.0659 22.1933 73.7193 21.1555 70.707 21.9762C62.6753 24.1678 53.6146 22.8862 45.9397 24.9677C42.1721 25.9906 36.6709 32.9846 33.7418 35.536C31.3748 37.5997 29.8107 39.9221 29.8612 43.1128L29.8702 43.5351L29.7423 41.5189L29.4925 41.4059L29.4985 40.5555C28.981 41.623 29.094 43.1217 28.8532 43.66L28.4963 43.2526C27.5299 44.106 25.3948 46.7614 24.4076 47.9093L14.0713 60.1398C9.9944 64.8828 3.38994 71.4902 0 76.4234Z" fill="var(--fill-0, #291E16)"/>
</svg>
