<svg preserveAspectRatio="none" width="100%" height="100%" overflow="visible" style="display: block;" viewBox="0 0 137 83" fill="none" xmlns="http://www.w3.org/2000/svg">
<path id="Vector" d="M0 0C3.11934 0.835591 11.0946 4.98081 14.1961 6.58954C20.5091 9.8992 26.8519 13.1553 33.2214 16.3609C50.3406 24.8566 67.9148 32.1271 84.6534 41.4584C94.6775 46.7157 105.858 51.9791 114.854 58.7947C120.016 62.705 134.408 76.1458 136.175 82.3637C135.178 81.989 131.881 78.7447 130.884 77.7278C112.95 59.4399 91.7396 49.8708 68.7028 39.3947L29.7571 21.9424C24.9874 19.7836 20.2058 17.6574 15.4093 15.561C12.174 14.1723 6.58063 11.9302 3.69918 10.1787C2.76843 7.35379 1.28758 2.49488 0 0Z" fill="var(--fill-0, #38271A)"/>
</svg>
