<svg preserveAspectRatio="none" width="100%" height="100%" overflow="visible" style="display: block;" viewBox="0 0 609 609" fill="none" xmlns="http://www.w3.org/2000/svg">
<path id="Vector" d="M0 0H609V609H603.273L603.127 608.123C603.106 607.846 603.085 607.567 603.062 607.29C602.247 598.012 599.241 584.905 597.275 575.633C593.769 558.668 589.853 541.793 585.529 525.019C576.219 489.692 567.096 458.843 533.502 439.087C506.969 423.481 479.573 411.084 452.108 397.361L429.488 385.894C426.258 384.271 420.585 381.681 417.792 379.804C415.372 378.178 410.908 369.881 408.937 366.893C401.773 356.024 393.358 346.963 383.39 338.652C398.434 316.305 402.448 309.641 406.93 282.655C422.636 277.058 428.712 264.045 432.774 248.668C435.423 238.645 436.966 228.136 436.803 217.764C436.732 213.229 435.712 208.718 434.796 204.284C435.578 201.968 436.88 198.872 437.751 196.494C438.715 193.866 440.368 188.924 441.564 186.534C442.997 184.002 444.888 181.795 446.226 179.193C460.97 150.52 459.584 113.867 439.625 87.9354C429.987 75.4125 414.569 67.7798 399.166 65.8362C397.902 62.4463 395.347 57.5089 393.156 54.6476C370.735 25.4087 329.583 13.5008 294.448 13.3458C249.851 13.1492 216.404 32.8244 182.337 59.4625C170.241 68.9205 157.251 73.2195 141.73 70.5191C142.78 81.071 149.682 86.635 158.67 90.9301C144.969 105.651 135.587 123.321 141.731 144.338C142.504 146.984 144.868 151.017 146.195 153.668C147.571 150.877 149.449 148.129 151.163 145.517C150.022 164.196 155.79 181.31 165.02 197.325C156.632 204.274 155.354 214.589 155.616 225.176C156.009 241.036 161.142 261.425 172.519 273C178.657 279.244 186.059 280.52 194.386 280.404C195.439 289.522 197.419 298.508 200.294 307.224C201.247 310.064 204.013 316.148 204.403 318.354C205.266 323.231 205.424 330.76 205.548 335.806C198.419 339.012 193.384 347.157 188.725 353.247C181.769 362.34 175.104 371.243 169.81 381.425L75.254 429.714C52.2238 441.549 27.5247 457.291 13.3289 479.549C7.2887 489.02 3.39732 499.395 0 510.032V0Z" fill="var(--fill-0, #FFF7E3)"/>
</svg>
