<svg preserveAspectRatio="none" width="100%" height="100%" overflow="visible" style="display: block;" viewBox="0 0 148 61" fill="none" xmlns="http://www.w3.org/2000/svg">
<path id="Vector" d="M0 0C5.38852 5.36146 10.199 9.91709 16.4373 14.3686C39.3846 30.7385 65.4996 39.0855 93.7405 34.518C109.756 31.9279 125.942 23.5423 137.816 12.4625C141.197 9.30451 144.839 4.42773 147.566 0.627432C146.24 10.6248 144.83 20.6132 143.329 30.5868C143.159 31.6424 142.692 35.0621 142.458 35.9185C106.423 65.4437 61.8504 68.5155 21.8678 44.7918C21.3016 44.4558 20.5201 44.3547 19.8784 44.3696C17.5602 42.1393 14.0266 35.6212 13.0138 32.6029C11.3944 29.5282 9.62089 24.7139 8.31457 21.3953L0 0Z" fill="var(--fill-0, #C04E23)"/>
</svg>
