<svg preserveAspectRatio="none" width="100%" height="100%" overflow="visible" style="display: block;" viewBox="0 0 167 96" fill="none" xmlns="http://www.w3.org/2000/svg">
<path id="Vector" d="M0.140096 8.86442C-0.0469455 5.83429 -0.00235088 3.02716 0.0258986 0C10.3988 15.4153 21.9389 25.8052 36.4217 37.6759C47.3614 46.6415 56.8021 54.4383 71.6619 56.8678C91.3685 60.0912 116.505 59.9217 133.972 48.9341C143.93 41.955 159.447 24.7971 166.973 15.3112C166.521 27.2593 165.923 39.1865 165.81 51.1435C165.796 52.8385 165.727 54.4918 165.587 56.1838C164.139 57.5785 160.657 62.3749 159.233 64.1829C153.104 71.8132 146.904 79.057 138.646 84.5196C84.2279 120.527 36.7036 62.6574 9.57245 23.6166C7.46652 20.5924 5.44564 17.5117 3.51307 14.3745C2.574 12.855 1.44046 10.6902 0.479675 9.33424L0.140096 8.86442Z" fill="var(--fill-0, #E89768)"/>
</svg>
