<svg preserveAspectRatio="none" width="100%" height="100%" overflow="visible" style="display: block;" viewBox="0 0 131 30" fill="none" xmlns="http://www.w3.org/2000/svg">
<path id="Vector" d="M130.315 0C130.146 1.05564 129.679 4.47533 129.444 5.33174C93.4092 34.8569 48.8366 37.9287 8.854 14.205C8.28782 13.869 7.50635 13.7679 6.86464 13.7828C4.54639 11.5526 1.01282 5.03437 0 2.01613C1.90283 2.83983 8.44125 7.55602 10.9233 9.08744C19.8921 14.5887 29.6435 18.6952 39.8446 21.2734C63.2566 27.3961 89.0677 24.7109 110.299 12.9026C114.177 10.7616 117.951 8.43917 121.608 5.94429C123.702 4.4991 127.853 1.40653 129.854 0.258705L130.315 0Z" fill="var(--fill-0, #95582A)"/>
</svg>
