<svg preserveAspectRatio="none" width="100%" height="100%" overflow="visible" style="display: block;" viewBox="0 0 1112 728" fill="none" xmlns="http://www.w3.org/2000/svg">
<path id="Rectangle 12" d="M8.03191e-08 82.257C7.65904e-08 44.846 29.3107 14.1341 66.6904 12.6042C175.909 8.1339 396.529 -0.00862185 554.3 6.85243e-06C712.014 0.00863247 935.2 8.1774 1045.28 12.636C1082.68 14.1506 1112 44.932 1112 82.3593V366.689V650.497C1112 688.404 1081.92 719.408 1044.02 720.342C933.537 723.064 711.548 728 554.3 728C397.354 728 177.695 723.083 67.9794 720.357C30.0918 719.416 5.29544e-08 688.489 3.74757e-08 650.589C7.03423e-09 576.054 -2.57784e-08 455.298 3.10755e-08 366.689C8.81876e-08 277.678 8.77198e-08 156.509 8.03191e-08 82.257Z" fill="url(#paint0_linear_120_52883)"/>
<defs>
<linearGradient id="paint0_linear_120_52883" x1="171.413" y1="19.0327" x2="699.574" y2="718.874" gradientUnits="userSpaceOnUse">
<stop stop-color="white" stop-opacity="0.6"/>
<stop offset="0.452453" stop-color="#9BC1BC" stop-opacity="0.1"/>
<stop offset="0.662221" stop-color="#9BC1BC" stop-opacity="0.1"/>
<stop offset="1" stop-color="white" stop-opacity="0.6"/>
</linearGradient>
</defs>
</svg>
