<svg preserveAspectRatio="none" width="100%" height="100%" overflow="visible" style="display: block;" viewBox="0 0 154 153" fill="none" xmlns="http://www.w3.org/2000/svg">
<path id="Vector" d="M140.604 0.0571136C140.604 0.0571136 147.234 -0.601884 149.604 2.55711C150.555 3.82543 152.157 6.31273 152.932 9.05711C153.58 11.3494 153.604 15.1196 153.604 15.1196L153.932 81.3833L152.979 100.903L151.073 119.395L149.643 128.127L148.213 131.209L145.354 133.778L130.104 137.887L106.276 143.024L82.9241 147.133L68.6273 149.188L40.5101 151.756L19.5413 152.784H6.19759L2.86165 151.243L0.955397 148.161L0.478834 143.538L0.00227197 46.4536V22.311C0.00227197 22.311 -0.153006 17.3001 2.10383 16.0571C6.60388 13.5786 15.1039 13.0571 15.1039 13.0571L47.6585 9.98289L129.627 0.764145L140.604 0.0571136ZM130.58 8.98289L81.4945 15.1196L44.3226 19.229L20.0179 21.7973C20.0179 21.7973 14.4862 22.0679 12.3929 24.4204C10.3567 26.7087 9.60388 29.0571 9.60388 29.0571L10.0101 112.204C10.0101 112.204 10.0101 137.057 10.9632 138.942C11.5177 140.038 12.295 141.36 13.346 141.997C14.2128 142.522 15.7288 143.024 15.7288 143.024H26.2132L46.2288 141.483L73.8695 138.915L90.0726 136.86L109.612 133.264L129.151 128.641L139.635 125.559C139.635 125.559 142.285 124.359 143.448 122.991C144.593 121.642 145.354 118.881 145.354 118.881L146.784 109.122L148.213 92.6841L148.69 81.3833V54.1587L147.737 34.1255L146.307 19.7427C146.307 19.7427 146.195 14.3753 144.104 12.0571C142.231 9.98138 140.333 9.66572 137.604 9.05711C134.927 8.45999 130.58 8.98289 130.58 8.98289Z" fill="var(--fill-0, #2C2210)"/>
</svg>
