<svg preserveAspectRatio="none" width="100%" height="100%" overflow="visible" style="display: block;" viewBox="0 0 1409 1037" fill="none" xmlns="http://www.w3.org/2000/svg">
<g id="Rectangle 11">
<g filter="url(#filter0_i_120_52713)">
<path d="M0 81.5999C0 45.6423 28.1732 16.1199 64.1069 14.8074C194.128 10.0585 494.324 0 704.5 0C914.676 0 1214.87 10.0585 1344.89 14.8074C1380.83 16.1199 1409 45.6423 1409 81.6V959.06C1409 995.278 1380.42 1024.92 1344.22 1025.91C1213.84 1029.48 914.315 1037 704.5 1037C494.685 1037 195.163 1029.48 64.7813 1025.91C28.5769 1024.92 0 995.278 0 959.06V81.5999Z" fill="var(--fill-0, #F5C472)"/>
</g>
<path d="M704.5 8.5C914.501 8.5 1214.55 18.5524 1344.58 23.3018C1375.9 24.4455 1400.5 50.1664 1400.5 81.5996V959.061C1400.5 990.72 1375.54 1016.55 1343.99 1017.42C1213.6 1020.99 914.184 1028.5 704.5 1028.5C494.816 1028.5 195.402 1020.99 65.0137 1017.42C33.4564 1016.55 8.50018 990.72 8.5 959.061V81.5996C8.50018 50.1664 33.1034 24.4456 64.417 23.3018C194.448 18.5524 494.499 8.5 704.5 8.5Z" stroke="var(--stroke-0, #3A3A3A)" stroke-width="17"/>
</g>
<defs>
<filter id="filter0_i_120_52713" x="0" y="-4" width="1413" height="1041" filterUnits="userSpaceOnUse" color-interpolation-filters="sRGB">
<feFlood flood-opacity="0" result="BackgroundImageFix"/>
<feBlend mode="normal" in="SourceGraphic" in2="BackgroundImageFix" result="shape"/>
<feColorMatrix in="SourceAlpha" type="matrix" values="0 0 0 0 0 0 0 0 0 0 0 0 0 0 0 0 0 0 127 0" result="hardAlpha"/>
<feOffset dx="46" dy="-47"/>
<feGaussianBlur stdDeviation="2"/>
<feComposite in2="hardAlpha" operator="arithmetic" k2="-1" k3="1"/>
<feColorMatrix type="matrix" values="0 0 0 0 0 0 0 0 0 0 0 0 0 0 0 0 0 0 0.25 0"/>
<feBlend mode="normal" in2="shape" result="effect1_innerShadow_120_52713"/>
</filter>
</defs>
</svg>
